<?xml version="1.0" encoding="utf-8" standalone="no"?>
<!DOCTYPE svg PUBLIC "-//W3C//DTD SVG 1.1//EN"
  "http://www.w3.org/Graphics/SVG/1.1/DTD/svg11.dtd">
<svg xmlns:xlink="http://www.w3.org/1999/xlink" width="1144.8pt" height="444.24pt" viewBox="0 0 1144.8 444.24" xmlns="http://www.w3.org/2000/svg" version="1.1">
 <metadata>
  <rdf:RDF xmlns:dc="http://purl.org/dc/elements/1.1/" xmlns:cc="http://creativecommons.org/ns#" xmlns:rdf="http://www.w3.org/1999/02/22-rdf-syntax-ns#">
   <cc:Work>
    <dc:type rdf:resource="http://purl.org/dc/dcmitype/StillImage"/>
    <dc:date>2026-01-19T07:42:07.387565</dc:date>
    <dc:format>image/svg+xml</dc:format>
    <dc:creator>
     <cc:Agent>
      <dc:title>Matplotlib v3.10.8, https://matplotlib.org/</dc:title>
     </cc:Agent>
    </dc:creator>
   </cc:Work>
  </rdf:RDF>
 </metadata>
 <defs>
  <style type="text/css">*{stroke-linejoin: round; stroke-linecap: butt}</style>
 </defs>
 <g id="figure_1">
  <g id="patch_1">
   <path d="M 0 444.24 
L 1144.8 444.24 
L 1144.8 -0 
L 0 -0 
z
" style="fill: #ffffff"/>
  </g>
  <g id="axes_1">
   <g id="patch_2">
    <path d="M 45.716875 356.135844 
L 563.81875 356.135844 
L 563.81875 88.015563 
L 45.716875 88.015563 
z
" style="fill: #ffffff"/>
   </g>
   <g id="patch_3">
    <path d="M 69.26696 356.135844 
L 112.085297 356.135844 
L 112.085297 132.702276 
L 69.26696 132.702276 
z
" clip-path="url(#p545e42096e)" style="fill: #e74c3c; opacity: 0.8; stroke: #000000; stroke-width: 1.2; stroke-linejoin: miter"/>
   </g>
   <g id="patch_4">
    <path d="M 122.789881 356.135844 
L 165.608218 356.135844 
L 165.608218 309.012396 
L 122.789881 309.012396 
z
" clip-path="url(#p545e42096e)" style="fill: #e74c3c; opacity: 0.8; stroke: #000000; stroke-width: 1.2; stroke-linejoin: miter"/>
   </g>
   <g id="patch_5">
    <path d="M 176.312802 356.135844 
L 219.131139 356.135844 
L 219.131139 278.04568 
L 176.312802 278.04568 
z
" clip-path="url(#p545e42096e)" style="fill: #3498db; opacity: 0.8; stroke: #000000; stroke-width: 1.2; stroke-linejoin: miter"/>
   </g>
   <g id="patch_6">
    <path d="M 229.835723 356.135844 
L 272.65406 356.135844 
L 272.65406 308.798714 
L 229.835723 308.798714 
z
" clip-path="url(#p545e42096e)" style="fill: #3498db; opacity: 0.8; stroke: #000000; stroke-width: 1.2; stroke-linejoin: miter"/>
   </g>
   <g id="patch_7">
    <path d="M 283.358644 356.135844 
L 326.176981 356.135844 
L 326.176981 279.607483 
L 283.358644 279.607483 
z
" clip-path="url(#p545e42096e)" style="fill: #2ecc71; opacity: 0.8; stroke: #000000; stroke-width: 1.2; stroke-linejoin: miter"/>
   </g>
   <g id="patch_8">
    <path d="M 336.881565 356.135844 
L 379.699902 356.135844 
L 379.699902 310.218828 
L 336.881565 310.218828 
z
" clip-path="url(#p545e42096e)" style="fill: #2ecc71; opacity: 0.8; stroke: #000000; stroke-width: 1.2; stroke-linejoin: miter"/>
   </g>
   <g id="patch_9">
    <path d="M 390.404486 356.135844 
L 433.222823 356.135844 
L 433.222823 320.669057 
L 390.404486 320.669057 
z
" clip-path="url(#p545e42096e)" style="fill: #f39c12; opacity: 0.8; stroke: #000000; stroke-width: 1.2; stroke-linejoin: miter"/>
   </g>
   <g id="patch_10">
    <path d="M 443.927407 356.135844 
L 486.745744 356.135844 
L 486.745744 228.838176 
L 443.927407 228.838176 
z
" clip-path="url(#p545e42096e)" style="fill: #9b59b6; opacity: 0.8; stroke: #000000; stroke-width: 1.2; stroke-linejoin: miter"/>
   </g>
   <g id="patch_11">
    <path d="M 497.450328 356.135844 
L 540.268665 356.135844 
L 540.268665 319.508066 
L 497.450328 319.508066 
z
" clip-path="url(#p545e42096e)" style="fill: #1abc9c; opacity: 0.8; stroke: #000000; stroke-width: 1.2; stroke-linejoin: miter"/>
   </g>
   <g id="patch_12">
    <path d="M 45.716875 321.698082 
L 563.81875 321.698082 
L 563.81875 310.218828 
L 45.716875 310.218828 
z
" clip-path="url(#p545e42096e)" style="fill: #008000; opacity: 0.1; stroke: #008000; stroke-linejoin: miter"/>
   </g>
   <g id="matplotlib.axis_1">
    <g id="xtick_1">
     <g id="line2d_1">
      <defs>
       <path id="me04e6f0828" d="M 0 0 
L 0 3.5 
" style="stroke: #000000; stroke-width: 0.8"/>
      </defs>
      <g>
       <use xlink:href="#me04e6f0828" x="90.676129" y="356.135844" style="stroke: #000000; stroke-width: 0.8"/>
      </g>
     </g>
     <g id="text_1">
      <!-- RS_(p=0.01) -->
      <g transform="translate(53.651134 403.119197) rotate(-45) scale(0.08 -0.08)">
       <defs>
        <path id="DejaVuSans-52" d="M 2841 2188 
Q 3044 2119 3236 1894 
Q 3428 1669 3622 1275 
L 4263 0 
L 3584 0 
L 2988 1197 
Q 2756 1666 2539 1819 
Q 2322 1972 1947 1972 
L 1259 1972 
L 1259 0 
L 628 0 
L 628 4666 
L 2053 4666 
Q 2853 4666 3247 4331 
Q 3641 3997 3641 3322 
Q 3641 2881 3436 2590 
Q 3231 2300 2841 2188 
z
M 1259 4147 
L 1259 2491 
L 2053 2491 
Q 2509 2491 2742 2702 
Q 2975 2913 2975 3322 
Q 2975 3731 2742 3939 
Q 2509 4147 2053 4147 
L 1259 4147 
z
" transform="scale(0.015625)"/>
        <path id="DejaVuSans-53" d="M 3425 4513 
L 3425 3897 
Q 3066 4069 2747 4153 
Q 2428 4238 2131 4238 
Q 1616 4238 1336 4038 
Q 1056 3838 1056 3469 
Q 1056 3159 1242 3001 
Q 1428 2844 1947 2747 
L 2328 2669 
Q 3034 2534 3370 2195 
Q 3706 1856 3706 1288 
Q 3706 609 3251 259 
Q 2797 -91 1919 -91 
Q 1588 -91 1214 -16 
Q 841 59 441 206 
L 441 856 
Q 825 641 1194 531 
Q 1563 422 1919 422 
Q 2459 422 2753 634 
Q 3047 847 3047 1241 
Q 3047 1584 2836 1778 
Q 2625 1972 2144 2069 
L 1759 2144 
Q 1053 2284 737 2584 
Q 422 2884 422 3419 
Q 422 4038 858 4394 
Q 1294 4750 2059 4750 
Q 2388 4750 2728 4690 
Q 3069 4631 3425 4513 
z
" transform="scale(0.015625)"/>
        <path id="DejaVuSans-5f" d="M 3263 -1063 
L 3263 -1509 
L -63 -1509 
L -63 -1063 
L 3263 -1063 
z
" transform="scale(0.015625)"/>
        <path id="DejaVuSans-28" d="M 1984 4856 
Q 1566 4138 1362 3434 
Q 1159 2731 1159 2009 
Q 1159 1288 1364 580 
Q 1569 -128 1984 -844 
L 1484 -844 
Q 1016 -109 783 600 
Q 550 1309 550 2009 
Q 550 2706 781 3412 
Q 1013 4119 1484 4856 
L 1984 4856 
z
" transform="scale(0.015625)"/>
        <path id="DejaVuSans-70" d="M 1159 525 
L 1159 -1331 
L 581 -1331 
L 581 3500 
L 1159 3500 
L 1159 2969 
Q 1341 3281 1617 3432 
Q 1894 3584 2278 3584 
Q 2916 3584 3314 3078 
Q 3713 2572 3713 1747 
Q 3713 922 3314 415 
Q 2916 -91 2278 -91 
Q 1894 -91 1617 61 
Q 1341 213 1159 525 
z
M 3116 1747 
Q 3116 2381 2855 2742 
Q 2594 3103 2138 3103 
Q 1681 3103 1420 2742 
Q 1159 2381 1159 1747 
Q 1159 1113 1420 752 
Q 1681 391 2138 391 
Q 2594 391 2855 752 
Q 3116 1113 3116 1747 
z
" transform="scale(0.015625)"/>
        <path id="DejaVuSans-3d" d="M 678 2906 
L 4684 2906 
L 4684 2381 
L 678 2381 
L 678 2906 
z
M 678 1631 
L 4684 1631 
L 4684 1100 
L 678 1100 
L 678 1631 
z
" transform="scale(0.015625)"/>
        <path id="DejaVuSans-30" d="M 2034 4250 
Q 1547 4250 1301 3770 
Q 1056 3291 1056 2328 
Q 1056 1369 1301 889 
Q 1547 409 2034 409 
Q 2525 409 2770 889 
Q 3016 1369 3016 2328 
Q 3016 3291 2770 3770 
Q 2525 4250 2034 4250 
z
M 2034 4750 
Q 2819 4750 3233 4129 
Q 3647 3509 3647 2328 
Q 3647 1150 3233 529 
Q 2819 -91 2034 -91 
Q 1250 -91 836 529 
Q 422 1150 422 2328 
Q 422 3509 836 4129 
Q 1250 4750 2034 4750 
z
" transform="scale(0.015625)"/>
        <path id="DejaVuSans-2e" d="M 684 794 
L 1344 794 
L 1344 0 
L 684 0 
L 684 794 
z
" transform="scale(0.015625)"/>
        <path id="DejaVuSans-31" d="M 794 531 
L 1825 531 
L 1825 4091 
L 703 3866 
L 703 4441 
L 1819 4666 
L 2450 4666 
L 2450 531 
L 3481 531 
L 3481 0 
L 794 0 
L 794 531 
z
" transform="scale(0.015625)"/>
        <path id="DejaVuSans-29" d="M 513 4856 
L 1013 4856 
Q 1481 4119 1714 3412 
Q 1947 2706 1947 2009 
Q 1947 1309 1714 600 
Q 1481 -109 1013 -844 
L 513 -844 
Q 928 -128 1133 580 
Q 1338 1288 1338 2009 
Q 1338 2731 1133 3434 
Q 928 4138 513 4856 
z
" transform="scale(0.015625)"/>
       </defs>
       <use xlink:href="#DejaVuSans-52"/>
       <use xlink:href="#DejaVuSans-53" transform="translate(69.482422 0)"/>
       <use xlink:href="#DejaVuSans-5f" transform="translate(132.958984 0)"/>
       <use xlink:href="#DejaVuSans-28" transform="translate(182.958984 0)"/>
       <use xlink:href="#DejaVuSans-70" transform="translate(221.972656 0)"/>
       <use xlink:href="#DejaVuSans-3d" transform="translate(285.449219 0)"/>
       <use xlink:href="#DejaVuSans-30" transform="translate(369.238281 0)"/>
       <use xlink:href="#DejaVuSans-2e" transform="translate(432.861328 0)"/>
       <use xlink:href="#DejaVuSans-30" transform="translate(464.648438 0)"/>
       <use xlink:href="#DejaVuSans-31" transform="translate(528.271484 0)"/>
       <use xlink:href="#DejaVuSans-29" transform="translate(591.894531 0)"/>
      </g>
     </g>
    </g>
    <g id="xtick_2">
     <g id="line2d_2">
      <g>
       <use xlink:href="#me04e6f0828" x="144.19905" y="356.135844" style="stroke: #000000; stroke-width: 0.8"/>
      </g>
     </g>
     <g id="text_2">
      <!-- RS_(p=0.05) -->
      <g transform="translate(107.174055 403.119197) rotate(-45) scale(0.08 -0.08)">
       <defs>
        <path id="DejaVuSans-35" d="M 691 4666 
L 3169 4666 
L 3169 4134 
L 1269 4134 
L 1269 2991 
Q 1406 3038 1543 3061 
Q 1681 3084 1819 3084 
Q 2600 3084 3056 2656 
Q 3513 2228 3513 1497 
Q 3513 744 3044 326 
Q 2575 -91 1722 -91 
Q 1428 -91 1123 -41 
Q 819 9 494 109 
L 494 744 
Q 775 591 1075 516 
Q 1375 441 1709 441 
Q 2250 441 2565 725 
Q 2881 1009 2881 1497 
Q 2881 1984 2565 2268 
Q 2250 2553 1709 2553 
Q 1456 2553 1204 2497 
Q 953 2441 691 2322 
L 691 4666 
z
" transform="scale(0.015625)"/>
       </defs>
       <use xlink:href="#DejaVuSans-52"/>
       <use xlink:href="#DejaVuSans-53" transform="translate(69.482422 0)"/>
       <use xlink:href="#DejaVuSans-5f" transform="translate(132.958984 0)"/>
       <use xlink:href="#DejaVuSans-28" transform="translate(182.958984 0)"/>
       <use xlink:href="#DejaVuSans-70" transform="translate(221.972656 0)"/>
       <use xlink:href="#DejaVuSans-3d" transform="translate(285.449219 0)"/>
       <use xlink:href="#DejaVuSans-30" transform="translate(369.238281 0)"/>
       <use xlink:href="#DejaVuSans-2e" transform="translate(432.861328 0)"/>
       <use xlink:href="#DejaVuSans-30" transform="translate(464.648438 0)"/>
       <use xlink:href="#DejaVuSans-35" transform="translate(528.271484 0)"/>
       <use xlink:href="#DejaVuSans-29" transform="translate(591.894531 0)"/>
      </g>
     </g>
    </g>
    <g id="xtick_3">
     <g id="line2d_3">
      <g>
       <use xlink:href="#me04e6f0828" x="197.721971" y="356.135844" style="stroke: #000000; stroke-width: 0.8"/>
      </g>
     </g>
     <g id="text_3">
      <!-- SF_(m=3) -->
      <g transform="translate(168.451285 395.364887) rotate(-45) scale(0.08 -0.08)">
       <defs>
        <path id="DejaVuSans-46" d="M 628 4666 
L 3309 4666 
L 3309 4134 
L 1259 4134 
L 1259 2759 
L 3109 2759 
L 3109 2228 
L 1259 2228 
L 1259 0 
L 628 0 
L 628 4666 
z
" transform="scale(0.015625)"/>
        <path id="DejaVuSans-6d" d="M 3328 2828 
Q 3544 3216 3844 3400 
Q 4144 3584 4550 3584 
Q 5097 3584 5394 3201 
Q 5691 2819 5691 2113 
L 5691 0 
L 5113 0 
L 5113 2094 
Q 5113 2597 4934 2840 
Q 4756 3084 4391 3084 
Q 3944 3084 3684 2787 
Q 3425 2491 3425 1978 
L 3425 0 
L 2847 0 
L 2847 2094 
Q 2847 2600 2669 2842 
Q 2491 3084 2119 3084 
Q 1678 3084 1418 2786 
Q 1159 2488 1159 1978 
L 1159 0 
L 581 0 
L 581 3500 
L 1159 3500 
L 1159 2956 
Q 1356 3278 1631 3431 
Q 1906 3584 2284 3584 
Q 2666 3584 2933 3390 
Q 3200 3197 3328 2828 
z
" transform="scale(0.015625)"/>
        <path id="DejaVuSans-33" d="M 2597 2516 
Q 3050 2419 3304 2112 
Q 3559 1806 3559 1356 
Q 3559 666 3084 287 
Q 2609 -91 1734 -91 
Q 1441 -91 1130 -33 
Q 819 25 488 141 
L 488 750 
Q 750 597 1062 519 
Q 1375 441 1716 441 
Q 2309 441 2620 675 
Q 2931 909 2931 1356 
Q 2931 1769 2642 2001 
Q 2353 2234 1838 2234 
L 1294 2234 
L 1294 2753 
L 1863 2753 
Q 2328 2753 2575 2939 
Q 2822 3125 2822 3475 
Q 2822 3834 2567 4026 
Q 2313 4219 1838 4219 
Q 1578 4219 1281 4162 
Q 984 4106 628 3988 
L 628 4550 
Q 988 4650 1302 4700 
Q 1616 4750 1894 4750 
Q 2613 4750 3031 4423 
Q 3450 4097 3450 3541 
Q 3450 3153 3228 2886 
Q 3006 2619 2597 2516 
z
" transform="scale(0.015625)"/>
       </defs>
       <use xlink:href="#DejaVuSans-53"/>
       <use xlink:href="#DejaVuSans-46" transform="translate(63.476562 0)"/>
       <use xlink:href="#DejaVuSans-5f" transform="translate(120.996094 0)"/>
       <use xlink:href="#DejaVuSans-28" transform="translate(170.996094 0)"/>
       <use xlink:href="#DejaVuSans-6d" transform="translate(210.009766 0)"/>
       <use xlink:href="#DejaVuSans-3d" transform="translate(307.421875 0)"/>
       <use xlink:href="#DejaVuSans-33" transform="translate(391.210938 0)"/>
       <use xlink:href="#DejaVuSans-29" transform="translate(454.833984 0)"/>
      </g>
     </g>
    </g>
    <g id="xtick_4">
     <g id="line2d_4">
      <g>
       <use xlink:href="#me04e6f0828" x="251.244892" y="356.135844" style="stroke: #000000; stroke-width: 0.8"/>
      </g>
     </g>
     <g id="text_4">
      <!-- SF_(m=5) -->
      <g transform="translate(221.974206 395.364887) rotate(-45) scale(0.08 -0.08)">
       <use xlink:href="#DejaVuSans-53"/>
       <use xlink:href="#DejaVuSans-46" transform="translate(63.476562 0)"/>
       <use xlink:href="#DejaVuSans-5f" transform="translate(120.996094 0)"/>
       <use xlink:href="#DejaVuSans-28" transform="translate(170.996094 0)"/>
       <use xlink:href="#DejaVuSans-6d" transform="translate(210.009766 0)"/>
       <use xlink:href="#DejaVuSans-3d" transform="translate(307.421875 0)"/>
       <use xlink:href="#DejaVuSans-35" transform="translate(391.210938 0)"/>
       <use xlink:href="#DejaVuSans-29" transform="translate(454.833984 0)"/>
      </g>
     </g>
    </g>
    <g id="xtick_5">
     <g id="line2d_5">
      <g>
       <use xlink:href="#me04e6f0828" x="304.767813" y="356.135844" style="stroke: #000000; stroke-width: 0.8"/>
      </g>
     </g>
     <g id="text_5">
      <!-- SW_(k=6, p=0.1) -->
      <g transform="translate(254.468656 416.399546) rotate(-45) scale(0.08 -0.08)">
       <defs>
        <path id="DejaVuSans-57" d="M 213 4666 
L 850 4666 
L 1831 722 
L 2809 4666 
L 3519 4666 
L 4500 722 
L 5478 4666 
L 6119 4666 
L 4947 0 
L 4153 0 
L 3169 4050 
L 2175 0 
L 1381 0 
L 213 4666 
z
" transform="scale(0.015625)"/>
        <path id="DejaVuSans-6b" d="M 581 4863 
L 1159 4863 
L 1159 1991 
L 2875 3500 
L 3609 3500 
L 1753 1863 
L 3688 0 
L 2938 0 
L 1159 1709 
L 1159 0 
L 581 0 
L 581 4863 
z
" transform="scale(0.015625)"/>
        <path id="DejaVuSans-36" d="M 2113 2584 
Q 1688 2584 1439 2293 
Q 1191 2003 1191 1497 
Q 1191 994 1439 701 
Q 1688 409 2113 409 
Q 2538 409 2786 701 
Q 3034 994 3034 1497 
Q 3034 2003 2786 2293 
Q 2538 2584 2113 2584 
z
M 3366 4563 
L 3366 3988 
Q 3128 4100 2886 4159 
Q 2644 4219 2406 4219 
Q 1781 4219 1451 3797 
Q 1122 3375 1075 2522 
Q 1259 2794 1537 2939 
Q 1816 3084 2150 3084 
Q 2853 3084 3261 2657 
Q 3669 2231 3669 1497 
Q 3669 778 3244 343 
Q 2819 -91 2113 -91 
Q 1303 -91 875 529 
Q 447 1150 447 2328 
Q 447 3434 972 4092 
Q 1497 4750 2381 4750 
Q 2619 4750 2861 4703 
Q 3103 4656 3366 4563 
z
" transform="scale(0.015625)"/>
        <path id="DejaVuSans-2c" d="M 750 794 
L 1409 794 
L 1409 256 
L 897 -744 
L 494 -744 
L 750 256 
L 750 794 
z
" transform="scale(0.015625)"/>
        <path id="DejaVuSans-20" transform="scale(0.015625)"/>
       </defs>
       <use xlink:href="#DejaVuSans-53"/>
       <use xlink:href="#DejaVuSans-57" transform="translate(63.476562 0)"/>
       <use xlink:href="#DejaVuSans-5f" transform="translate(162.353516 0)"/>
       <use xlink:href="#DejaVuSans-28" transform="translate(212.353516 0)"/>
       <use xlink:href="#DejaVuSans-6b" transform="translate(251.367188 0)"/>
       <use xlink:href="#DejaVuSans-3d" transform="translate(309.277344 0)"/>
       <use xlink:href="#DejaVuSans-36" transform="translate(393.066406 0)"/>
       <use xlink:href="#DejaVuSans-2c" transform="translate(456.689453 0)"/>
       <use xlink:href="#DejaVuSans-20" transform="translate(488.476562 0)"/>
       <use xlink:href="#DejaVuSans-70" transform="translate(520.263672 0)"/>
       <use xlink:href="#DejaVuSans-3d" transform="translate(583.740234 0)"/>
       <use xlink:href="#DejaVuSans-30" transform="translate(667.529297 0)"/>
       <use xlink:href="#DejaVuSans-2e" transform="translate(731.152344 0)"/>
       <use xlink:href="#DejaVuSans-31" transform="translate(762.939453 0)"/>
       <use xlink:href="#DejaVuSans-29" transform="translate(826.5625 0)"/>
      </g>
     </g>
    </g>
    <g id="xtick_6">
     <g id="line2d_6">
      <g>
       <use xlink:href="#me04e6f0828" x="358.290733" y="356.135844" style="stroke: #000000; stroke-width: 0.8"/>
      </g>
     </g>
     <g id="text_6">
      <!-- SW_(k=10, p=0.3) -->
      <g transform="translate(304.392403 419.99872) rotate(-45) scale(0.08 -0.08)">
       <use xlink:href="#DejaVuSans-53"/>
       <use xlink:href="#DejaVuSans-57" transform="translate(63.476562 0)"/>
       <use xlink:href="#DejaVuSans-5f" transform="translate(162.353516 0)"/>
       <use xlink:href="#DejaVuSans-28" transform="translate(212.353516 0)"/>
       <use xlink:href="#DejaVuSans-6b" transform="translate(251.367188 0)"/>
       <use xlink:href="#DejaVuSans-3d" transform="translate(309.277344 0)"/>
       <use xlink:href="#DejaVuSans-31" transform="translate(393.066406 0)"/>
       <use xlink:href="#DejaVuSans-30" transform="translate(456.689453 0)"/>
       <use xlink:href="#DejaVuSans-2c" transform="translate(520.3125 0)"/>
       <use xlink:href="#DejaVuSans-20" transform="translate(552.099609 0)"/>
       <use xlink:href="#DejaVuSans-70" transform="translate(583.886719 0)"/>
       <use xlink:href="#DejaVuSans-3d" transform="translate(647.363281 0)"/>
       <use xlink:href="#DejaVuSans-30" transform="translate(731.152344 0)"/>
       <use xlink:href="#DejaVuSans-2e" transform="translate(794.775391 0)"/>
       <use xlink:href="#DejaVuSans-33" transform="translate(826.5625 0)"/>
       <use xlink:href="#DejaVuSans-29" transform="translate(890.185547 0)"/>
      </g>
     </g>
    </g>
    <g id="xtick_7">
     <g id="line2d_7">
      <g>
       <use xlink:href="#me04e6f0828" x="411.813654" y="356.135844" style="stroke: #000000; stroke-width: 0.8"/>
      </g>
     </g>
     <g id="text_7">
      <!-- Hier_(levels=3) -->
      <g transform="translate(366.866412 411.047632) rotate(-45) scale(0.08 -0.08)">
       <defs>
        <path id="DejaVuSans-48" d="M 628 4666 
L 1259 4666 
L 1259 2753 
L 3553 2753 
L 3553 4666 
L 4184 4666 
L 4184 0 
L 3553 0 
L 3553 2222 
L 1259 2222 
L 1259 0 
L 628 0 
L 628 4666 
z
" transform="scale(0.015625)"/>
        <path id="DejaVuSans-69" d="M 603 3500 
L 1178 3500 
L 1178 0 
L 603 0 
L 603 3500 
z
M 603 4863 
L 1178 4863 
L 1178 4134 
L 603 4134 
L 603 4863 
z
" transform="scale(0.015625)"/>
        <path id="DejaVuSans-65" d="M 3597 1894 
L 3597 1613 
L 953 1613 
Q 991 1019 1311 708 
Q 1631 397 2203 397 
Q 2534 397 2845 478 
Q 3156 559 3463 722 
L 3463 178 
Q 3153 47 2828 -22 
Q 2503 -91 2169 -91 
Q 1331 -91 842 396 
Q 353 884 353 1716 
Q 353 2575 817 3079 
Q 1281 3584 2069 3584 
Q 2775 3584 3186 3129 
Q 3597 2675 3597 1894 
z
M 3022 2063 
Q 3016 2534 2758 2815 
Q 2500 3097 2075 3097 
Q 1594 3097 1305 2825 
Q 1016 2553 972 2059 
L 3022 2063 
z
" transform="scale(0.015625)"/>
        <path id="DejaVuSans-72" d="M 2631 2963 
Q 2534 3019 2420 3045 
Q 2306 3072 2169 3072 
Q 1681 3072 1420 2755 
Q 1159 2438 1159 1844 
L 1159 0 
L 581 0 
L 581 3500 
L 1159 3500 
L 1159 2956 
Q 1341 3275 1631 3429 
Q 1922 3584 2338 3584 
Q 2397 3584 2469 3576 
Q 2541 3569 2628 3553 
L 2631 2963 
z
" transform="scale(0.015625)"/>
        <path id="DejaVuSans-6c" d="M 603 4863 
L 1178 4863 
L 1178 0 
L 603 0 
L 603 4863 
z
" transform="scale(0.015625)"/>
        <path id="DejaVuSans-76" d="M 191 3500 
L 800 3500 
L 1894 563 
L 2988 3500 
L 3597 3500 
L 2284 0 
L 1503 0 
L 191 3500 
z
" transform="scale(0.015625)"/>
        <path id="DejaVuSans-73" d="M 2834 3397 
L 2834 2853 
Q 2591 2978 2328 3040 
Q 2066 3103 1784 3103 
Q 1356 3103 1142 2972 
Q 928 2841 928 2578 
Q 928 2378 1081 2264 
Q 1234 2150 1697 2047 
L 1894 2003 
Q 2506 1872 2764 1633 
Q 3022 1394 3022 966 
Q 3022 478 2636 193 
Q 2250 -91 1575 -91 
Q 1294 -91 989 -36 
Q 684 19 347 128 
L 347 722 
Q 666 556 975 473 
Q 1284 391 1588 391 
Q 1994 391 2212 530 
Q 2431 669 2431 922 
Q 2431 1156 2273 1281 
Q 2116 1406 1581 1522 
L 1381 1569 
Q 847 1681 609 1914 
Q 372 2147 372 2553 
Q 372 3047 722 3315 
Q 1072 3584 1716 3584 
Q 2034 3584 2315 3537 
Q 2597 3491 2834 3397 
z
" transform="scale(0.015625)"/>
       </defs>
       <use xlink:href="#DejaVuSans-48"/>
       <use xlink:href="#DejaVuSans-69" transform="translate(75.195312 0)"/>
       <use xlink:href="#DejaVuSans-65" transform="translate(102.978516 0)"/>
       <use xlink:href="#DejaVuSans-72" transform="translate(164.501953 0)"/>
       <use xlink:href="#DejaVuSans-5f" transform="translate(205.615234 0)"/>
       <use xlink:href="#DejaVuSans-28" transform="translate(255.615234 0)"/>
       <use xlink:href="#DejaVuSans-6c" transform="translate(294.628906 0)"/>
       <use xlink:href="#DejaVuSans-65" transform="translate(322.412109 0)"/>
       <use xlink:href="#DejaVuSans-76" transform="translate(383.935547 0)"/>
       <use xlink:href="#DejaVuSans-65" transform="translate(443.115234 0)"/>
       <use xlink:href="#DejaVuSans-6c" transform="translate(504.638672 0)"/>
       <use xlink:href="#DejaVuSans-73" transform="translate(532.421875 0)"/>
       <use xlink:href="#DejaVuSans-3d" transform="translate(584.521484 0)"/>
       <use xlink:href="#DejaVuSans-33" transform="translate(668.310547 0)"/>
       <use xlink:href="#DejaVuSans-29" transform="translate(731.933594 0)"/>
      </g>
     </g>
    </g>
    <g id="xtick_8">
     <g id="line2d_8">
      <g>
       <use xlink:href="#me04e6f0828" x="465.336575" y="356.135844" style="stroke: #000000; stroke-width: 0.8"/>
      </g>
     </g>
     <g id="text_8">
      <!-- Mod_(mod=10) -->
      <g transform="translate(420.325693 411.111271) rotate(-45) scale(0.08 -0.08)">
       <defs>
        <path id="DejaVuSans-4d" d="M 628 4666 
L 1569 4666 
L 2759 1491 
L 3956 4666 
L 4897 4666 
L 4897 0 
L 4281 0 
L 4281 4097 
L 3078 897 
L 2444 897 
L 1241 4097 
L 1241 0 
L 628 0 
L 628 4666 
z
" transform="scale(0.015625)"/>
        <path id="DejaVuSans-6f" d="M 1959 3097 
Q 1497 3097 1228 2736 
Q 959 2375 959 1747 
Q 959 1119 1226 758 
Q 1494 397 1959 397 
Q 2419 397 2687 759 
Q 2956 1122 2956 1747 
Q 2956 2369 2687 2733 
Q 2419 3097 1959 3097 
z
M 1959 3584 
Q 2709 3584 3137 3096 
Q 3566 2609 3566 1747 
Q 3566 888 3137 398 
Q 2709 -91 1959 -91 
Q 1206 -91 779 398 
Q 353 888 353 1747 
Q 353 2609 779 3096 
Q 1206 3584 1959 3584 
z
" transform="scale(0.015625)"/>
        <path id="DejaVuSans-64" d="M 2906 2969 
L 2906 4863 
L 3481 4863 
L 3481 0 
L 2906 0 
L 2906 525 
Q 2725 213 2448 61 
Q 2172 -91 1784 -91 
Q 1150 -91 751 415 
Q 353 922 353 1747 
Q 353 2572 751 3078 
Q 1150 3584 1784 3584 
Q 2172 3584 2448 3432 
Q 2725 3281 2906 2969 
z
M 947 1747 
Q 947 1113 1208 752 
Q 1469 391 1925 391 
Q 2381 391 2643 752 
Q 2906 1113 2906 1747 
Q 2906 2381 2643 2742 
Q 2381 3103 1925 3103 
Q 1469 3103 1208 2742 
Q 947 2381 947 1747 
z
" transform="scale(0.015625)"/>
       </defs>
       <use xlink:href="#DejaVuSans-4d"/>
       <use xlink:href="#DejaVuSans-6f" transform="translate(86.279297 0)"/>
       <use xlink:href="#DejaVuSans-64" transform="translate(147.460938 0)"/>
       <use xlink:href="#DejaVuSans-5f" transform="translate(210.9375 0)"/>
       <use xlink:href="#DejaVuSans-28" transform="translate(260.9375 0)"/>
       <use xlink:href="#DejaVuSans-6d" transform="translate(299.951172 0)"/>
       <use xlink:href="#DejaVuSans-6f" transform="translate(397.363281 0)"/>
       <use xlink:href="#DejaVuSans-64" transform="translate(458.544922 0)"/>
       <use xlink:href="#DejaVuSans-3d" transform="translate(522.021484 0)"/>
       <use xlink:href="#DejaVuSans-31" transform="translate(605.810547 0)"/>
       <use xlink:href="#DejaVuSans-30" transform="translate(669.433594 0)"/>
       <use xlink:href="#DejaVuSans-29" transform="translate(733.056641 0)"/>
      </g>
     </g>
    </g>
    <g id="xtick_9">
     <g id="line2d_9">
      <g>
       <use xlink:href="#me04e6f0828" x="518.859496" y="356.135844" style="stroke: #000000; stroke-width: 0.8"/>
      </g>
     </g>
     <g id="text_9">
      <!-- CC_(layers=6) -->
      <g transform="translate(476.904199 408.055686) rotate(-45) scale(0.08 -0.08)">
       <defs>
        <path id="DejaVuSans-43" d="M 4122 4306 
L 4122 3641 
Q 3803 3938 3442 4084 
Q 3081 4231 2675 4231 
Q 1875 4231 1450 3742 
Q 1025 3253 1025 2328 
Q 1025 1406 1450 917 
Q 1875 428 2675 428 
Q 3081 428 3442 575 
Q 3803 722 4122 1019 
L 4122 359 
Q 3791 134 3420 21 
Q 3050 -91 2638 -91 
Q 1578 -91 968 557 
Q 359 1206 359 2328 
Q 359 3453 968 4101 
Q 1578 4750 2638 4750 
Q 3056 4750 3426 4639 
Q 3797 4528 4122 4306 
z
" transform="scale(0.015625)"/>
        <path id="DejaVuSans-61" d="M 2194 1759 
Q 1497 1759 1228 1600 
Q 959 1441 959 1056 
Q 959 750 1161 570 
Q 1363 391 1709 391 
Q 2188 391 2477 730 
Q 2766 1069 2766 1631 
L 2766 1759 
L 2194 1759 
z
M 3341 1997 
L 3341 0 
L 2766 0 
L 2766 531 
Q 2569 213 2275 61 
Q 1981 -91 1556 -91 
Q 1019 -91 701 211 
Q 384 513 384 1019 
Q 384 1609 779 1909 
Q 1175 2209 1959 2209 
L 2766 2209 
L 2766 2266 
Q 2766 2663 2505 2880 
Q 2244 3097 1772 3097 
Q 1472 3097 1187 3025 
Q 903 2953 641 2809 
L 641 3341 
Q 956 3463 1253 3523 
Q 1550 3584 1831 3584 
Q 2591 3584 2966 3190 
Q 3341 2797 3341 1997 
z
" transform="scale(0.015625)"/>
        <path id="DejaVuSans-79" d="M 2059 -325 
Q 1816 -950 1584 -1140 
Q 1353 -1331 966 -1331 
L 506 -1331 
L 506 -850 
L 844 -850 
Q 1081 -850 1212 -737 
Q 1344 -625 1503 -206 
L 1606 56 
L 191 3500 
L 800 3500 
L 1894 763 
L 2988 3500 
L 3597 3500 
L 2059 -325 
z
" transform="scale(0.015625)"/>
       </defs>
       <use xlink:href="#DejaVuSans-43"/>
       <use xlink:href="#DejaVuSans-43" transform="translate(69.824219 0)"/>
       <use xlink:href="#DejaVuSans-5f" transform="translate(139.648438 0)"/>
       <use xlink:href="#DejaVuSans-28" transform="translate(189.648438 0)"/>
       <use xlink:href="#DejaVuSans-6c" transform="translate(228.662109 0)"/>
       <use xlink:href="#DejaVuSans-61" transform="translate(256.445312 0)"/>
       <use xlink:href="#DejaVuSans-79" transform="translate(317.724609 0)"/>
       <use xlink:href="#DejaVuSans-65" transform="translate(376.904297 0)"/>
       <use xlink:href="#DejaVuSans-72" transform="translate(438.427734 0)"/>
       <use xlink:href="#DejaVuSans-73" transform="translate(479.541016 0)"/>
       <use xlink:href="#DejaVuSans-3d" transform="translate(531.640625 0)"/>
       <use xlink:href="#DejaVuSans-36" transform="translate(615.429688 0)"/>
       <use xlink:href="#DejaVuSans-29" transform="translate(679.052734 0)"/>
      </g>
     </g>
    </g>
    <g id="text_10">
     <!-- Graph-Konfiguration -->
     <g transform="translate(235.283125 434.450625) scale(0.12 -0.12)">
      <defs>
       <path id="DejaVuSans-Bold-47" d="M 4781 347 
Q 4331 128 3847 18 
Q 3363 -91 2847 -91 
Q 1681 -91 1000 561 
Q 319 1213 319 2328 
Q 319 3456 1012 4103 
Q 1706 4750 2913 4750 
Q 3378 4750 3804 4662 
Q 4231 4575 4609 4403 
L 4609 3438 
Q 4219 3659 3833 3768 
Q 3447 3878 3059 3878 
Q 2341 3878 1952 3476 
Q 1563 3075 1563 2328 
Q 1563 1588 1938 1184 
Q 2313 781 3003 781 
Q 3191 781 3352 804 
Q 3513 828 3641 878 
L 3641 1784 
L 2906 1784 
L 2906 2591 
L 4781 2591 
L 4781 347 
z
" transform="scale(0.015625)"/>
       <path id="DejaVuSans-Bold-72" d="M 3138 2547 
Q 2991 2616 2845 2648 
Q 2700 2681 2553 2681 
Q 2122 2681 1889 2404 
Q 1656 2128 1656 1613 
L 1656 0 
L 538 0 
L 538 3500 
L 1656 3500 
L 1656 2925 
Q 1872 3269 2151 3426 
Q 2431 3584 2822 3584 
Q 2878 3584 2943 3579 
Q 3009 3575 3134 3559 
L 3138 2547 
z
" transform="scale(0.015625)"/>
       <path id="DejaVuSans-Bold-61" d="M 2106 1575 
Q 1756 1575 1579 1456 
Q 1403 1338 1403 1106 
Q 1403 894 1545 773 
Q 1688 653 1941 653 
Q 2256 653 2472 879 
Q 2688 1106 2688 1447 
L 2688 1575 
L 2106 1575 
z
M 3816 1997 
L 3816 0 
L 2688 0 
L 2688 519 
Q 2463 200 2181 54 
Q 1900 -91 1497 -91 
Q 953 -91 614 226 
Q 275 544 275 1050 
Q 275 1666 698 1953 
Q 1122 2241 2028 2241 
L 2688 2241 
L 2688 2328 
Q 2688 2594 2478 2717 
Q 2269 2841 1825 2841 
Q 1466 2841 1156 2769 
Q 847 2697 581 2553 
L 581 3406 
Q 941 3494 1303 3539 
Q 1666 3584 2028 3584 
Q 2975 3584 3395 3211 
Q 3816 2838 3816 1997 
z
" transform="scale(0.015625)"/>
       <path id="DejaVuSans-Bold-70" d="M 1656 506 
L 1656 -1331 
L 538 -1331 
L 538 3500 
L 1656 3500 
L 1656 2988 
Q 1888 3294 2169 3439 
Q 2450 3584 2816 3584 
Q 3463 3584 3878 3070 
Q 4294 2556 4294 1747 
Q 4294 938 3878 423 
Q 3463 -91 2816 -91 
Q 2450 -91 2169 54 
Q 1888 200 1656 506 
z
M 2400 2772 
Q 2041 2772 1848 2508 
Q 1656 2244 1656 1747 
Q 1656 1250 1848 986 
Q 2041 722 2400 722 
Q 2759 722 2948 984 
Q 3138 1247 3138 1747 
Q 3138 2247 2948 2509 
Q 2759 2772 2400 2772 
z
" transform="scale(0.015625)"/>
       <path id="DejaVuSans-Bold-68" d="M 4056 2131 
L 4056 0 
L 2931 0 
L 2931 347 
L 2931 1625 
Q 2931 2084 2911 2256 
Q 2891 2428 2841 2509 
Q 2775 2619 2662 2680 
Q 2550 2741 2406 2741 
Q 2056 2741 1856 2470 
Q 1656 2200 1656 1722 
L 1656 0 
L 538 0 
L 538 4863 
L 1656 4863 
L 1656 2988 
Q 1909 3294 2193 3439 
Q 2478 3584 2822 3584 
Q 3428 3584 3742 3212 
Q 4056 2841 4056 2131 
z
" transform="scale(0.015625)"/>
       <path id="DejaVuSans-Bold-2d" d="M 347 2297 
L 2309 2297 
L 2309 1388 
L 347 1388 
L 347 2297 
z
" transform="scale(0.015625)"/>
       <path id="DejaVuSans-Bold-4b" d="M 588 4666 
L 1791 4666 
L 1791 2963 
L 3525 4666 
L 4922 4666 
L 2675 2456 
L 5153 0 
L 3647 0 
L 1791 1838 
L 1791 0 
L 588 0 
L 588 4666 
z
" transform="scale(0.015625)"/>
       <path id="DejaVuSans-Bold-6f" d="M 2203 2784 
Q 1831 2784 1636 2517 
Q 1441 2250 1441 1747 
Q 1441 1244 1636 976 
Q 1831 709 2203 709 
Q 2569 709 2762 976 
Q 2956 1244 2956 1747 
Q 2956 2250 2762 2517 
Q 2569 2784 2203 2784 
z
M 2203 3584 
Q 3106 3584 3614 3096 
Q 4122 2609 4122 1747 
Q 4122 884 3614 396 
Q 3106 -91 2203 -91 
Q 1297 -91 786 396 
Q 275 884 275 1747 
Q 275 2609 786 3096 
Q 1297 3584 2203 3584 
z
" transform="scale(0.015625)"/>
       <path id="DejaVuSans-Bold-6e" d="M 4056 2131 
L 4056 0 
L 2931 0 
L 2931 347 
L 2931 1631 
Q 2931 2084 2911 2256 
Q 2891 2428 2841 2509 
Q 2775 2619 2662 2680 
Q 2550 2741 2406 2741 
Q 2056 2741 1856 2470 
Q 1656 2200 1656 1722 
L 1656 0 
L 538 0 
L 538 3500 
L 1656 3500 
L 1656 2988 
Q 1909 3294 2193 3439 
Q 2478 3584 2822 3584 
Q 3428 3584 3742 3212 
Q 4056 2841 4056 2131 
z
" transform="scale(0.015625)"/>
       <path id="DejaVuSans-Bold-66" d="M 2841 4863 
L 2841 4128 
L 2222 4128 
Q 1984 4128 1890 4042 
Q 1797 3956 1797 3744 
L 1797 3500 
L 2753 3500 
L 2753 2700 
L 1797 2700 
L 1797 0 
L 678 0 
L 678 2700 
L 122 2700 
L 122 3500 
L 678 3500 
L 678 3744 
Q 678 4316 997 4589 
Q 1316 4863 1984 4863 
L 2841 4863 
z
" transform="scale(0.015625)"/>
       <path id="DejaVuSans-Bold-69" d="M 538 3500 
L 1656 3500 
L 1656 0 
L 538 0 
L 538 3500 
z
M 538 4863 
L 1656 4863 
L 1656 3950 
L 538 3950 
L 538 4863 
z
" transform="scale(0.015625)"/>
       <path id="DejaVuSans-Bold-67" d="M 2919 594 
Q 2688 288 2409 144 
Q 2131 0 1766 0 
Q 1125 0 706 504 
Q 288 1009 288 1791 
Q 288 2575 706 3076 
Q 1125 3578 1766 3578 
Q 2131 3578 2409 3434 
Q 2688 3291 2919 2981 
L 2919 3500 
L 4044 3500 
L 4044 353 
Q 4044 -491 3511 -936 
Q 2978 -1381 1966 -1381 
Q 1638 -1381 1331 -1331 
Q 1025 -1281 716 -1178 
L 716 -306 
Q 1009 -475 1290 -558 
Q 1572 -641 1856 -641 
Q 2406 -641 2662 -400 
Q 2919 -159 2919 353 
L 2919 594 
z
M 2181 2772 
Q 1834 2772 1640 2515 
Q 1447 2259 1447 1791 
Q 1447 1309 1634 1061 
Q 1822 813 2181 813 
Q 2531 813 2725 1069 
Q 2919 1325 2919 1791 
Q 2919 2259 2725 2515 
Q 2531 2772 2181 2772 
z
" transform="scale(0.015625)"/>
       <path id="DejaVuSans-Bold-75" d="M 500 1363 
L 500 3500 
L 1625 3500 
L 1625 3150 
Q 1625 2866 1622 2436 
Q 1619 2006 1619 1863 
Q 1619 1441 1641 1255 
Q 1663 1069 1716 984 
Q 1784 875 1895 815 
Q 2006 756 2150 756 
Q 2500 756 2700 1025 
Q 2900 1294 2900 1772 
L 2900 3500 
L 4019 3500 
L 4019 0 
L 2900 0 
L 2900 506 
Q 2647 200 2364 54 
Q 2081 -91 1741 -91 
Q 1134 -91 817 281 
Q 500 653 500 1363 
z
" transform="scale(0.015625)"/>
       <path id="DejaVuSans-Bold-74" d="M 1759 4494 
L 1759 3500 
L 2913 3500 
L 2913 2700 
L 1759 2700 
L 1759 1216 
Q 1759 972 1856 886 
Q 1953 800 2241 800 
L 2816 800 
L 2816 0 
L 1856 0 
Q 1194 0 917 276 
Q 641 553 641 1216 
L 641 2700 
L 84 2700 
L 84 3500 
L 641 3500 
L 641 4494 
L 1759 4494 
z
" transform="scale(0.015625)"/>
      </defs>
      <use xlink:href="#DejaVuSans-Bold-47"/>
      <use xlink:href="#DejaVuSans-Bold-72" transform="translate(82.080078 0)"/>
      <use xlink:href="#DejaVuSans-Bold-61" transform="translate(131.396484 0)"/>
      <use xlink:href="#DejaVuSans-Bold-70" transform="translate(198.876953 0)"/>
      <use xlink:href="#DejaVuSans-Bold-68" transform="translate(270.458984 0)"/>
      <use xlink:href="#DejaVuSans-Bold-2d" transform="translate(341.650391 0)"/>
      <use xlink:href="#DejaVuSans-Bold-4b" transform="translate(383.154297 0)"/>
      <use xlink:href="#DejaVuSans-Bold-6f" transform="translate(458.894531 0)"/>
      <use xlink:href="#DejaVuSans-Bold-6e" transform="translate(527.595703 0)"/>
      <use xlink:href="#DejaVuSans-Bold-66" transform="translate(598.787109 0)"/>
      <use xlink:href="#DejaVuSans-Bold-69" transform="translate(642.292969 0)"/>
      <use xlink:href="#DejaVuSans-Bold-67" transform="translate(676.570312 0)"/>
      <use xlink:href="#DejaVuSans-Bold-75" transform="translate(748.152344 0)"/>
      <use xlink:href="#DejaVuSans-Bold-72" transform="translate(819.34375 0)"/>
      <use xlink:href="#DejaVuSans-Bold-61" transform="translate(868.660156 0)"/>
      <use xlink:href="#DejaVuSans-Bold-74" transform="translate(936.140625 0)"/>
      <use xlink:href="#DejaVuSans-Bold-69" transform="translate(983.943359 0)"/>
      <use xlink:href="#DejaVuSans-Bold-6f" transform="translate(1018.220703 0)"/>
      <use xlink:href="#DejaVuSans-Bold-6e" transform="translate(1086.921875 0)"/>
     </g>
    </g>
   </g>
   <g id="matplotlib.axis_2">
    <g id="ytick_1">
     <g id="line2d_10">
      <path d="M 45.716875 356.135844 
L 563.81875 356.135844 
" clip-path="url(#p545e42096e)" style="fill: none; stroke: #b0b0b0; stroke-opacity: 0.3; stroke-width: 0.8; stroke-linecap: square"/>
     </g>
     <g id="line2d_11">
      <defs>
       <path id="m300cc038d6" d="M 0 0 
L -3.5 0 
" style="stroke: #000000; stroke-width: 0.8"/>
      </defs>
      <g>
       <use xlink:href="#m300cc038d6" x="45.716875" y="356.135844" style="stroke: #000000; stroke-width: 0.8"/>
      </g>
     </g>
     <g id="text_11">
      <!-- 0.0 -->
      <g transform="translate(22.81375 359.935063) scale(0.1 -0.1)">
       <use xlink:href="#DejaVuSans-30"/>
       <use xlink:href="#DejaVuSans-2e" transform="translate(63.623047 0)"/>
       <use xlink:href="#DejaVuSans-30" transform="translate(95.410156 0)"/>
      </g>
     </g>
    </g>
    <g id="ytick_2">
     <g id="line2d_12">
      <path d="M 45.716875 310.218828 
L 563.81875 310.218828 
" clip-path="url(#p545e42096e)" style="fill: none; stroke: #b0b0b0; stroke-opacity: 0.3; stroke-width: 0.8; stroke-linecap: square"/>
     </g>
     <g id="line2d_13">
      <g>
       <use xlink:href="#m300cc038d6" x="45.716875" y="310.218828" style="stroke: #000000; stroke-width: 0.8"/>
      </g>
     </g>
     <g id="text_12">
      <!-- 0.2 -->
      <g transform="translate(22.81375 314.018046) scale(0.1 -0.1)">
       <defs>
        <path id="DejaVuSans-32" d="M 1228 531 
L 3431 531 
L 3431 0 
L 469 0 
L 469 531 
Q 828 903 1448 1529 
Q 2069 2156 2228 2338 
Q 2531 2678 2651 2914 
Q 2772 3150 2772 3378 
Q 2772 3750 2511 3984 
Q 2250 4219 1831 4219 
Q 1534 4219 1204 4116 
Q 875 4013 500 3803 
L 500 4441 
Q 881 4594 1212 4672 
Q 1544 4750 1819 4750 
Q 2544 4750 2975 4387 
Q 3406 4025 3406 3419 
Q 3406 3131 3298 2873 
Q 3191 2616 2906 2266 
Q 2828 2175 2409 1742 
Q 1991 1309 1228 531 
z
" transform="scale(0.015625)"/>
       </defs>
       <use xlink:href="#DejaVuSans-30"/>
       <use xlink:href="#DejaVuSans-2e" transform="translate(63.623047 0)"/>
       <use xlink:href="#DejaVuSans-32" transform="translate(95.410156 0)"/>
      </g>
     </g>
    </g>
    <g id="ytick_3">
     <g id="line2d_14">
      <path d="M 45.716875 264.301811 
L 563.81875 264.301811 
" clip-path="url(#p545e42096e)" style="fill: none; stroke: #b0b0b0; stroke-opacity: 0.3; stroke-width: 0.8; stroke-linecap: square"/>
     </g>
     <g id="line2d_15">
      <g>
       <use xlink:href="#m300cc038d6" x="45.716875" y="264.301811" style="stroke: #000000; stroke-width: 0.8"/>
      </g>
     </g>
     <g id="text_13">
      <!-- 0.4 -->
      <g transform="translate(22.81375 268.10103) scale(0.1 -0.1)">
       <defs>
        <path id="DejaVuSans-34" d="M 2419 4116 
L 825 1625 
L 2419 1625 
L 2419 4116 
z
M 2253 4666 
L 3047 4666 
L 3047 1625 
L 3713 1625 
L 3713 1100 
L 3047 1100 
L 3047 0 
L 2419 0 
L 2419 1100 
L 313 1100 
L 313 1709 
L 2253 4666 
z
" transform="scale(0.015625)"/>
       </defs>
       <use xlink:href="#DejaVuSans-30"/>
       <use xlink:href="#DejaVuSans-2e" transform="translate(63.623047 0)"/>
       <use xlink:href="#DejaVuSans-34" transform="translate(95.410156 0)"/>
      </g>
     </g>
    </g>
    <g id="ytick_4">
     <g id="line2d_16">
      <path d="M 45.716875 218.384795 
L 563.81875 218.384795 
" clip-path="url(#p545e42096e)" style="fill: none; stroke: #b0b0b0; stroke-opacity: 0.3; stroke-width: 0.8; stroke-linecap: square"/>
     </g>
     <g id="line2d_17">
      <g>
       <use xlink:href="#m300cc038d6" x="45.716875" y="218.384795" style="stroke: #000000; stroke-width: 0.8"/>
      </g>
     </g>
     <g id="text_14">
      <!-- 0.6 -->
      <g transform="translate(22.81375 222.184014) scale(0.1 -0.1)">
       <use xlink:href="#DejaVuSans-30"/>
       <use xlink:href="#DejaVuSans-2e" transform="translate(63.623047 0)"/>
       <use xlink:href="#DejaVuSans-36" transform="translate(95.410156 0)"/>
      </g>
     </g>
    </g>
    <g id="ytick_5">
     <g id="line2d_18">
      <path d="M 45.716875 172.467779 
L 563.81875 172.467779 
" clip-path="url(#p545e42096e)" style="fill: none; stroke: #b0b0b0; stroke-opacity: 0.3; stroke-width: 0.8; stroke-linecap: square"/>
     </g>
     <g id="line2d_19">
      <g>
       <use xlink:href="#m300cc038d6" x="45.716875" y="172.467779" style="stroke: #000000; stroke-width: 0.8"/>
      </g>
     </g>
     <g id="text_15">
      <!-- 0.8 -->
      <g transform="translate(22.81375 176.266997) scale(0.1 -0.1)">
       <defs>
        <path id="DejaVuSans-38" d="M 2034 2216 
Q 1584 2216 1326 1975 
Q 1069 1734 1069 1313 
Q 1069 891 1326 650 
Q 1584 409 2034 409 
Q 2484 409 2743 651 
Q 3003 894 3003 1313 
Q 3003 1734 2745 1975 
Q 2488 2216 2034 2216 
z
M 1403 2484 
Q 997 2584 770 2862 
Q 544 3141 544 3541 
Q 544 4100 942 4425 
Q 1341 4750 2034 4750 
Q 2731 4750 3128 4425 
Q 3525 4100 3525 3541 
Q 3525 3141 3298 2862 
Q 3072 2584 2669 2484 
Q 3125 2378 3379 2068 
Q 3634 1759 3634 1313 
Q 3634 634 3220 271 
Q 2806 -91 2034 -91 
Q 1263 -91 848 271 
Q 434 634 434 1313 
Q 434 1759 690 2068 
Q 947 2378 1403 2484 
z
M 1172 3481 
Q 1172 3119 1398 2916 
Q 1625 2713 2034 2713 
Q 2441 2713 2670 2916 
Q 2900 3119 2900 3481 
Q 2900 3844 2670 4047 
Q 2441 4250 2034 4250 
Q 1625 4250 1398 4047 
Q 1172 3844 1172 3481 
z
" transform="scale(0.015625)"/>
       </defs>
       <use xlink:href="#DejaVuSans-30"/>
       <use xlink:href="#DejaVuSans-2e" transform="translate(63.623047 0)"/>
       <use xlink:href="#DejaVuSans-38" transform="translate(95.410156 0)"/>
      </g>
     </g>
    </g>
    <g id="ytick_6">
     <g id="line2d_20">
      <path d="M 45.716875 126.550762 
L 563.81875 126.550762 
" clip-path="url(#p545e42096e)" style="fill: none; stroke: #b0b0b0; stroke-opacity: 0.3; stroke-width: 0.8; stroke-linecap: square"/>
     </g>
     <g id="line2d_21">
      <g>
       <use xlink:href="#m300cc038d6" x="45.716875" y="126.550762" style="stroke: #000000; stroke-width: 0.8"/>
      </g>
     </g>
     <g id="text_16">
      <!-- 1.0 -->
      <g transform="translate(22.81375 130.349981) scale(0.1 -0.1)">
       <use xlink:href="#DejaVuSans-31"/>
       <use xlink:href="#DejaVuSans-2e" transform="translate(63.623047 0)"/>
       <use xlink:href="#DejaVuSans-30" transform="translate(95.410156 0)"/>
      </g>
     </g>
    </g>
    <g id="text_17">
     <!-- Kantenmaß κ -->
     <g transform="translate(16.318125 267.221953) rotate(-90) scale(0.12 -0.12)">
      <defs>
       <path id="DejaVuSans-Bold-65" d="M 4031 1759 
L 4031 1441 
L 1416 1441 
Q 1456 1047 1700 850 
Q 1944 653 2381 653 
Q 2734 653 3104 758 
Q 3475 863 3866 1075 
L 3866 213 
Q 3469 63 3072 -14 
Q 2675 -91 2278 -91 
Q 1328 -91 801 392 
Q 275 875 275 1747 
Q 275 2603 792 3093 
Q 1309 3584 2216 3584 
Q 3041 3584 3536 3087 
Q 4031 2591 4031 1759 
z
M 2881 2131 
Q 2881 2450 2695 2645 
Q 2509 2841 2209 2841 
Q 1884 2841 1681 2658 
Q 1478 2475 1428 2131 
L 2881 2131 
z
" transform="scale(0.015625)"/>
       <path id="DejaVuSans-Bold-6d" d="M 3781 2919 
Q 3994 3244 4286 3414 
Q 4578 3584 4928 3584 
Q 5531 3584 5847 3212 
Q 6163 2841 6163 2131 
L 6163 0 
L 5038 0 
L 5038 1825 
Q 5041 1866 5042 1909 
Q 5044 1953 5044 2034 
Q 5044 2406 4934 2573 
Q 4825 2741 4581 2741 
Q 4263 2741 4089 2478 
Q 3916 2216 3909 1719 
L 3909 0 
L 2784 0 
L 2784 1825 
Q 2784 2406 2684 2573 
Q 2584 2741 2328 2741 
Q 2006 2741 1831 2477 
Q 1656 2213 1656 1722 
L 1656 0 
L 531 0 
L 531 3500 
L 1656 3500 
L 1656 2988 
Q 1863 3284 2130 3434 
Q 2397 3584 2719 3584 
Q 3081 3584 3359 3409 
Q 3638 3234 3781 2919 
z
" transform="scale(0.015625)"/>
       <path id="DejaVuSans-Bold-df" d="M 538 3481 
Q 538 4175 959 4519 
Q 1381 4863 2234 4863 
Q 3053 4863 3472 4513 
Q 3891 4163 3891 3481 
L 3891 3259 
Q 3419 3228 3194 3106 
Q 2969 2984 2969 2753 
Q 2969 2638 3045 2548 
Q 3122 2459 3413 2297 
L 3628 2181 
Q 3991 1981 4158 1717 
Q 4325 1453 4325 1088 
Q 4325 497 3967 203 
Q 3609 -91 2888 -91 
Q 2684 -91 2468 -52 
Q 2253 -13 2022 63 
L 2022 825 
Q 2197 741 2376 697 
Q 2556 653 2725 653 
Q 2950 653 3087 765 
Q 3225 878 3225 1056 
Q 3225 1203 3139 1309 
Q 3053 1416 2747 1588 
L 2528 1709 
Q 2253 1863 2122 2073 
Q 1991 2284 1991 2566 
Q 1991 2928 2208 3175 
Q 2425 3422 2878 3578 
Q 2875 3844 2725 3983 
Q 2575 4122 2291 4122 
Q 1975 4122 1815 3950 
Q 1656 3778 1656 3438 
L 1656 0 
L 538 0 
L 538 3481 
z
" transform="scale(0.015625)"/>
       <path id="DejaVuSans-Bold-20" transform="scale(0.015625)"/>
       <path id="DejaVuSans-Bold-3ba" d="M 1656 1344 
L 1656 0 
L 538 0 
L 538 3500 
L 1656 3500 
L 1656 2497 
L 2763 3500 
L 4006 3500 
L 2663 2266 
L 4191 0 
L 2863 0 
L 1841 1513 
L 1656 1344 
z
" transform="scale(0.015625)"/>
      </defs>
      <use xlink:href="#DejaVuSans-Bold-4b"/>
      <use xlink:href="#DejaVuSans-Bold-61" transform="translate(77.490234 0)"/>
      <use xlink:href="#DejaVuSans-Bold-6e" transform="translate(144.970703 0)"/>
      <use xlink:href="#DejaVuSans-Bold-74" transform="translate(216.162109 0)"/>
      <use xlink:href="#DejaVuSans-Bold-65" transform="translate(263.964844 0)"/>
      <use xlink:href="#DejaVuSans-Bold-6e" transform="translate(331.787109 0)"/>
      <use xlink:href="#DejaVuSans-Bold-6d" transform="translate(402.978516 0)"/>
      <use xlink:href="#DejaVuSans-Bold-61" transform="translate(507.177734 0)"/>
      <use xlink:href="#DejaVuSans-Bold-df" transform="translate(574.658203 0)"/>
      <use xlink:href="#DejaVuSans-Bold-20" transform="translate(646.582031 0)"/>
      <use xlink:href="#DejaVuSans-Bold-3ba" transform="translate(681.396484 0)"/>
     </g>
    </g>
   </g>
   <g id="LineCollection_1">
    <path d="M 90.676129 152.440717 
L 90.676129 112.963835 
" clip-path="url(#p545e42096e)" style="fill: none; stroke: #000000; stroke-width: 1.5"/>
    <path d="M 144.19905 311.039553 
L 144.19905 306.98524 
" clip-path="url(#p545e42096e)" style="fill: none; stroke: #000000; stroke-width: 1.5"/>
    <path d="M 197.721971 278.04568 
L 197.721971 278.04568 
" clip-path="url(#p545e42096e)" style="fill: none; stroke: #000000; stroke-width: 1.5"/>
    <path d="M 251.244892 308.798714 
L 251.244892 308.798714 
" clip-path="url(#p545e42096e)" style="fill: none; stroke: #000000; stroke-width: 1.5"/>
    <path d="M 304.767813 279.607483 
L 304.767813 279.607483 
" clip-path="url(#p545e42096e)" style="fill: none; stroke: #000000; stroke-width: 1.5"/>
    <path d="M 358.290733 310.218828 
L 358.290733 310.218828 
" clip-path="url(#p545e42096e)" style="fill: none; stroke: #000000; stroke-width: 1.5"/>
    <path d="M 411.813654 320.893088 
L 411.813654 320.445027 
" clip-path="url(#p545e42096e)" style="fill: none; stroke: #000000; stroke-width: 1.5"/>
    <path d="M 465.336575 236.541219 
L 465.336575 221.135134 
" clip-path="url(#p545e42096e)" style="fill: none; stroke: #000000; stroke-width: 1.5"/>
    <path d="M 518.859496 320.368469 
L 518.859496 318.647664 
" clip-path="url(#p545e42096e)" style="fill: none; stroke: #000000; stroke-width: 1.5"/>
   </g>
   <g id="line2d_22">
    <defs>
     <path id="meb7af9882b" d="M 5 0 
L -5 -0 
" style="stroke: #000000"/>
    </defs>
    <g clip-path="url(#p545e42096e)">
     <use xlink:href="#meb7af9882b" x="90.676129" y="152.440717" style="fill: #1f77b4; stroke: #000000"/>
     <use xlink:href="#meb7af9882b" x="144.19905" y="311.039553" style="fill: #1f77b4; stroke: #000000"/>
     <use xlink:href="#meb7af9882b" x="197.721971" y="278.04568" style="fill: #1f77b4; stroke: #000000"/>
     <use xlink:href="#meb7af9882b" x="251.244892" y="308.798714" style="fill: #1f77b4; stroke: #000000"/>
     <use xlink:href="#meb7af9882b" x="304.767813" y="279.607483" style="fill: #1f77b4; stroke: #000000"/>
     <use xlink:href="#meb7af9882b" x="358.290733" y="310.218828" style="fill: #1f77b4; stroke: #000000"/>
     <use xlink:href="#meb7af9882b" x="411.813654" y="320.893088" style="fill: #1f77b4; stroke: #000000"/>
     <use xlink:href="#meb7af9882b" x="465.336575" y="236.541219" style="fill: #1f77b4; stroke: #000000"/>
     <use xlink:href="#meb7af9882b" x="518.859496" y="320.368469" style="fill: #1f77b4; stroke: #000000"/>
    </g>
   </g>
   <g id="line2d_23">
    <g clip-path="url(#p545e42096e)">
     <use xlink:href="#meb7af9882b" x="90.676129" y="112.963835" style="fill: #1f77b4; stroke: #000000"/>
     <use xlink:href="#meb7af9882b" x="144.19905" y="306.98524" style="fill: #1f77b4; stroke: #000000"/>
     <use xlink:href="#meb7af9882b" x="197.721971" y="278.04568" style="fill: #1f77b4; stroke: #000000"/>
     <use xlink:href="#meb7af9882b" x="251.244892" y="308.798714" style="fill: #1f77b4; stroke: #000000"/>
     <use xlink:href="#meb7af9882b" x="304.767813" y="279.607483" style="fill: #1f77b4; stroke: #000000"/>
     <use xlink:href="#meb7af9882b" x="358.290733" y="310.218828" style="fill: #1f77b4; stroke: #000000"/>
     <use xlink:href="#meb7af9882b" x="411.813654" y="320.445027" style="fill: #1f77b4; stroke: #000000"/>
     <use xlink:href="#meb7af9882b" x="465.336575" y="221.135134" style="fill: #1f77b4; stroke: #000000"/>
     <use xlink:href="#meb7af9882b" x="518.859496" y="318.647664" style="fill: #1f77b4; stroke: #000000"/>
    </g>
   </g>
   <g id="patch_13">
    <path d="M 45.716875 356.135844 
L 45.716875 88.015563 
" style="fill: none; stroke: #000000; stroke-width: 0.8; stroke-linejoin: miter; stroke-linecap: square"/>
   </g>
   <g id="patch_14">
    <path d="M 563.81875 356.135844 
L 563.81875 88.015563 
" style="fill: none; stroke: #000000; stroke-width: 0.8; stroke-linejoin: miter; stroke-linecap: square"/>
   </g>
   <g id="patch_15">
    <path d="M 45.716875 356.135844 
L 563.81875 356.135844 
" style="fill: none; stroke: #000000; stroke-width: 0.8; stroke-linejoin: miter; stroke-linecap: square"/>
   </g>
   <g id="patch_16">
    <path d="M 45.716875 88.015563 
L 563.81875 88.015563 
" style="fill: none; stroke: #000000; stroke-width: 0.8; stroke-linejoin: miter; stroke-linecap: square"/>
   </g>
   <g id="text_18">
    <!-- (a) Kantenmaß κ = |V| / |E| -->
    <g transform="translate(199.939531 82.015563) scale(0.14 -0.14)">
     <defs>
      <path id="DejaVuSans-Bold-28" d="M 2413 -844 
L 1484 -844 
Q 1006 -72 778 623 
Q 550 1319 550 2003 
Q 550 2688 779 3389 
Q 1009 4091 1484 4856 
L 2413 4856 
Q 2013 4116 1813 3408 
Q 1613 2700 1613 2009 
Q 1613 1319 1811 609 
Q 2009 -100 2413 -844 
z
" transform="scale(0.015625)"/>
      <path id="DejaVuSans-Bold-29" d="M 513 -844 
Q 913 -100 1113 609 
Q 1313 1319 1313 2009 
Q 1313 2700 1113 3408 
Q 913 4116 513 4856 
L 1441 4856 
Q 1916 4091 2145 3389 
Q 2375 2688 2375 2003 
Q 2375 1319 2147 623 
Q 1919 -72 1441 -844 
L 513 -844 
z
" transform="scale(0.015625)"/>
      <path id="DejaVuSans-Bold-3d" d="M 678 3084 
L 4684 3084 
L 4684 2350 
L 678 2350 
L 678 3084 
z
M 678 1663 
L 4684 1663 
L 4684 922 
L 678 922 
L 678 1663 
z
" transform="scale(0.015625)"/>
      <path id="DejaVuSans-Bold-7c" d="M 1522 4891 
L 1522 -1509 
L 813 -1509 
L 813 4891 
L 1522 4891 
z
" transform="scale(0.015625)"/>
      <path id="DejaVuSans-Bold-56" d="M 31 4666 
L 1241 4666 
L 2478 1222 
L 3713 4666 
L 4922 4666 
L 3194 0 
L 1759 0 
L 31 4666 
z
" transform="scale(0.015625)"/>
      <path id="DejaVuSans-Bold-2f" d="M 1644 4666 
L 2338 4666 
L 691 -594 
L 0 -594 
L 1644 4666 
z
" transform="scale(0.015625)"/>
      <path id="DejaVuSans-Bold-45" d="M 588 4666 
L 3834 4666 
L 3834 3756 
L 1791 3756 
L 1791 2888 
L 3713 2888 
L 3713 1978 
L 1791 1978 
L 1791 909 
L 3903 909 
L 3903 0 
L 588 0 
L 588 4666 
z
" transform="scale(0.015625)"/>
     </defs>
     <use xlink:href="#DejaVuSans-Bold-28"/>
     <use xlink:href="#DejaVuSans-Bold-61" transform="translate(45.703125 0)"/>
     <use xlink:href="#DejaVuSans-Bold-29" transform="translate(113.183594 0)"/>
     <use xlink:href="#DejaVuSans-Bold-20" transform="translate(158.886719 0)"/>
     <use xlink:href="#DejaVuSans-Bold-4b" transform="translate(193.701172 0)"/>
     <use xlink:href="#DejaVuSans-Bold-61" transform="translate(271.191406 0)"/>
     <use xlink:href="#DejaVuSans-Bold-6e" transform="translate(338.671875 0)"/>
     <use xlink:href="#DejaVuSans-Bold-74" transform="translate(409.863281 0)"/>
     <use xlink:href="#DejaVuSans-Bold-65" transform="translate(457.666016 0)"/>
     <use xlink:href="#DejaVuSans-Bold-6e" transform="translate(525.488281 0)"/>
     <use xlink:href="#DejaVuSans-Bold-6d" transform="translate(596.679688 0)"/>
     <use xlink:href="#DejaVuSans-Bold-61" transform="translate(700.878906 0)"/>
     <use xlink:href="#DejaVuSans-Bold-df" transform="translate(768.359375 0)"/>
     <use xlink:href="#DejaVuSans-Bold-20" transform="translate(840.283203 0)"/>
     <use xlink:href="#DejaVuSans-Bold-3ba" transform="translate(875.097656 0)"/>
     <use xlink:href="#DejaVuSans-Bold-20" transform="translate(946.142578 0)"/>
     <use xlink:href="#DejaVuSans-Bold-3d" transform="translate(980.957031 0)"/>
     <use xlink:href="#DejaVuSans-Bold-20" transform="translate(1064.746094 0)"/>
     <use xlink:href="#DejaVuSans-Bold-7c" transform="translate(1099.560547 0)"/>
     <use xlink:href="#DejaVuSans-Bold-56" transform="translate(1136.083984 0)"/>
     <use xlink:href="#DejaVuSans-Bold-7c" transform="translate(1213.476562 0)"/>
     <use xlink:href="#DejaVuSans-Bold-20" transform="translate(1250 0)"/>
     <use xlink:href="#DejaVuSans-Bold-2f" transform="translate(1284.814453 0)"/>
     <use xlink:href="#DejaVuSans-Bold-20" transform="translate(1321.337891 0)"/>
     <use xlink:href="#DejaVuSans-Bold-7c" transform="translate(1356.152344 0)"/>
     <use xlink:href="#DejaVuSans-Bold-45" transform="translate(1392.675781 0)"/>
     <use xlink:href="#DejaVuSans-Bold-7c" transform="translate(1460.986328 0)"/>
    </g>
   </g>
  </g>
  <g id="axes_2">
   <g id="patch_17">
    <path d="M 619.498125 356.135844 
L 1137.6 356.135844 
L 1137.6 88.015563 
L 619.498125 88.015563 
z
" style="fill: #ffffff"/>
   </g>
   <g id="patch_18">
    <path d="M 643.04821 356.135844 
L 685.866547 356.135844 
L 685.866547 174.734333 
L 643.04821 174.734333 
z
" clip-path="url(#p298d4309aa)" style="fill: #e74c3c; opacity: 0.8; stroke: #000000; stroke-width: 1.2; stroke-linejoin: miter"/>
   </g>
   <g id="patch_19">
    <path d="M 696.571131 356.135844 
L 739.389468 356.135844 
L 739.389468 262.485471 
L 696.571131 262.485471 
z
" clip-path="url(#p298d4309aa)" style="fill: #e74c3c; opacity: 0.8; stroke: #000000; stroke-width: 1.2; stroke-linejoin: miter"/>
   </g>
   <g id="patch_20">
    <path d="M 750.094052 356.135844 
L 792.912389 356.135844 
L 792.912389 261.010662 
L 750.094052 261.010662 
z
" clip-path="url(#p298d4309aa)" style="fill: #3498db; opacity: 0.8; stroke: #000000; stroke-width: 1.2; stroke-linejoin: miter"/>
   </g>
   <g id="patch_21">
    <path d="M 803.616973 356.135844 
L 846.43531 356.135844 
L 846.43531 264.697684 
L 803.616973 264.697684 
z
" clip-path="url(#p298d4309aa)" style="fill: #3498db; opacity: 0.8; stroke: #000000; stroke-width: 1.2; stroke-linejoin: miter"/>
   </g>
   <g id="patch_22">
    <path d="M 857.139894 356.135844 
L 899.958231 356.135844 
L 899.958231 132.702276 
L 857.139894 132.702276 
z
" clip-path="url(#p298d4309aa)" style="fill: #2ecc71; opacity: 0.8; stroke: #000000; stroke-width: 1.2; stroke-linejoin: miter"/>
   </g>
   <g id="patch_23">
    <path d="M 910.662815 356.135844 
L 953.481152 356.135844 
L 953.481152 266.172493 
L 910.662815 266.172493 
z
" clip-path="url(#p298d4309aa)" style="fill: #2ecc71; opacity: 0.8; stroke: #000000; stroke-width: 1.2; stroke-linejoin: miter"/>
   </g>
   <g id="patch_24">
    <path d="M 964.185736 356.135844 
L 1007.004073 356.135844 
L 1007.004073 282.395393 
L 964.185736 282.395393 
z
" clip-path="url(#p298d4309aa)" style="fill: #f39c12; opacity: 0.8; stroke: #000000; stroke-width: 1.2; stroke-linejoin: miter"/>
   </g>
   <g id="patch_25">
    <path d="M 1017.708657 356.135844 
L 1060.526994 356.135844 
L 1060.526994 224.140436 
L 1017.708657 224.140436 
z
" clip-path="url(#p298d4309aa)" style="fill: #9b59b6; opacity: 0.8; stroke: #000000; stroke-width: 1.2; stroke-linejoin: miter"/>
   </g>
   <g id="patch_26">
    <path d="M 1071.231578 356.135844 
L 1114.049915 356.135844 
L 1114.049915 258.798448 
L 1071.231578 258.798448 
z
" clip-path="url(#p298d4309aa)" style="fill: #1abc9c; opacity: 0.8; stroke: #000000; stroke-width: 1.2; stroke-linejoin: miter"/>
   </g>
   <g id="matplotlib.axis_3">
    <g id="xtick_10">
     <g id="line2d_24">
      <g>
       <use xlink:href="#me04e6f0828" x="664.457379" y="356.135844" style="stroke: #000000; stroke-width: 0.8"/>
      </g>
     </g>
     <g id="text_19">
      <!-- RS_(p=0.01) -->
      <g transform="translate(627.432384 403.119197) rotate(-45) scale(0.08 -0.08)">
       <use xlink:href="#DejaVuSans-52"/>
       <use xlink:href="#DejaVuSans-53" transform="translate(69.482422 0)"/>
       <use xlink:href="#DejaVuSans-5f" transform="translate(132.958984 0)"/>
       <use xlink:href="#DejaVuSans-28" transform="translate(182.958984 0)"/>
       <use xlink:href="#DejaVuSans-70" transform="translate(221.972656 0)"/>
       <use xlink:href="#DejaVuSans-3d" transform="translate(285.449219 0)"/>
       <use xlink:href="#DejaVuSans-30" transform="translate(369.238281 0)"/>
       <use xlink:href="#DejaVuSans-2e" transform="translate(432.861328 0)"/>
       <use xlink:href="#DejaVuSans-30" transform="translate(464.648438 0)"/>
       <use xlink:href="#DejaVuSans-31" transform="translate(528.271484 0)"/>
       <use xlink:href="#DejaVuSans-29" transform="translate(591.894531 0)"/>
      </g>
     </g>
    </g>
    <g id="xtick_11">
     <g id="line2d_25">
      <g>
       <use xlink:href="#me04e6f0828" x="717.9803" y="356.135844" style="stroke: #000000; stroke-width: 0.8"/>
      </g>
     </g>
     <g id="text_20">
      <!-- RS_(p=0.05) -->
      <g transform="translate(680.955305 403.119197) rotate(-45) scale(0.08 -0.08)">
       <use xlink:href="#DejaVuSans-52"/>
       <use xlink:href="#DejaVuSans-53" transform="translate(69.482422 0)"/>
       <use xlink:href="#DejaVuSans-5f" transform="translate(132.958984 0)"/>
       <use xlink:href="#DejaVuSans-28" transform="translate(182.958984 0)"/>
       <use xlink:href="#DejaVuSans-70" transform="translate(221.972656 0)"/>
       <use xlink:href="#DejaVuSans-3d" transform="translate(285.449219 0)"/>
       <use xlink:href="#DejaVuSans-30" transform="translate(369.238281 0)"/>
       <use xlink:href="#DejaVuSans-2e" transform="translate(432.861328 0)"/>
       <use xlink:href="#DejaVuSans-30" transform="translate(464.648438 0)"/>
       <use xlink:href="#DejaVuSans-35" transform="translate(528.271484 0)"/>
       <use xlink:href="#DejaVuSans-29" transform="translate(591.894531 0)"/>
      </g>
     </g>
    </g>
    <g id="xtick_12">
     <g id="line2d_26">
      <g>
       <use xlink:href="#me04e6f0828" x="771.503221" y="356.135844" style="stroke: #000000; stroke-width: 0.8"/>
      </g>
     </g>
     <g id="text_21">
      <!-- SF_(m=3) -->
      <g transform="translate(742.232535 395.364887) rotate(-45) scale(0.08 -0.08)">
       <use xlink:href="#DejaVuSans-53"/>
       <use xlink:href="#DejaVuSans-46" transform="translate(63.476562 0)"/>
       <use xlink:href="#DejaVuSans-5f" transform="translate(120.996094 0)"/>
       <use xlink:href="#DejaVuSans-28" transform="translate(170.996094 0)"/>
       <use xlink:href="#DejaVuSans-6d" transform="translate(210.009766 0)"/>
       <use xlink:href="#DejaVuSans-3d" transform="translate(307.421875 0)"/>
       <use xlink:href="#DejaVuSans-33" transform="translate(391.210938 0)"/>
       <use xlink:href="#DejaVuSans-29" transform="translate(454.833984 0)"/>
      </g>
     </g>
    </g>
    <g id="xtick_13">
     <g id="line2d_27">
      <g>
       <use xlink:href="#me04e6f0828" x="825.026142" y="356.135844" style="stroke: #000000; stroke-width: 0.8"/>
      </g>
     </g>
     <g id="text_22">
      <!-- SF_(m=5) -->
      <g transform="translate(795.755456 395.364887) rotate(-45) scale(0.08 -0.08)">
       <use xlink:href="#DejaVuSans-53"/>
       <use xlink:href="#DejaVuSans-46" transform="translate(63.476562 0)"/>
       <use xlink:href="#DejaVuSans-5f" transform="translate(120.996094 0)"/>
       <use xlink:href="#DejaVuSans-28" transform="translate(170.996094 0)"/>
       <use xlink:href="#DejaVuSans-6d" transform="translate(210.009766 0)"/>
       <use xlink:href="#DejaVuSans-3d" transform="translate(307.421875 0)"/>
       <use xlink:href="#DejaVuSans-35" transform="translate(391.210938 0)"/>
       <use xlink:href="#DejaVuSans-29" transform="translate(454.833984 0)"/>
      </g>
     </g>
    </g>
    <g id="xtick_14">
     <g id="line2d_28">
      <g>
       <use xlink:href="#me04e6f0828" x="878.549062" y="356.135844" style="stroke: #000000; stroke-width: 0.8"/>
      </g>
     </g>
     <g id="text_23">
      <!-- SW_(k=6, p=0.1) -->
      <g transform="translate(828.249906 416.399546) rotate(-45) scale(0.08 -0.08)">
       <use xlink:href="#DejaVuSans-53"/>
       <use xlink:href="#DejaVuSans-57" transform="translate(63.476562 0)"/>
       <use xlink:href="#DejaVuSans-5f" transform="translate(162.353516 0)"/>
       <use xlink:href="#DejaVuSans-28" transform="translate(212.353516 0)"/>
       <use xlink:href="#DejaVuSans-6b" transform="translate(251.367188 0)"/>
       <use xlink:href="#DejaVuSans-3d" transform="translate(309.277344 0)"/>
       <use xlink:href="#DejaVuSans-36" transform="translate(393.066406 0)"/>
       <use xlink:href="#DejaVuSans-2c" transform="translate(456.689453 0)"/>
       <use xlink:href="#DejaVuSans-20" transform="translate(488.476562 0)"/>
       <use xlink:href="#DejaVuSans-70" transform="translate(520.263672 0)"/>
       <use xlink:href="#DejaVuSans-3d" transform="translate(583.740234 0)"/>
       <use xlink:href="#DejaVuSans-30" transform="translate(667.529297 0)"/>
       <use xlink:href="#DejaVuSans-2e" transform="translate(731.152344 0)"/>
       <use xlink:href="#DejaVuSans-31" transform="translate(762.939453 0)"/>
       <use xlink:href="#DejaVuSans-29" transform="translate(826.5625 0)"/>
      </g>
     </g>
    </g>
    <g id="xtick_15">
     <g id="line2d_29">
      <g>
       <use xlink:href="#me04e6f0828" x="932.071983" y="356.135844" style="stroke: #000000; stroke-width: 0.8"/>
      </g>
     </g>
     <g id="text_24">
      <!-- SW_(k=10, p=0.3) -->
      <g transform="translate(878.173653 419.99872) rotate(-45) scale(0.08 -0.08)">
       <use xlink:href="#DejaVuSans-53"/>
       <use xlink:href="#DejaVuSans-57" transform="translate(63.476562 0)"/>
       <use xlink:href="#DejaVuSans-5f" transform="translate(162.353516 0)"/>
       <use xlink:href="#DejaVuSans-28" transform="translate(212.353516 0)"/>
       <use xlink:href="#DejaVuSans-6b" transform="translate(251.367188 0)"/>
       <use xlink:href="#DejaVuSans-3d" transform="translate(309.277344 0)"/>
       <use xlink:href="#DejaVuSans-31" transform="translate(393.066406 0)"/>
       <use xlink:href="#DejaVuSans-30" transform="translate(456.689453 0)"/>
       <use xlink:href="#DejaVuSans-2c" transform="translate(520.3125 0)"/>
       <use xlink:href="#DejaVuSans-20" transform="translate(552.099609 0)"/>
       <use xlink:href="#DejaVuSans-70" transform="translate(583.886719 0)"/>
       <use xlink:href="#DejaVuSans-3d" transform="translate(647.363281 0)"/>
       <use xlink:href="#DejaVuSans-30" transform="translate(731.152344 0)"/>
       <use xlink:href="#DejaVuSans-2e" transform="translate(794.775391 0)"/>
       <use xlink:href="#DejaVuSans-33" transform="translate(826.5625 0)"/>
       <use xlink:href="#DejaVuSans-29" transform="translate(890.185547 0)"/>
      </g>
     </g>
    </g>
    <g id="xtick_16">
     <g id="line2d_30">
      <g>
       <use xlink:href="#me04e6f0828" x="985.594904" y="356.135844" style="stroke: #000000; stroke-width: 0.8"/>
      </g>
     </g>
     <g id="text_25">
      <!-- Hier_(levels=3) -->
      <g transform="translate(940.647662 411.047632) rotate(-45) scale(0.08 -0.08)">
       <use xlink:href="#DejaVuSans-48"/>
       <use xlink:href="#DejaVuSans-69" transform="translate(75.195312 0)"/>
       <use xlink:href="#DejaVuSans-65" transform="translate(102.978516 0)"/>
       <use xlink:href="#DejaVuSans-72" transform="translate(164.501953 0)"/>
       <use xlink:href="#DejaVuSans-5f" transform="translate(205.615234 0)"/>
       <use xlink:href="#DejaVuSans-28" transform="translate(255.615234 0)"/>
       <use xlink:href="#DejaVuSans-6c" transform="translate(294.628906 0)"/>
       <use xlink:href="#DejaVuSans-65" transform="translate(322.412109 0)"/>
       <use xlink:href="#DejaVuSans-76" transform="translate(383.935547 0)"/>
       <use xlink:href="#DejaVuSans-65" transform="translate(443.115234 0)"/>
       <use xlink:href="#DejaVuSans-6c" transform="translate(504.638672 0)"/>
       <use xlink:href="#DejaVuSans-73" transform="translate(532.421875 0)"/>
       <use xlink:href="#DejaVuSans-3d" transform="translate(584.521484 0)"/>
       <use xlink:href="#DejaVuSans-33" transform="translate(668.310547 0)"/>
       <use xlink:href="#DejaVuSans-29" transform="translate(731.933594 0)"/>
      </g>
     </g>
    </g>
    <g id="xtick_17">
     <g id="line2d_31">
      <g>
       <use xlink:href="#me04e6f0828" x="1039.117825" y="356.135844" style="stroke: #000000; stroke-width: 0.8"/>
      </g>
     </g>
     <g id="text_26">
      <!-- Mod_(mod=10) -->
      <g transform="translate(994.106943 411.111271) rotate(-45) scale(0.08 -0.08)">
       <use xlink:href="#DejaVuSans-4d"/>
       <use xlink:href="#DejaVuSans-6f" transform="translate(86.279297 0)"/>
       <use xlink:href="#DejaVuSans-64" transform="translate(147.460938 0)"/>
       <use xlink:href="#DejaVuSans-5f" transform="translate(210.9375 0)"/>
       <use xlink:href="#DejaVuSans-28" transform="translate(260.9375 0)"/>
       <use xlink:href="#DejaVuSans-6d" transform="translate(299.951172 0)"/>
       <use xlink:href="#DejaVuSans-6f" transform="translate(397.363281 0)"/>
       <use xlink:href="#DejaVuSans-64" transform="translate(458.544922 0)"/>
       <use xlink:href="#DejaVuSans-3d" transform="translate(522.021484 0)"/>
       <use xlink:href="#DejaVuSans-31" transform="translate(605.810547 0)"/>
       <use xlink:href="#DejaVuSans-30" transform="translate(669.433594 0)"/>
       <use xlink:href="#DejaVuSans-29" transform="translate(733.056641 0)"/>
      </g>
     </g>
    </g>
    <g id="xtick_18">
     <g id="line2d_32">
      <g>
       <use xlink:href="#me04e6f0828" x="1092.640746" y="356.135844" style="stroke: #000000; stroke-width: 0.8"/>
      </g>
     </g>
     <g id="text_27">
      <!-- CC_(layers=6) -->
      <g transform="translate(1050.685449 408.055686) rotate(-45) scale(0.08 -0.08)">
       <use xlink:href="#DejaVuSans-43"/>
       <use xlink:href="#DejaVuSans-43" transform="translate(69.824219 0)"/>
       <use xlink:href="#DejaVuSans-5f" transform="translate(139.648438 0)"/>
       <use xlink:href="#DejaVuSans-28" transform="translate(189.648438 0)"/>
       <use xlink:href="#DejaVuSans-6c" transform="translate(228.662109 0)"/>
       <use xlink:href="#DejaVuSans-61" transform="translate(256.445312 0)"/>
       <use xlink:href="#DejaVuSans-79" transform="translate(317.724609 0)"/>
       <use xlink:href="#DejaVuSans-65" transform="translate(376.904297 0)"/>
       <use xlink:href="#DejaVuSans-72" transform="translate(438.427734 0)"/>
       <use xlink:href="#DejaVuSans-73" transform="translate(479.541016 0)"/>
       <use xlink:href="#DejaVuSans-3d" transform="translate(531.640625 0)"/>
       <use xlink:href="#DejaVuSans-36" transform="translate(615.429688 0)"/>
       <use xlink:href="#DejaVuSans-29" transform="translate(679.052734 0)"/>
      </g>
     </g>
    </g>
    <g id="text_28">
     <!-- Graph-Konfiguration -->
     <g transform="translate(809.064375 434.450625) scale(0.12 -0.12)">
      <use xlink:href="#DejaVuSans-Bold-47"/>
      <use xlink:href="#DejaVuSans-Bold-72" transform="translate(82.080078 0)"/>
      <use xlink:href="#DejaVuSans-Bold-61" transform="translate(131.396484 0)"/>
      <use xlink:href="#DejaVuSans-Bold-70" transform="translate(198.876953 0)"/>
      <use xlink:href="#DejaVuSans-Bold-68" transform="translate(270.458984 0)"/>
      <use xlink:href="#DejaVuSans-Bold-2d" transform="translate(341.650391 0)"/>
      <use xlink:href="#DejaVuSans-Bold-4b" transform="translate(383.154297 0)"/>
      <use xlink:href="#DejaVuSans-Bold-6f" transform="translate(458.894531 0)"/>
      <use xlink:href="#DejaVuSans-Bold-6e" transform="translate(527.595703 0)"/>
      <use xlink:href="#DejaVuSans-Bold-66" transform="translate(598.787109 0)"/>
      <use xlink:href="#DejaVuSans-Bold-69" transform="translate(642.292969 0)"/>
      <use xlink:href="#DejaVuSans-Bold-67" transform="translate(676.570312 0)"/>
      <use xlink:href="#DejaVuSans-Bold-75" transform="translate(748.152344 0)"/>
      <use xlink:href="#DejaVuSans-Bold-72" transform="translate(819.34375 0)"/>
      <use xlink:href="#DejaVuSans-Bold-61" transform="translate(868.660156 0)"/>
      <use xlink:href="#DejaVuSans-Bold-74" transform="translate(936.140625 0)"/>
      <use xlink:href="#DejaVuSans-Bold-69" transform="translate(983.943359 0)"/>
      <use xlink:href="#DejaVuSans-Bold-6f" transform="translate(1018.220703 0)"/>
      <use xlink:href="#DejaVuSans-Bold-6e" transform="translate(1086.921875 0)"/>
     </g>
    </g>
   </g>
   <g id="matplotlib.axis_4">
    <g id="ytick_7">
     <g id="line2d_33">
      <path d="M 619.498125 356.135844 
L 1137.6 356.135844 
" clip-path="url(#p298d4309aa)" style="fill: none; stroke: #b0b0b0; stroke-opacity: 0.3; stroke-width: 0.8; stroke-linecap: square"/>
     </g>
     <g id="line2d_34">
      <g>
       <use xlink:href="#m300cc038d6" x="619.498125" y="356.135844" style="stroke: #000000; stroke-width: 0.8"/>
      </g>
     </g>
     <g id="text_29">
      <!-- 0.0 -->
      <g transform="translate(596.595 359.935063) scale(0.1 -0.1)">
       <use xlink:href="#DejaVuSans-30"/>
       <use xlink:href="#DejaVuSans-2e" transform="translate(63.623047 0)"/>
       <use xlink:href="#DejaVuSans-30" transform="translate(95.410156 0)"/>
      </g>
     </g>
    </g>
    <g id="ytick_8">
     <g id="line2d_35">
      <path d="M 619.498125 319.265618 
L 1137.6 319.265618 
" clip-path="url(#p298d4309aa)" style="fill: none; stroke: #b0b0b0; stroke-opacity: 0.3; stroke-width: 0.8; stroke-linecap: square"/>
     </g>
     <g id="line2d_36">
      <g>
       <use xlink:href="#m300cc038d6" x="619.498125" y="319.265618" style="stroke: #000000; stroke-width: 0.8"/>
      </g>
     </g>
     <g id="text_30">
      <!-- 2.5 -->
      <g transform="translate(596.595 323.064837) scale(0.1 -0.1)">
       <use xlink:href="#DejaVuSans-32"/>
       <use xlink:href="#DejaVuSans-2e" transform="translate(63.623047 0)"/>
       <use xlink:href="#DejaVuSans-35" transform="translate(95.410156 0)"/>
      </g>
     </g>
    </g>
    <g id="ytick_9">
     <g id="line2d_37">
      <path d="M 619.498125 282.395393 
L 1137.6 282.395393 
" clip-path="url(#p298d4309aa)" style="fill: none; stroke: #b0b0b0; stroke-opacity: 0.3; stroke-width: 0.8; stroke-linecap: square"/>
     </g>
     <g id="line2d_38">
      <g>
       <use xlink:href="#m300cc038d6" x="619.498125" y="282.395393" style="stroke: #000000; stroke-width: 0.8"/>
      </g>
     </g>
     <g id="text_31">
      <!-- 5.0 -->
      <g transform="translate(596.595 286.194611) scale(0.1 -0.1)">
       <use xlink:href="#DejaVuSans-35"/>
       <use xlink:href="#DejaVuSans-2e" transform="translate(63.623047 0)"/>
       <use xlink:href="#DejaVuSans-30" transform="translate(95.410156 0)"/>
      </g>
     </g>
    </g>
    <g id="ytick_10">
     <g id="line2d_39">
      <path d="M 619.498125 245.525167 
L 1137.6 245.525167 
" clip-path="url(#p298d4309aa)" style="fill: none; stroke: #b0b0b0; stroke-opacity: 0.3; stroke-width: 0.8; stroke-linecap: square"/>
     </g>
     <g id="line2d_40">
      <g>
       <use xlink:href="#m300cc038d6" x="619.498125" y="245.525167" style="stroke: #000000; stroke-width: 0.8"/>
      </g>
     </g>
     <g id="text_32">
      <!-- 7.5 -->
      <g transform="translate(596.595 249.324386) scale(0.1 -0.1)">
       <defs>
        <path id="DejaVuSans-37" d="M 525 4666 
L 3525 4666 
L 3525 4397 
L 1831 0 
L 1172 0 
L 2766 4134 
L 525 4134 
L 525 4666 
z
" transform="scale(0.015625)"/>
       </defs>
       <use xlink:href="#DejaVuSans-37"/>
       <use xlink:href="#DejaVuSans-2e" transform="translate(63.623047 0)"/>
       <use xlink:href="#DejaVuSans-35" transform="translate(95.410156 0)"/>
      </g>
     </g>
    </g>
    <g id="ytick_11">
     <g id="line2d_41">
      <path d="M 619.498125 208.654941 
L 1137.6 208.654941 
" clip-path="url(#p298d4309aa)" style="fill: none; stroke: #b0b0b0; stroke-opacity: 0.3; stroke-width: 0.8; stroke-linecap: square"/>
     </g>
     <g id="line2d_42">
      <g>
       <use xlink:href="#m300cc038d6" x="619.498125" y="208.654941" style="stroke: #000000; stroke-width: 0.8"/>
      </g>
     </g>
     <g id="text_33">
      <!-- 10.0 -->
      <g transform="translate(590.2325 212.45416) scale(0.1 -0.1)">
       <use xlink:href="#DejaVuSans-31"/>
       <use xlink:href="#DejaVuSans-30" transform="translate(63.623047 0)"/>
       <use xlink:href="#DejaVuSans-2e" transform="translate(127.246094 0)"/>
       <use xlink:href="#DejaVuSans-30" transform="translate(159.033203 0)"/>
      </g>
     </g>
    </g>
    <g id="ytick_12">
     <g id="line2d_43">
      <path d="M 619.498125 171.784715 
L 1137.6 171.784715 
" clip-path="url(#p298d4309aa)" style="fill: none; stroke: #b0b0b0; stroke-opacity: 0.3; stroke-width: 0.8; stroke-linecap: square"/>
     </g>
     <g id="line2d_44">
      <g>
       <use xlink:href="#m300cc038d6" x="619.498125" y="171.784715" style="stroke: #000000; stroke-width: 0.8"/>
      </g>
     </g>
     <g id="text_34">
      <!-- 12.5 -->
      <g transform="translate(590.2325 175.583934) scale(0.1 -0.1)">
       <use xlink:href="#DejaVuSans-31"/>
       <use xlink:href="#DejaVuSans-32" transform="translate(63.623047 0)"/>
       <use xlink:href="#DejaVuSans-2e" transform="translate(127.246094 0)"/>
       <use xlink:href="#DejaVuSans-35" transform="translate(159.033203 0)"/>
      </g>
     </g>
    </g>
    <g id="ytick_13">
     <g id="line2d_45">
      <path d="M 619.498125 134.91449 
L 1137.6 134.91449 
" clip-path="url(#p298d4309aa)" style="fill: none; stroke: #b0b0b0; stroke-opacity: 0.3; stroke-width: 0.8; stroke-linecap: square"/>
     </g>
     <g id="line2d_46">
      <g>
       <use xlink:href="#m300cc038d6" x="619.498125" y="134.91449" style="stroke: #000000; stroke-width: 0.8"/>
      </g>
     </g>
     <g id="text_35">
      <!-- 15.0 -->
      <g transform="translate(590.2325 138.713708) scale(0.1 -0.1)">
       <use xlink:href="#DejaVuSans-31"/>
       <use xlink:href="#DejaVuSans-35" transform="translate(63.623047 0)"/>
       <use xlink:href="#DejaVuSans-2e" transform="translate(127.246094 0)"/>
       <use xlink:href="#DejaVuSans-30" transform="translate(159.033203 0)"/>
      </g>
     </g>
    </g>
    <g id="ytick_14">
     <g id="line2d_47">
      <path d="M 619.498125 98.044264 
L 1137.6 98.044264 
" clip-path="url(#p298d4309aa)" style="fill: none; stroke: #b0b0b0; stroke-opacity: 0.3; stroke-width: 0.8; stroke-linecap: square"/>
     </g>
     <g id="line2d_48">
      <g>
       <use xlink:href="#m300cc038d6" x="619.498125" y="98.044264" style="stroke: #000000; stroke-width: 0.8"/>
      </g>
     </g>
     <g id="text_36">
      <!-- 17.5 -->
      <g transform="translate(590.2325 101.843483) scale(0.1 -0.1)">
       <use xlink:href="#DejaVuSans-31"/>
       <use xlink:href="#DejaVuSans-37" transform="translate(63.623047 0)"/>
       <use xlink:href="#DejaVuSans-2e" transform="translate(127.246094 0)"/>
       <use xlink:href="#DejaVuSans-35" transform="translate(159.033203 0)"/>
      </g>
     </g>
    </g>
    <g id="text_37">
     <!-- Durchmesser -->
     <g transform="translate(583.736875 266.606953) rotate(-90) scale(0.12 -0.12)">
      <defs>
       <path id="DejaVuSans-Bold-44" d="M 1791 3756 
L 1791 909 
L 2222 909 
Q 2959 909 3348 1275 
Q 3738 1641 3738 2338 
Q 3738 3031 3350 3393 
Q 2963 3756 2222 3756 
L 1791 3756 
z
M 588 4666 
L 1856 4666 
Q 2919 4666 3439 4514 
Q 3959 4363 4331 4000 
Q 4659 3684 4818 3271 
Q 4978 2859 4978 2338 
Q 4978 1809 4818 1395 
Q 4659 981 4331 666 
Q 3956 303 3431 151 
Q 2906 0 1856 0 
L 588 0 
L 588 4666 
z
" transform="scale(0.015625)"/>
       <path id="DejaVuSans-Bold-63" d="M 3366 3391 
L 3366 2478 
Q 3138 2634 2908 2709 
Q 2678 2784 2431 2784 
Q 1963 2784 1702 2511 
Q 1441 2238 1441 1747 
Q 1441 1256 1702 982 
Q 1963 709 2431 709 
Q 2694 709 2930 787 
Q 3166 866 3366 1019 
L 3366 103 
Q 3103 6 2833 -42 
Q 2563 -91 2291 -91 
Q 1344 -91 809 395 
Q 275 881 275 1747 
Q 275 2613 809 3098 
Q 1344 3584 2291 3584 
Q 2566 3584 2833 3536 
Q 3100 3488 3366 3391 
z
" transform="scale(0.015625)"/>
       <path id="DejaVuSans-Bold-73" d="M 3272 3391 
L 3272 2541 
Q 2913 2691 2578 2766 
Q 2244 2841 1947 2841 
Q 1628 2841 1473 2761 
Q 1319 2681 1319 2516 
Q 1319 2381 1436 2309 
Q 1553 2238 1856 2203 
L 2053 2175 
Q 2913 2066 3209 1816 
Q 3506 1566 3506 1031 
Q 3506 472 3093 190 
Q 2681 -91 1863 -91 
Q 1516 -91 1145 -36 
Q 775 19 384 128 
L 384 978 
Q 719 816 1070 734 
Q 1422 653 1784 653 
Q 2113 653 2278 743 
Q 2444 834 2444 1013 
Q 2444 1163 2330 1236 
Q 2216 1309 1875 1350 
L 1678 1375 
Q 931 1469 631 1722 
Q 331 1975 331 2491 
Q 331 3047 712 3315 
Q 1094 3584 1881 3584 
Q 2191 3584 2531 3537 
Q 2872 3491 3272 3391 
z
" transform="scale(0.015625)"/>
      </defs>
      <use xlink:href="#DejaVuSans-Bold-44"/>
      <use xlink:href="#DejaVuSans-Bold-75" transform="translate(83.007812 0)"/>
      <use xlink:href="#DejaVuSans-Bold-72" transform="translate(154.199219 0)"/>
      <use xlink:href="#DejaVuSans-Bold-63" transform="translate(203.515625 0)"/>
      <use xlink:href="#DejaVuSans-Bold-68" transform="translate(262.792969 0)"/>
      <use xlink:href="#DejaVuSans-Bold-6d" transform="translate(333.984375 0)"/>
      <use xlink:href="#DejaVuSans-Bold-65" transform="translate(438.183594 0)"/>
      <use xlink:href="#DejaVuSans-Bold-73" transform="translate(506.005859 0)"/>
      <use xlink:href="#DejaVuSans-Bold-73" transform="translate(565.527344 0)"/>
      <use xlink:href="#DejaVuSans-Bold-65" transform="translate(625.048828 0)"/>
      <use xlink:href="#DejaVuSans-Bold-72" transform="translate(692.871094 0)"/>
     </g>
    </g>
   </g>
   <g id="LineCollection_2">
    <path d="M 664.457379 221.161547 
L 664.457379 128.30712 
" clip-path="url(#p298d4309aa)" style="fill: none; stroke: #000000; stroke-width: 1.5"/>
    <path d="M 717.9803 269.519861 
L 717.9803 255.45108 
" clip-path="url(#p298d4309aa)" style="fill: none; stroke: #000000; stroke-width: 1.5"/>
    <path d="M 771.503221 277.483031 
L 771.503221 244.538293 
" clip-path="url(#p298d4309aa)" style="fill: none; stroke: #000000; stroke-width: 1.5"/>
    <path d="M 825.026142 274.700326 
L 825.026142 254.695043 
" clip-path="url(#p298d4309aa)" style="fill: none; stroke: #000000; stroke-width: 1.5"/>
    <path d="M 878.549062 167.688216 
L 878.549062 97.716337 
" clip-path="url(#p298d4309aa)" style="fill: none; stroke: #000000; stroke-width: 1.5"/>
    <path d="M 932.071983 270.59692 
L 932.071983 261.748066 
" clip-path="url(#p298d4309aa)" style="fill: none; stroke: #000000; stroke-width: 1.5"/>
    <path d="M 985.594904 282.395393 
L 985.594904 282.395393 
" clip-path="url(#p298d4309aa)" style="fill: none; stroke: #000000; stroke-width: 1.5"/>
    <path d="M 1039.117825 246.250278 
L 1039.117825 202.030594 
" clip-path="url(#p298d4309aa)" style="fill: none; stroke: #000000; stroke-width: 1.5"/>
    <path d="M 1092.640746 266.023507 
L 1092.640746 251.573389 
" clip-path="url(#p298d4309aa)" style="fill: none; stroke: #000000; stroke-width: 1.5"/>
   </g>
   <g id="line2d_49">
    <g clip-path="url(#p298d4309aa)">
     <use xlink:href="#meb7af9882b" x="664.457379" y="221.161547" style="fill: #1f77b4; stroke: #000000"/>
     <use xlink:href="#meb7af9882b" x="717.9803" y="269.519861" style="fill: #1f77b4; stroke: #000000"/>
     <use xlink:href="#meb7af9882b" x="771.503221" y="277.483031" style="fill: #1f77b4; stroke: #000000"/>
     <use xlink:href="#meb7af9882b" x="825.026142" y="274.700326" style="fill: #1f77b4; stroke: #000000"/>
     <use xlink:href="#meb7af9882b" x="878.549062" y="167.688216" style="fill: #1f77b4; stroke: #000000"/>
     <use xlink:href="#meb7af9882b" x="932.071983" y="270.59692" style="fill: #1f77b4; stroke: #000000"/>
     <use xlink:href="#meb7af9882b" x="985.594904" y="282.395393" style="fill: #1f77b4; stroke: #000000"/>
     <use xlink:href="#meb7af9882b" x="1039.117825" y="246.250278" style="fill: #1f77b4; stroke: #000000"/>
     <use xlink:href="#meb7af9882b" x="1092.640746" y="266.023507" style="fill: #1f77b4; stroke: #000000"/>
    </g>
   </g>
   <g id="line2d_50">
    <g clip-path="url(#p298d4309aa)">
     <use xlink:href="#meb7af9882b" x="664.457379" y="128.30712" style="fill: #1f77b4; stroke: #000000"/>
     <use xlink:href="#meb7af9882b" x="717.9803" y="255.45108" style="fill: #1f77b4; stroke: #000000"/>
     <use xlink:href="#meb7af9882b" x="771.503221" y="244.538293" style="fill: #1f77b4; stroke: #000000"/>
     <use xlink:href="#meb7af9882b" x="825.026142" y="254.695043" style="fill: #1f77b4; stroke: #000000"/>
     <use xlink:href="#meb7af9882b" x="878.549062" y="97.716337" style="fill: #1f77b4; stroke: #000000"/>
     <use xlink:href="#meb7af9882b" x="932.071983" y="261.748066" style="fill: #1f77b4; stroke: #000000"/>
     <use xlink:href="#meb7af9882b" x="985.594904" y="282.395393" style="fill: #1f77b4; stroke: #000000"/>
     <use xlink:href="#meb7af9882b" x="1039.117825" y="202.030594" style="fill: #1f77b4; stroke: #000000"/>
     <use xlink:href="#meb7af9882b" x="1092.640746" y="251.573389" style="fill: #1f77b4; stroke: #000000"/>
    </g>
   </g>
   <g id="patch_27">
    <path d="M 619.498125 356.135844 
L 619.498125 88.015563 
" style="fill: none; stroke: #000000; stroke-width: 0.8; stroke-linejoin: miter; stroke-linecap: square"/>
   </g>
   <g id="patch_28">
    <path d="M 1137.6 356.135844 
L 1137.6 88.015563 
" style="fill: none; stroke: #000000; stroke-width: 0.8; stroke-linejoin: miter; stroke-linecap: square"/>
   </g>
   <g id="patch_29">
    <path d="M 619.498125 356.135844 
L 1137.6 356.135844 
" style="fill: none; stroke: #000000; stroke-width: 0.8; stroke-linejoin: miter; stroke-linecap: square"/>
   </g>
   <g id="patch_30">
    <path d="M 619.498125 88.015563 
L 1137.6 88.015563 
" style="fill: none; stroke: #000000; stroke-width: 0.8; stroke-linejoin: miter; stroke-linecap: square"/>
   </g>
   <g id="text_38">
    <!-- (b) Durchmesser -->
    <g transform="translate(812.750156 82.015563) scale(0.14 -0.14)">
     <defs>
      <path id="DejaVuSans-Bold-62" d="M 2400 722 
Q 2759 722 2948 984 
Q 3138 1247 3138 1747 
Q 3138 2247 2948 2509 
Q 2759 2772 2400 2772 
Q 2041 2772 1848 2508 
Q 1656 2244 1656 1747 
Q 1656 1250 1848 986 
Q 2041 722 2400 722 
z
M 1656 2988 
Q 1888 3294 2169 3439 
Q 2450 3584 2816 3584 
Q 3463 3584 3878 3070 
Q 4294 2556 4294 1747 
Q 4294 938 3878 423 
Q 3463 -91 2816 -91 
Q 2450 -91 2169 54 
Q 1888 200 1656 506 
L 1656 0 
L 538 0 
L 538 4863 
L 1656 4863 
L 1656 2988 
z
" transform="scale(0.015625)"/>
     </defs>
     <use xlink:href="#DejaVuSans-Bold-28"/>
     <use xlink:href="#DejaVuSans-Bold-62" transform="translate(45.703125 0)"/>
     <use xlink:href="#DejaVuSans-Bold-29" transform="translate(117.285156 0)"/>
     <use xlink:href="#DejaVuSans-Bold-20" transform="translate(162.988281 0)"/>
     <use xlink:href="#DejaVuSans-Bold-44" transform="translate(197.802734 0)"/>
     <use xlink:href="#DejaVuSans-Bold-75" transform="translate(280.810547 0)"/>
     <use xlink:href="#DejaVuSans-Bold-72" transform="translate(352.001953 0)"/>
     <use xlink:href="#DejaVuSans-Bold-63" transform="translate(401.318359 0)"/>
     <use xlink:href="#DejaVuSans-Bold-68" transform="translate(460.595703 0)"/>
     <use xlink:href="#DejaVuSans-Bold-6d" transform="translate(531.787109 0)"/>
     <use xlink:href="#DejaVuSans-Bold-65" transform="translate(635.986328 0)"/>
     <use xlink:href="#DejaVuSans-Bold-73" transform="translate(703.808594 0)"/>
     <use xlink:href="#DejaVuSans-Bold-73" transform="translate(763.330078 0)"/>
     <use xlink:href="#DejaVuSans-Bold-65" transform="translate(822.851562 0)"/>
     <use xlink:href="#DejaVuSans-Bold-72" transform="translate(890.673828 0)"/>
    </g>
   </g>
  </g>
  <g id="text_39">
   <!-- Graphprofilverteilung: Vollständige Charakterisierung -->
   <g transform="translate(328.14 19.5825) scale(0.16 -0.16)">
    <defs>
     <path id="DejaVuSans-Bold-6c" d="M 538 4863 
L 1656 4863 
L 1656 0 
L 538 0 
L 538 4863 
z
" transform="scale(0.015625)"/>
     <path id="DejaVuSans-Bold-76" d="M 97 3500 
L 1216 3500 
L 2088 1081 
L 2956 3500 
L 4078 3500 
L 2700 0 
L 1472 0 
L 97 3500 
z
" transform="scale(0.015625)"/>
     <path id="DejaVuSans-Bold-3a" d="M 716 3500 
L 1844 3500 
L 1844 2291 
L 716 2291 
L 716 3500 
z
M 716 1209 
L 1844 1209 
L 1844 0 
L 716 0 
L 716 1209 
z
" transform="scale(0.015625)"/>
     <path id="DejaVuSans-Bold-e4" d="M 2106 1575 
Q 1756 1575 1579 1456 
Q 1403 1338 1403 1106 
Q 1403 894 1545 773 
Q 1688 653 1941 653 
Q 2256 653 2472 879 
Q 2688 1106 2688 1447 
L 2688 1575 
L 2106 1575 
z
M 3816 1997 
L 3816 0 
L 2688 0 
L 2688 519 
Q 2463 200 2181 54 
Q 1900 -91 1497 -91 
Q 953 -91 614 226 
Q 275 544 275 1050 
Q 275 1666 698 1953 
Q 1122 2241 2028 2241 
L 2688 2241 
L 2688 2328 
Q 2688 2594 2478 2717 
Q 2269 2841 1825 2841 
Q 1466 2841 1156 2769 
Q 847 2697 581 2553 
L 581 3406 
Q 941 3494 1303 3539 
Q 1666 3584 2028 3584 
Q 2975 3584 3395 3211 
Q 3816 2838 3816 1997 
z
M 1200 4953 
L 1934 4953 
L 1934 4184 
L 1200 4184 
L 1200 4953 
z
M 2434 4953 
L 3168 4953 
L 3168 4184 
L 2434 4184 
L 2434 4953 
z
" transform="scale(0.015625)"/>
     <path id="DejaVuSans-Bold-64" d="M 2919 2988 
L 2919 4863 
L 4044 4863 
L 4044 0 
L 2919 0 
L 2919 506 
Q 2688 197 2409 53 
Q 2131 -91 1766 -91 
Q 1119 -91 703 423 
Q 288 938 288 1747 
Q 288 2556 703 3070 
Q 1119 3584 1766 3584 
Q 2128 3584 2408 3439 
Q 2688 3294 2919 2988 
z
M 2181 722 
Q 2541 722 2730 984 
Q 2919 1247 2919 1747 
Q 2919 2247 2730 2509 
Q 2541 2772 2181 2772 
Q 1825 2772 1636 2509 
Q 1447 2247 1447 1747 
Q 1447 1247 1636 984 
Q 1825 722 2181 722 
z
" transform="scale(0.015625)"/>
     <path id="DejaVuSans-Bold-43" d="M 4288 256 
Q 3956 84 3597 -3 
Q 3238 -91 2847 -91 
Q 1681 -91 1000 561 
Q 319 1213 319 2328 
Q 319 3447 1000 4098 
Q 1681 4750 2847 4750 
Q 3238 4750 3597 4662 
Q 3956 4575 4288 4403 
L 4288 3438 
Q 3953 3666 3628 3772 
Q 3303 3878 2944 3878 
Q 2300 3878 1931 3465 
Q 1563 3053 1563 2328 
Q 1563 1606 1931 1193 
Q 2300 781 2944 781 
Q 3303 781 3628 887 
Q 3953 994 4288 1222 
L 4288 256 
z
" transform="scale(0.015625)"/>
     <path id="DejaVuSans-Bold-6b" d="M 538 4863 
L 1656 4863 
L 1656 2216 
L 2944 3500 
L 4244 3500 
L 2534 1894 
L 4378 0 
L 3022 0 
L 1656 1459 
L 1656 0 
L 538 0 
L 538 4863 
z
" transform="scale(0.015625)"/>
    </defs>
    <use xlink:href="#DejaVuSans-Bold-47"/>
    <use xlink:href="#DejaVuSans-Bold-72" transform="translate(82.080078 0)"/>
    <use xlink:href="#DejaVuSans-Bold-61" transform="translate(131.396484 0)"/>
    <use xlink:href="#DejaVuSans-Bold-70" transform="translate(198.876953 0)"/>
    <use xlink:href="#DejaVuSans-Bold-68" transform="translate(270.458984 0)"/>
    <use xlink:href="#DejaVuSans-Bold-70" transform="translate(341.650391 0)"/>
    <use xlink:href="#DejaVuSans-Bold-72" transform="translate(413.232422 0)"/>
    <use xlink:href="#DejaVuSans-Bold-6f" transform="translate(462.548828 0)"/>
    <use xlink:href="#DejaVuSans-Bold-66" transform="translate(531.25 0)"/>
    <use xlink:href="#DejaVuSans-Bold-69" transform="translate(574.755859 0)"/>
    <use xlink:href="#DejaVuSans-Bold-6c" transform="translate(609.033203 0)"/>
    <use xlink:href="#DejaVuSans-Bold-76" transform="translate(643.310547 0)"/>
    <use xlink:href="#DejaVuSans-Bold-65" transform="translate(708.496094 0)"/>
    <use xlink:href="#DejaVuSans-Bold-72" transform="translate(776.318359 0)"/>
    <use xlink:href="#DejaVuSans-Bold-74" transform="translate(825.634766 0)"/>
    <use xlink:href="#DejaVuSans-Bold-65" transform="translate(873.4375 0)"/>
    <use xlink:href="#DejaVuSans-Bold-69" transform="translate(941.259766 0)"/>
    <use xlink:href="#DejaVuSans-Bold-6c" transform="translate(975.537109 0)"/>
    <use xlink:href="#DejaVuSans-Bold-75" transform="translate(1009.814453 0)"/>
    <use xlink:href="#DejaVuSans-Bold-6e" transform="translate(1081.005859 0)"/>
    <use xlink:href="#DejaVuSans-Bold-67" transform="translate(1152.197266 0)"/>
    <use xlink:href="#DejaVuSans-Bold-3a" transform="translate(1223.779297 0)"/>
    <use xlink:href="#DejaVuSans-Bold-20" transform="translate(1263.769531 0)"/>
    <use xlink:href="#DejaVuSans-Bold-56" transform="translate(1298.583984 0)"/>
    <use xlink:href="#DejaVuSans-Bold-6f" transform="translate(1370.476562 0)"/>
    <use xlink:href="#DejaVuSans-Bold-6c" transform="translate(1439.177734 0)"/>
    <use xlink:href="#DejaVuSans-Bold-6c" transform="translate(1473.455078 0)"/>
    <use xlink:href="#DejaVuSans-Bold-73" transform="translate(1507.732422 0)"/>
    <use xlink:href="#DejaVuSans-Bold-74" transform="translate(1567.253906 0)"/>
    <use xlink:href="#DejaVuSans-Bold-e4" transform="translate(1615.056641 0)"/>
    <use xlink:href="#DejaVuSans-Bold-6e" transform="translate(1682.537109 0)"/>
    <use xlink:href="#DejaVuSans-Bold-64" transform="translate(1753.728516 0)"/>
    <use xlink:href="#DejaVuSans-Bold-69" transform="translate(1825.310547 0)"/>
    <use xlink:href="#DejaVuSans-Bold-67" transform="translate(1859.587891 0)"/>
    <use xlink:href="#DejaVuSans-Bold-65" transform="translate(1931.169922 0)"/>
    <use xlink:href="#DejaVuSans-Bold-20" transform="translate(1998.992188 0)"/>
    <use xlink:href="#DejaVuSans-Bold-43" transform="translate(2033.806641 0)"/>
    <use xlink:href="#DejaVuSans-Bold-68" transform="translate(2107.195312 0)"/>
    <use xlink:href="#DejaVuSans-Bold-61" transform="translate(2178.386719 0)"/>
    <use xlink:href="#DejaVuSans-Bold-72" transform="translate(2245.867188 0)"/>
    <use xlink:href="#DejaVuSans-Bold-61" transform="translate(2295.183594 0)"/>
    <use xlink:href="#DejaVuSans-Bold-6b" transform="translate(2362.664062 0)"/>
    <use xlink:href="#DejaVuSans-Bold-74" transform="translate(2429.167969 0)"/>
    <use xlink:href="#DejaVuSans-Bold-65" transform="translate(2476.970703 0)"/>
    <use xlink:href="#DejaVuSans-Bold-72" transform="translate(2544.792969 0)"/>
    <use xlink:href="#DejaVuSans-Bold-69" transform="translate(2594.109375 0)"/>
    <use xlink:href="#DejaVuSans-Bold-73" transform="translate(2628.386719 0)"/>
    <use xlink:href="#DejaVuSans-Bold-69" transform="translate(2687.908203 0)"/>
    <use xlink:href="#DejaVuSans-Bold-65" transform="translate(2722.185547 0)"/>
    <use xlink:href="#DejaVuSans-Bold-72" transform="translate(2790.007812 0)"/>
    <use xlink:href="#DejaVuSans-Bold-75" transform="translate(2839.324219 0)"/>
    <use xlink:href="#DejaVuSans-Bold-6e" transform="translate(2910.515625 0)"/>
    <use xlink:href="#DejaVuSans-Bold-67" transform="translate(2981.707031 0)"/>
   </g>
   <!-- (n=20 Samples pro Konfiguration) -->
   <g transform="translate(417.88625 37.624) scale(0.16 -0.16)">
    <defs>
     <path id="DejaVuSans-Bold-32" d="M 1844 884 
L 3897 884 
L 3897 0 
L 506 0 
L 506 884 
L 2209 2388 
Q 2438 2594 2547 2791 
Q 2656 2988 2656 3200 
Q 2656 3528 2436 3728 
Q 2216 3928 1850 3928 
Q 1569 3928 1234 3808 
Q 900 3688 519 3450 
L 519 4475 
Q 925 4609 1322 4679 
Q 1719 4750 2100 4750 
Q 2938 4750 3402 4381 
Q 3866 4013 3866 3353 
Q 3866 2972 3669 2642 
Q 3472 2313 2841 1759 
L 1844 884 
z
" transform="scale(0.015625)"/>
     <path id="DejaVuSans-Bold-30" d="M 2944 2338 
Q 2944 3213 2780 3570 
Q 2616 3928 2228 3928 
Q 1841 3928 1675 3570 
Q 1509 3213 1509 2338 
Q 1509 1453 1675 1090 
Q 1841 728 2228 728 
Q 2613 728 2778 1090 
Q 2944 1453 2944 2338 
z
M 4147 2328 
Q 4147 1169 3647 539 
Q 3147 -91 2228 -91 
Q 1306 -91 806 539 
Q 306 1169 306 2328 
Q 306 3491 806 4120 
Q 1306 4750 2228 4750 
Q 3147 4750 3647 4120 
Q 4147 3491 4147 2328 
z
" transform="scale(0.015625)"/>
     <path id="DejaVuSans-Bold-53" d="M 3834 4519 
L 3834 3531 
Q 3450 3703 3084 3790 
Q 2719 3878 2394 3878 
Q 1963 3878 1756 3759 
Q 1550 3641 1550 3391 
Q 1550 3203 1689 3098 
Q 1828 2994 2194 2919 
L 2706 2816 
Q 3484 2659 3812 2340 
Q 4141 2022 4141 1434 
Q 4141 663 3683 286 
Q 3225 -91 2284 -91 
Q 1841 -91 1394 -6 
Q 947 78 500 244 
L 500 1259 
Q 947 1022 1364 901 
Q 1781 781 2169 781 
Q 2563 781 2772 912 
Q 2981 1044 2981 1288 
Q 2981 1506 2839 1625 
Q 2697 1744 2272 1838 
L 1806 1941 
Q 1106 2091 782 2419 
Q 459 2747 459 3303 
Q 459 4000 909 4375 
Q 1359 4750 2203 4750 
Q 2588 4750 2994 4692 
Q 3400 4634 3834 4519 
z
" transform="scale(0.015625)"/>
    </defs>
    <use xlink:href="#DejaVuSans-Bold-28"/>
    <use xlink:href="#DejaVuSans-Bold-6e" transform="translate(45.703125 0)"/>
    <use xlink:href="#DejaVuSans-Bold-3d" transform="translate(116.894531 0)"/>
    <use xlink:href="#DejaVuSans-Bold-32" transform="translate(200.683594 0)"/>
    <use xlink:href="#DejaVuSans-Bold-30" transform="translate(270.263672 0)"/>
    <use xlink:href="#DejaVuSans-Bold-20" transform="translate(339.84375 0)"/>
    <use xlink:href="#DejaVuSans-Bold-53" transform="translate(374.658203 0)"/>
    <use xlink:href="#DejaVuSans-Bold-61" transform="translate(446.679688 0)"/>
    <use xlink:href="#DejaVuSans-Bold-6d" transform="translate(514.160156 0)"/>
    <use xlink:href="#DejaVuSans-Bold-70" transform="translate(618.359375 0)"/>
    <use xlink:href="#DejaVuSans-Bold-6c" transform="translate(689.941406 0)"/>
    <use xlink:href="#DejaVuSans-Bold-65" transform="translate(724.21875 0)"/>
    <use xlink:href="#DejaVuSans-Bold-73" transform="translate(792.041016 0)"/>
    <use xlink:href="#DejaVuSans-Bold-20" transform="translate(851.5625 0)"/>
    <use xlink:href="#DejaVuSans-Bold-70" transform="translate(886.376953 0)"/>
    <use xlink:href="#DejaVuSans-Bold-72" transform="translate(957.958984 0)"/>
    <use xlink:href="#DejaVuSans-Bold-6f" transform="translate(1007.275391 0)"/>
    <use xlink:href="#DejaVuSans-Bold-20" transform="translate(1075.976562 0)"/>
    <use xlink:href="#DejaVuSans-Bold-4b" transform="translate(1110.791016 0)"/>
    <use xlink:href="#DejaVuSans-Bold-6f" transform="translate(1186.53125 0)"/>
    <use xlink:href="#DejaVuSans-Bold-6e" transform="translate(1255.232422 0)"/>
    <use xlink:href="#DejaVuSans-Bold-66" transform="translate(1326.423828 0)"/>
    <use xlink:href="#DejaVuSans-Bold-69" transform="translate(1369.929688 0)"/>
    <use xlink:href="#DejaVuSans-Bold-67" transform="translate(1404.207031 0)"/>
    <use xlink:href="#DejaVuSans-Bold-75" transform="translate(1475.789062 0)"/>
    <use xlink:href="#DejaVuSans-Bold-72" transform="translate(1546.980469 0)"/>
    <use xlink:href="#DejaVuSans-Bold-61" transform="translate(1596.296875 0)"/>
    <use xlink:href="#DejaVuSans-Bold-74" transform="translate(1663.777344 0)"/>
    <use xlink:href="#DejaVuSans-Bold-69" transform="translate(1711.580078 0)"/>
    <use xlink:href="#DejaVuSans-Bold-6f" transform="translate(1745.857422 0)"/>
    <use xlink:href="#DejaVuSans-Bold-6e" transform="translate(1814.558594 0)"/>
    <use xlink:href="#DejaVuSans-Bold-29" transform="translate(1885.75 0)"/>
   </g>
  </g>
 </g>
 <defs>
  <clipPath id="p545e42096e">
   <rect x="45.716875" y="88.015563" width="518.101875" height="268.120282"/>
  </clipPath>
  <clipPath id="p298d4309aa">
   <rect x="619.498125" y="88.015563" width="518.101875" height="268.120282"/>
  </clipPath>
 </defs>
</svg>
