<?xml version="1.0" encoding="utf-8" standalone="no"?>
<!DOCTYPE svg PUBLIC "-//W3C//DTD SVG 1.1//EN"
  "http://www.w3.org/Graphics/SVG/1.1/DTD/svg11.dtd">
<svg xmlns:xlink="http://www.w3.org/1999/xlink" width="1000.8pt" height="496.8pt" viewBox="0 0 1000.8 496.8" xmlns="http://www.w3.org/2000/svg" version="1.1">
 <metadata>
  <rdf:RDF xmlns:dc="http://purl.org/dc/elements/1.1/" xmlns:cc="http://creativecommons.org/ns#" xmlns:rdf="http://www.w3.org/1999/02/22-rdf-syntax-ns#">
   <cc:Work>
    <dc:type rdf:resource="http://purl.org/dc/dcmitype/StillImage"/>
    <dc:date>2026-01-19T07:42:07.047904</dc:date>
    <dc:format>image/svg+xml</dc:format>
    <dc:creator>
     <cc:Agent>
      <dc:title>Matplotlib v3.10.8, https://matplotlib.org/</dc:title>
     </cc:Agent>
    </dc:creator>
   </cc:Work>
  </rdf:RDF>
 </metadata>
 <defs>
  <style type="text/css">*{stroke-linejoin: round; stroke-linecap: butt}</style>
 </defs>
 <g id="figure_1">
  <g id="patch_1">
   <path d="M 0 496.8 
L 1000.8 496.8 
L 1000.8 0 
L 0 0 
z
" style="fill: #ffffff"/>
  </g>
  <g id="axes_1">
   <g id="patch_2">
    <path d="M 54.015 392.19543 
L 993.6 392.19543 
L 993.6 57.624 
L 54.015 57.624 
z
" style="fill: #ffffff"/>
   </g>
   <g id="patch_3">
    <path d="M 96.723409 392.19543 
L 174.375062 392.19543 
L 174.375062 183.247545 
L 96.723409 183.247545 
z
" clip-path="url(#pee79561825)" style="fill: #e74c3c; opacity: 0.8; stroke: #000000; stroke-width: 1.2; stroke-linejoin: miter"/>
   </g>
   <g id="patch_4">
    <path d="M 193.787975 392.19543 
L 271.439628 392.19543 
L 271.439628 284.323961 
L 193.787975 284.323961 
z
" clip-path="url(#pee79561825)" style="fill: #e74c3c; opacity: 0.8; stroke: #000000; stroke-width: 1.2; stroke-linejoin: miter"/>
   </g>
   <g id="patch_5">
    <path d="M 290.852541 392.19543 
L 368.504194 392.19543 
L 368.504194 282.625198 
L 290.852541 282.625198 
z
" clip-path="url(#pee79561825)" style="fill: #3498db; opacity: 0.8; stroke: #000000; stroke-width: 1.2; stroke-linejoin: miter"/>
   </g>
   <g id="patch_6">
    <path d="M 387.917107 392.19543 
L 465.56876 392.19543 
L 465.56876 286.872106 
L 387.917107 286.872106 
z
" clip-path="url(#pee79561825)" style="fill: #3498db; opacity: 0.8; stroke: #000000; stroke-width: 1.2; stroke-linejoin: miter"/>
   </g>
   <g id="patch_7">
    <path d="M 484.981674 392.19543 
L 562.633326 392.19543 
L 562.633326 134.832792 
L 484.981674 134.832792 
z
" clip-path="url(#pee79561825)" style="fill: #2ecc71; opacity: 0.8; stroke: #000000; stroke-width: 1.2; stroke-linejoin: miter"/>
   </g>
   <g id="patch_8">
    <path d="M 582.04624 392.19543 
L 659.697893 392.19543 
L 659.697893 288.570869 
L 582.04624 288.570869 
z
" clip-path="url(#pee79561825)" style="fill: #2ecc71; opacity: 0.8; stroke: #000000; stroke-width: 1.2; stroke-linejoin: miter"/>
   </g>
   <g id="patch_9">
    <path d="M 679.110806 392.19543 
L 756.762459 392.19543 
L 756.762459 307.257266 
L 679.110806 307.257266 
z
" clip-path="url(#pee79561825)" style="fill: #f39c12; opacity: 0.8; stroke: #000000; stroke-width: 1.2; stroke-linejoin: miter"/>
   </g>
   <g id="patch_10">
    <path d="M 776.175372 392.19543 
L 853.827025 392.19543 
L 853.827025 240.156116 
L 776.175372 240.156116 
z
" clip-path="url(#pee79561825)" style="fill: #9b59b6; opacity: 0.8; stroke: #000000; stroke-width: 1.2; stroke-linejoin: miter"/>
   </g>
   <g id="patch_11">
    <path d="M 873.239938 392.19543 
L 950.891591 392.19543 
L 950.891591 280.077053 
L 873.239938 280.077053 
z
" clip-path="url(#pee79561825)" style="fill: #1abc9c; opacity: 0.8; stroke: #000000; stroke-width: 1.2; stroke-linejoin: miter"/>
   </g>
   <g id="matplotlib.axis_1">
    <g id="xtick_1">
     <g id="line2d_1">
      <defs>
       <path id="m4387ba7a1d" d="M 0 0 
L 0 3.5 
" style="stroke: #000000; stroke-width: 0.8"/>
      </defs>
      <g>
       <use xlink:href="#m4387ba7a1d" x="135.549236" y="392.19543" style="stroke: #000000; stroke-width: 0.8"/>
      </g>
     </g>
     <g id="text_1">
      <!-- RS_(p=0.01) -->
      <g transform="translate(89.267992 449.174621) rotate(-45) scale(0.1 -0.1)">
       <defs>
        <path id="DejaVuSans-52" d="M 2841 2188 
Q 3044 2119 3236 1894 
Q 3428 1669 3622 1275 
L 4263 0 
L 3584 0 
L 2988 1197 
Q 2756 1666 2539 1819 
Q 2322 1972 1947 1972 
L 1259 1972 
L 1259 0 
L 628 0 
L 628 4666 
L 2053 4666 
Q 2853 4666 3247 4331 
Q 3641 3997 3641 3322 
Q 3641 2881 3436 2590 
Q 3231 2300 2841 2188 
z
M 1259 4147 
L 1259 2491 
L 2053 2491 
Q 2509 2491 2742 2702 
Q 2975 2913 2975 3322 
Q 2975 3731 2742 3939 
Q 2509 4147 2053 4147 
L 1259 4147 
z
" transform="scale(0.015625)"/>
        <path id="DejaVuSans-53" d="M 3425 4513 
L 3425 3897 
Q 3066 4069 2747 4153 
Q 2428 4238 2131 4238 
Q 1616 4238 1336 4038 
Q 1056 3838 1056 3469 
Q 1056 3159 1242 3001 
Q 1428 2844 1947 2747 
L 2328 2669 
Q 3034 2534 3370 2195 
Q 3706 1856 3706 1288 
Q 3706 609 3251 259 
Q 2797 -91 1919 -91 
Q 1588 -91 1214 -16 
Q 841 59 441 206 
L 441 856 
Q 825 641 1194 531 
Q 1563 422 1919 422 
Q 2459 422 2753 634 
Q 3047 847 3047 1241 
Q 3047 1584 2836 1778 
Q 2625 1972 2144 2069 
L 1759 2144 
Q 1053 2284 737 2584 
Q 422 2884 422 3419 
Q 422 4038 858 4394 
Q 1294 4750 2059 4750 
Q 2388 4750 2728 4690 
Q 3069 4631 3425 4513 
z
" transform="scale(0.015625)"/>
        <path id="DejaVuSans-5f" d="M 3263 -1063 
L 3263 -1509 
L -63 -1509 
L -63 -1063 
L 3263 -1063 
z
" transform="scale(0.015625)"/>
        <path id="DejaVuSans-28" d="M 1984 4856 
Q 1566 4138 1362 3434 
Q 1159 2731 1159 2009 
Q 1159 1288 1364 580 
Q 1569 -128 1984 -844 
L 1484 -844 
Q 1016 -109 783 600 
Q 550 1309 550 2009 
Q 550 2706 781 3412 
Q 1013 4119 1484 4856 
L 1984 4856 
z
" transform="scale(0.015625)"/>
        <path id="DejaVuSans-70" d="M 1159 525 
L 1159 -1331 
L 581 -1331 
L 581 3500 
L 1159 3500 
L 1159 2969 
Q 1341 3281 1617 3432 
Q 1894 3584 2278 3584 
Q 2916 3584 3314 3078 
Q 3713 2572 3713 1747 
Q 3713 922 3314 415 
Q 2916 -91 2278 -91 
Q 1894 -91 1617 61 
Q 1341 213 1159 525 
z
M 3116 1747 
Q 3116 2381 2855 2742 
Q 2594 3103 2138 3103 
Q 1681 3103 1420 2742 
Q 1159 2381 1159 1747 
Q 1159 1113 1420 752 
Q 1681 391 2138 391 
Q 2594 391 2855 752 
Q 3116 1113 3116 1747 
z
" transform="scale(0.015625)"/>
        <path id="DejaVuSans-3d" d="M 678 2906 
L 4684 2906 
L 4684 2381 
L 678 2381 
L 678 2906 
z
M 678 1631 
L 4684 1631 
L 4684 1100 
L 678 1100 
L 678 1631 
z
" transform="scale(0.015625)"/>
        <path id="DejaVuSans-30" d="M 2034 4250 
Q 1547 4250 1301 3770 
Q 1056 3291 1056 2328 
Q 1056 1369 1301 889 
Q 1547 409 2034 409 
Q 2525 409 2770 889 
Q 3016 1369 3016 2328 
Q 3016 3291 2770 3770 
Q 2525 4250 2034 4250 
z
M 2034 4750 
Q 2819 4750 3233 4129 
Q 3647 3509 3647 2328 
Q 3647 1150 3233 529 
Q 2819 -91 2034 -91 
Q 1250 -91 836 529 
Q 422 1150 422 2328 
Q 422 3509 836 4129 
Q 1250 4750 2034 4750 
z
" transform="scale(0.015625)"/>
        <path id="DejaVuSans-2e" d="M 684 794 
L 1344 794 
L 1344 0 
L 684 0 
L 684 794 
z
" transform="scale(0.015625)"/>
        <path id="DejaVuSans-31" d="M 794 531 
L 1825 531 
L 1825 4091 
L 703 3866 
L 703 4441 
L 1819 4666 
L 2450 4666 
L 2450 531 
L 3481 531 
L 3481 0 
L 794 0 
L 794 531 
z
" transform="scale(0.015625)"/>
        <path id="DejaVuSans-29" d="M 513 4856 
L 1013 4856 
Q 1481 4119 1714 3412 
Q 1947 2706 1947 2009 
Q 1947 1309 1714 600 
Q 1481 -109 1013 -844 
L 513 -844 
Q 928 -128 1133 580 
Q 1338 1288 1338 2009 
Q 1338 2731 1133 3434 
Q 928 4138 513 4856 
z
" transform="scale(0.015625)"/>
       </defs>
       <use xlink:href="#DejaVuSans-52"/>
       <use xlink:href="#DejaVuSans-53" transform="translate(69.482422 0)"/>
       <use xlink:href="#DejaVuSans-5f" transform="translate(132.958984 0)"/>
       <use xlink:href="#DejaVuSans-28" transform="translate(182.958984 0)"/>
       <use xlink:href="#DejaVuSans-70" transform="translate(221.972656 0)"/>
       <use xlink:href="#DejaVuSans-3d" transform="translate(285.449219 0)"/>
       <use xlink:href="#DejaVuSans-30" transform="translate(369.238281 0)"/>
       <use xlink:href="#DejaVuSans-2e" transform="translate(432.861328 0)"/>
       <use xlink:href="#DejaVuSans-30" transform="translate(464.648438 0)"/>
       <use xlink:href="#DejaVuSans-31" transform="translate(528.271484 0)"/>
       <use xlink:href="#DejaVuSans-29" transform="translate(591.894531 0)"/>
      </g>
     </g>
    </g>
    <g id="xtick_2">
     <g id="line2d_2">
      <g>
       <use xlink:href="#m4387ba7a1d" x="232.613802" y="392.19543" style="stroke: #000000; stroke-width: 0.8"/>
      </g>
     </g>
     <g id="text_2">
      <!-- RS_(p=0.05) -->
      <g transform="translate(186.332558 449.174621) rotate(-45) scale(0.1 -0.1)">
       <defs>
        <path id="DejaVuSans-35" d="M 691 4666 
L 3169 4666 
L 3169 4134 
L 1269 4134 
L 1269 2991 
Q 1406 3038 1543 3061 
Q 1681 3084 1819 3084 
Q 2600 3084 3056 2656 
Q 3513 2228 3513 1497 
Q 3513 744 3044 326 
Q 2575 -91 1722 -91 
Q 1428 -91 1123 -41 
Q 819 9 494 109 
L 494 744 
Q 775 591 1075 516 
Q 1375 441 1709 441 
Q 2250 441 2565 725 
Q 2881 1009 2881 1497 
Q 2881 1984 2565 2268 
Q 2250 2553 1709 2553 
Q 1456 2553 1204 2497 
Q 953 2441 691 2322 
L 691 4666 
z
" transform="scale(0.015625)"/>
       </defs>
       <use xlink:href="#DejaVuSans-52"/>
       <use xlink:href="#DejaVuSans-53" transform="translate(69.482422 0)"/>
       <use xlink:href="#DejaVuSans-5f" transform="translate(132.958984 0)"/>
       <use xlink:href="#DejaVuSans-28" transform="translate(182.958984 0)"/>
       <use xlink:href="#DejaVuSans-70" transform="translate(221.972656 0)"/>
       <use xlink:href="#DejaVuSans-3d" transform="translate(285.449219 0)"/>
       <use xlink:href="#DejaVuSans-30" transform="translate(369.238281 0)"/>
       <use xlink:href="#DejaVuSans-2e" transform="translate(432.861328 0)"/>
       <use xlink:href="#DejaVuSans-30" transform="translate(464.648438 0)"/>
       <use xlink:href="#DejaVuSans-35" transform="translate(528.271484 0)"/>
       <use xlink:href="#DejaVuSans-29" transform="translate(591.894531 0)"/>
      </g>
     </g>
    </g>
    <g id="xtick_3">
     <g id="line2d_3">
      <g>
       <use xlink:href="#m4387ba7a1d" x="329.678368" y="392.19543" style="stroke: #000000; stroke-width: 0.8"/>
      </g>
     </g>
     <g id="text_3">
      <!-- SF_(m=3) -->
      <g transform="translate(293.090011 439.481734) rotate(-45) scale(0.1 -0.1)">
       <defs>
        <path id="DejaVuSans-46" d="M 628 4666 
L 3309 4666 
L 3309 4134 
L 1259 4134 
L 1259 2759 
L 3109 2759 
L 3109 2228 
L 1259 2228 
L 1259 0 
L 628 0 
L 628 4666 
z
" transform="scale(0.015625)"/>
        <path id="DejaVuSans-6d" d="M 3328 2828 
Q 3544 3216 3844 3400 
Q 4144 3584 4550 3584 
Q 5097 3584 5394 3201 
Q 5691 2819 5691 2113 
L 5691 0 
L 5113 0 
L 5113 2094 
Q 5113 2597 4934 2840 
Q 4756 3084 4391 3084 
Q 3944 3084 3684 2787 
Q 3425 2491 3425 1978 
L 3425 0 
L 2847 0 
L 2847 2094 
Q 2847 2600 2669 2842 
Q 2491 3084 2119 3084 
Q 1678 3084 1418 2786 
Q 1159 2488 1159 1978 
L 1159 0 
L 581 0 
L 581 3500 
L 1159 3500 
L 1159 2956 
Q 1356 3278 1631 3431 
Q 1906 3584 2284 3584 
Q 2666 3584 2933 3390 
Q 3200 3197 3328 2828 
z
" transform="scale(0.015625)"/>
        <path id="DejaVuSans-33" d="M 2597 2516 
Q 3050 2419 3304 2112 
Q 3559 1806 3559 1356 
Q 3559 666 3084 287 
Q 2609 -91 1734 -91 
Q 1441 -91 1130 -33 
Q 819 25 488 141 
L 488 750 
Q 750 597 1062 519 
Q 1375 441 1716 441 
Q 2309 441 2620 675 
Q 2931 909 2931 1356 
Q 2931 1769 2642 2001 
Q 2353 2234 1838 2234 
L 1294 2234 
L 1294 2753 
L 1863 2753 
Q 2328 2753 2575 2939 
Q 2822 3125 2822 3475 
Q 2822 3834 2567 4026 
Q 2313 4219 1838 4219 
Q 1578 4219 1281 4162 
Q 984 4106 628 3988 
L 628 4550 
Q 988 4650 1302 4700 
Q 1616 4750 1894 4750 
Q 2613 4750 3031 4423 
Q 3450 4097 3450 3541 
Q 3450 3153 3228 2886 
Q 3006 2619 2597 2516 
z
" transform="scale(0.015625)"/>
       </defs>
       <use xlink:href="#DejaVuSans-53"/>
       <use xlink:href="#DejaVuSans-46" transform="translate(63.476562 0)"/>
       <use xlink:href="#DejaVuSans-5f" transform="translate(120.996094 0)"/>
       <use xlink:href="#DejaVuSans-28" transform="translate(170.996094 0)"/>
       <use xlink:href="#DejaVuSans-6d" transform="translate(210.009766 0)"/>
       <use xlink:href="#DejaVuSans-3d" transform="translate(307.421875 0)"/>
       <use xlink:href="#DejaVuSans-33" transform="translate(391.210938 0)"/>
       <use xlink:href="#DejaVuSans-29" transform="translate(454.833984 0)"/>
      </g>
     </g>
    </g>
    <g id="xtick_4">
     <g id="line2d_4">
      <g>
       <use xlink:href="#m4387ba7a1d" x="426.742934" y="392.19543" style="stroke: #000000; stroke-width: 0.8"/>
      </g>
     </g>
     <g id="text_4">
      <!-- SF_(m=5) -->
      <g transform="translate(390.154577 439.481734) rotate(-45) scale(0.1 -0.1)">
       <use xlink:href="#DejaVuSans-53"/>
       <use xlink:href="#DejaVuSans-46" transform="translate(63.476562 0)"/>
       <use xlink:href="#DejaVuSans-5f" transform="translate(120.996094 0)"/>
       <use xlink:href="#DejaVuSans-28" transform="translate(170.996094 0)"/>
       <use xlink:href="#DejaVuSans-6d" transform="translate(210.009766 0)"/>
       <use xlink:href="#DejaVuSans-3d" transform="translate(307.421875 0)"/>
       <use xlink:href="#DejaVuSans-35" transform="translate(391.210938 0)"/>
       <use xlink:href="#DejaVuSans-29" transform="translate(454.833984 0)"/>
      </g>
     </g>
    </g>
    <g id="xtick_5">
     <g id="line2d_5">
      <g>
       <use xlink:href="#m4387ba7a1d" x="523.8075" y="392.19543" style="stroke: #000000; stroke-width: 0.8"/>
      </g>
     </g>
     <g id="text_5">
      <!-- SW_(k=6, p=0.1) -->
      <g transform="translate(460.933554 465.775058) rotate(-45) scale(0.1 -0.1)">
       <defs>
        <path id="DejaVuSans-57" d="M 213 4666 
L 850 4666 
L 1831 722 
L 2809 4666 
L 3519 4666 
L 4500 722 
L 5478 4666 
L 6119 4666 
L 4947 0 
L 4153 0 
L 3169 4050 
L 2175 0 
L 1381 0 
L 213 4666 
z
" transform="scale(0.015625)"/>
        <path id="DejaVuSans-6b" d="M 581 4863 
L 1159 4863 
L 1159 1991 
L 2875 3500 
L 3609 3500 
L 1753 1863 
L 3688 0 
L 2938 0 
L 1159 1709 
L 1159 0 
L 581 0 
L 581 4863 
z
" transform="scale(0.015625)"/>
        <path id="DejaVuSans-36" d="M 2113 2584 
Q 1688 2584 1439 2293 
Q 1191 2003 1191 1497 
Q 1191 994 1439 701 
Q 1688 409 2113 409 
Q 2538 409 2786 701 
Q 3034 994 3034 1497 
Q 3034 2003 2786 2293 
Q 2538 2584 2113 2584 
z
M 3366 4563 
L 3366 3988 
Q 3128 4100 2886 4159 
Q 2644 4219 2406 4219 
Q 1781 4219 1451 3797 
Q 1122 3375 1075 2522 
Q 1259 2794 1537 2939 
Q 1816 3084 2150 3084 
Q 2853 3084 3261 2657 
Q 3669 2231 3669 1497 
Q 3669 778 3244 343 
Q 2819 -91 2113 -91 
Q 1303 -91 875 529 
Q 447 1150 447 2328 
Q 447 3434 972 4092 
Q 1497 4750 2381 4750 
Q 2619 4750 2861 4703 
Q 3103 4656 3366 4563 
z
" transform="scale(0.015625)"/>
        <path id="DejaVuSans-2c" d="M 750 794 
L 1409 794 
L 1409 256 
L 897 -744 
L 494 -744 
L 750 256 
L 750 794 
z
" transform="scale(0.015625)"/>
        <path id="DejaVuSans-20" transform="scale(0.015625)"/>
       </defs>
       <use xlink:href="#DejaVuSans-53"/>
       <use xlink:href="#DejaVuSans-57" transform="translate(63.476562 0)"/>
       <use xlink:href="#DejaVuSans-5f" transform="translate(162.353516 0)"/>
       <use xlink:href="#DejaVuSans-28" transform="translate(212.353516 0)"/>
       <use xlink:href="#DejaVuSans-6b" transform="translate(251.367188 0)"/>
       <use xlink:href="#DejaVuSans-3d" transform="translate(309.277344 0)"/>
       <use xlink:href="#DejaVuSans-36" transform="translate(393.066406 0)"/>
       <use xlink:href="#DejaVuSans-2c" transform="translate(456.689453 0)"/>
       <use xlink:href="#DejaVuSans-20" transform="translate(488.476562 0)"/>
       <use xlink:href="#DejaVuSans-70" transform="translate(520.263672 0)"/>
       <use xlink:href="#DejaVuSans-3d" transform="translate(583.740234 0)"/>
       <use xlink:href="#DejaVuSans-30" transform="translate(667.529297 0)"/>
       <use xlink:href="#DejaVuSans-2e" transform="translate(731.152344 0)"/>
       <use xlink:href="#DejaVuSans-31" transform="translate(762.939453 0)"/>
       <use xlink:href="#DejaVuSans-29" transform="translate(826.5625 0)"/>
      </g>
     </g>
    </g>
    <g id="xtick_6">
     <g id="line2d_6">
      <g>
       <use xlink:href="#m4387ba7a1d" x="620.872066" y="392.19543" style="stroke: #000000; stroke-width: 0.8"/>
      </g>
     </g>
     <g id="text_6">
      <!-- SW_(k=10, p=0.3) -->
      <g transform="translate(553.499153 470.274025) rotate(-45) scale(0.1 -0.1)">
       <use xlink:href="#DejaVuSans-53"/>
       <use xlink:href="#DejaVuSans-57" transform="translate(63.476562 0)"/>
       <use xlink:href="#DejaVuSans-5f" transform="translate(162.353516 0)"/>
       <use xlink:href="#DejaVuSans-28" transform="translate(212.353516 0)"/>
       <use xlink:href="#DejaVuSans-6b" transform="translate(251.367188 0)"/>
       <use xlink:href="#DejaVuSans-3d" transform="translate(309.277344 0)"/>
       <use xlink:href="#DejaVuSans-31" transform="translate(393.066406 0)"/>
       <use xlink:href="#DejaVuSans-30" transform="translate(456.689453 0)"/>
       <use xlink:href="#DejaVuSans-2c" transform="translate(520.3125 0)"/>
       <use xlink:href="#DejaVuSans-20" transform="translate(552.099609 0)"/>
       <use xlink:href="#DejaVuSans-70" transform="translate(583.886719 0)"/>
       <use xlink:href="#DejaVuSans-3d" transform="translate(647.363281 0)"/>
       <use xlink:href="#DejaVuSans-30" transform="translate(731.152344 0)"/>
       <use xlink:href="#DejaVuSans-2e" transform="translate(794.775391 0)"/>
       <use xlink:href="#DejaVuSans-33" transform="translate(826.5625 0)"/>
       <use xlink:href="#DejaVuSans-29" transform="translate(890.185547 0)"/>
      </g>
     </g>
    </g>
    <g id="xtick_7">
     <g id="line2d_7">
      <g>
       <use xlink:href="#m4387ba7a1d" x="717.936632" y="392.19543" style="stroke: #000000; stroke-width: 0.8"/>
      </g>
     </g>
     <g id="text_7">
      <!-- Hier_(levels=3) -->
      <g transform="translate(661.752579 459.085165) rotate(-45) scale(0.1 -0.1)">
       <defs>
        <path id="DejaVuSans-48" d="M 628 4666 
L 1259 4666 
L 1259 2753 
L 3553 2753 
L 3553 4666 
L 4184 4666 
L 4184 0 
L 3553 0 
L 3553 2222 
L 1259 2222 
L 1259 0 
L 628 0 
L 628 4666 
z
" transform="scale(0.015625)"/>
        <path id="DejaVuSans-69" d="M 603 3500 
L 1178 3500 
L 1178 0 
L 603 0 
L 603 3500 
z
M 603 4863 
L 1178 4863 
L 1178 4134 
L 603 4134 
L 603 4863 
z
" transform="scale(0.015625)"/>
        <path id="DejaVuSans-65" d="M 3597 1894 
L 3597 1613 
L 953 1613 
Q 991 1019 1311 708 
Q 1631 397 2203 397 
Q 2534 397 2845 478 
Q 3156 559 3463 722 
L 3463 178 
Q 3153 47 2828 -22 
Q 2503 -91 2169 -91 
Q 1331 -91 842 396 
Q 353 884 353 1716 
Q 353 2575 817 3079 
Q 1281 3584 2069 3584 
Q 2775 3584 3186 3129 
Q 3597 2675 3597 1894 
z
M 3022 2063 
Q 3016 2534 2758 2815 
Q 2500 3097 2075 3097 
Q 1594 3097 1305 2825 
Q 1016 2553 972 2059 
L 3022 2063 
z
" transform="scale(0.015625)"/>
        <path id="DejaVuSans-72" d="M 2631 2963 
Q 2534 3019 2420 3045 
Q 2306 3072 2169 3072 
Q 1681 3072 1420 2755 
Q 1159 2438 1159 1844 
L 1159 0 
L 581 0 
L 581 3500 
L 1159 3500 
L 1159 2956 
Q 1341 3275 1631 3429 
Q 1922 3584 2338 3584 
Q 2397 3584 2469 3576 
Q 2541 3569 2628 3553 
L 2631 2963 
z
" transform="scale(0.015625)"/>
        <path id="DejaVuSans-6c" d="M 603 4863 
L 1178 4863 
L 1178 0 
L 603 0 
L 603 4863 
z
" transform="scale(0.015625)"/>
        <path id="DejaVuSans-76" d="M 191 3500 
L 800 3500 
L 1894 563 
L 2988 3500 
L 3597 3500 
L 2284 0 
L 1503 0 
L 191 3500 
z
" transform="scale(0.015625)"/>
        <path id="DejaVuSans-73" d="M 2834 3397 
L 2834 2853 
Q 2591 2978 2328 3040 
Q 2066 3103 1784 3103 
Q 1356 3103 1142 2972 
Q 928 2841 928 2578 
Q 928 2378 1081 2264 
Q 1234 2150 1697 2047 
L 1894 2003 
Q 2506 1872 2764 1633 
Q 3022 1394 3022 966 
Q 3022 478 2636 193 
Q 2250 -91 1575 -91 
Q 1294 -91 989 -36 
Q 684 19 347 128 
L 347 722 
Q 666 556 975 473 
Q 1284 391 1588 391 
Q 1994 391 2212 530 
Q 2431 669 2431 922 
Q 2431 1156 2273 1281 
Q 2116 1406 1581 1522 
L 1381 1569 
Q 847 1681 609 1914 
Q 372 2147 372 2553 
Q 372 3047 722 3315 
Q 1072 3584 1716 3584 
Q 2034 3584 2315 3537 
Q 2597 3491 2834 3397 
z
" transform="scale(0.015625)"/>
       </defs>
       <use xlink:href="#DejaVuSans-48"/>
       <use xlink:href="#DejaVuSans-69" transform="translate(75.195312 0)"/>
       <use xlink:href="#DejaVuSans-65" transform="translate(102.978516 0)"/>
       <use xlink:href="#DejaVuSans-72" transform="translate(164.501953 0)"/>
       <use xlink:href="#DejaVuSans-5f" transform="translate(205.615234 0)"/>
       <use xlink:href="#DejaVuSans-28" transform="translate(255.615234 0)"/>
       <use xlink:href="#DejaVuSans-6c" transform="translate(294.628906 0)"/>
       <use xlink:href="#DejaVuSans-65" transform="translate(322.412109 0)"/>
       <use xlink:href="#DejaVuSans-76" transform="translate(383.935547 0)"/>
       <use xlink:href="#DejaVuSans-65" transform="translate(443.115234 0)"/>
       <use xlink:href="#DejaVuSans-6c" transform="translate(504.638672 0)"/>
       <use xlink:href="#DejaVuSans-73" transform="translate(532.421875 0)"/>
       <use xlink:href="#DejaVuSans-3d" transform="translate(584.521484 0)"/>
       <use xlink:href="#DejaVuSans-33" transform="translate(668.310547 0)"/>
       <use xlink:href="#DejaVuSans-29" transform="translate(731.933594 0)"/>
      </g>
     </g>
    </g>
    <g id="xtick_8">
     <g id="line2d_8">
      <g>
       <use xlink:href="#m4387ba7a1d" x="815.001198" y="392.19543" style="stroke: #000000; stroke-width: 0.8"/>
      </g>
     </g>
     <g id="text_8">
      <!-- Mod_(mod=10) -->
      <g transform="translate(758.737596 459.164714) rotate(-45) scale(0.1 -0.1)">
       <defs>
        <path id="DejaVuSans-4d" d="M 628 4666 
L 1569 4666 
L 2759 1491 
L 3956 4666 
L 4897 4666 
L 4897 0 
L 4281 0 
L 4281 4097 
L 3078 897 
L 2444 897 
L 1241 4097 
L 1241 0 
L 628 0 
L 628 4666 
z
" transform="scale(0.015625)"/>
        <path id="DejaVuSans-6f" d="M 1959 3097 
Q 1497 3097 1228 2736 
Q 959 2375 959 1747 
Q 959 1119 1226 758 
Q 1494 397 1959 397 
Q 2419 397 2687 759 
Q 2956 1122 2956 1747 
Q 2956 2369 2687 2733 
Q 2419 3097 1959 3097 
z
M 1959 3584 
Q 2709 3584 3137 3096 
Q 3566 2609 3566 1747 
Q 3566 888 3137 398 
Q 2709 -91 1959 -91 
Q 1206 -91 779 398 
Q 353 888 353 1747 
Q 353 2609 779 3096 
Q 1206 3584 1959 3584 
z
" transform="scale(0.015625)"/>
        <path id="DejaVuSans-64" d="M 2906 2969 
L 2906 4863 
L 3481 4863 
L 3481 0 
L 2906 0 
L 2906 525 
Q 2725 213 2448 61 
Q 2172 -91 1784 -91 
Q 1150 -91 751 415 
Q 353 922 353 1747 
Q 353 2572 751 3078 
Q 1150 3584 1784 3584 
Q 2172 3584 2448 3432 
Q 2725 3281 2906 2969 
z
M 947 1747 
Q 947 1113 1208 752 
Q 1469 391 1925 391 
Q 2381 391 2643 752 
Q 2906 1113 2906 1747 
Q 2906 2381 2643 2742 
Q 2381 3103 1925 3103 
Q 1469 3103 1208 2742 
Q 947 2381 947 1747 
z
" transform="scale(0.015625)"/>
       </defs>
       <use xlink:href="#DejaVuSans-4d"/>
       <use xlink:href="#DejaVuSans-6f" transform="translate(86.279297 0)"/>
       <use xlink:href="#DejaVuSans-64" transform="translate(147.460938 0)"/>
       <use xlink:href="#DejaVuSans-5f" transform="translate(210.9375 0)"/>
       <use xlink:href="#DejaVuSans-28" transform="translate(260.9375 0)"/>
       <use xlink:href="#DejaVuSans-6d" transform="translate(299.951172 0)"/>
       <use xlink:href="#DejaVuSans-6f" transform="translate(397.363281 0)"/>
       <use xlink:href="#DejaVuSans-64" transform="translate(458.544922 0)"/>
       <use xlink:href="#DejaVuSans-3d" transform="translate(522.021484 0)"/>
       <use xlink:href="#DejaVuSans-31" transform="translate(605.810547 0)"/>
       <use xlink:href="#DejaVuSans-30" transform="translate(669.433594 0)"/>
       <use xlink:href="#DejaVuSans-29" transform="translate(733.056641 0)"/>
      </g>
     </g>
    </g>
    <g id="xtick_9">
     <g id="line2d_9">
      <g>
       <use xlink:href="#m4387ba7a1d" x="912.065764" y="392.19543" style="stroke: #000000; stroke-width: 0.8"/>
      </g>
     </g>
     <g id="text_9">
      <!-- CC_(layers=6) -->
      <g transform="translate(859.621643 455.345233) rotate(-45) scale(0.1 -0.1)">
       <defs>
        <path id="DejaVuSans-43" d="M 4122 4306 
L 4122 3641 
Q 3803 3938 3442 4084 
Q 3081 4231 2675 4231 
Q 1875 4231 1450 3742 
Q 1025 3253 1025 2328 
Q 1025 1406 1450 917 
Q 1875 428 2675 428 
Q 3081 428 3442 575 
Q 3803 722 4122 1019 
L 4122 359 
Q 3791 134 3420 21 
Q 3050 -91 2638 -91 
Q 1578 -91 968 557 
Q 359 1206 359 2328 
Q 359 3453 968 4101 
Q 1578 4750 2638 4750 
Q 3056 4750 3426 4639 
Q 3797 4528 4122 4306 
z
" transform="scale(0.015625)"/>
        <path id="DejaVuSans-61" d="M 2194 1759 
Q 1497 1759 1228 1600 
Q 959 1441 959 1056 
Q 959 750 1161 570 
Q 1363 391 1709 391 
Q 2188 391 2477 730 
Q 2766 1069 2766 1631 
L 2766 1759 
L 2194 1759 
z
M 3341 1997 
L 3341 0 
L 2766 0 
L 2766 531 
Q 2569 213 2275 61 
Q 1981 -91 1556 -91 
Q 1019 -91 701 211 
Q 384 513 384 1019 
Q 384 1609 779 1909 
Q 1175 2209 1959 2209 
L 2766 2209 
L 2766 2266 
Q 2766 2663 2505 2880 
Q 2244 3097 1772 3097 
Q 1472 3097 1187 3025 
Q 903 2953 641 2809 
L 641 3341 
Q 956 3463 1253 3523 
Q 1550 3584 1831 3584 
Q 2591 3584 2966 3190 
Q 3341 2797 3341 1997 
z
" transform="scale(0.015625)"/>
        <path id="DejaVuSans-79" d="M 2059 -325 
Q 1816 -950 1584 -1140 
Q 1353 -1331 966 -1331 
L 506 -1331 
L 506 -850 
L 844 -850 
Q 1081 -850 1212 -737 
Q 1344 -625 1503 -206 
L 1606 56 
L 191 3500 
L 800 3500 
L 1894 763 
L 2988 3500 
L 3597 3500 
L 2059 -325 
z
" transform="scale(0.015625)"/>
       </defs>
       <use xlink:href="#DejaVuSans-43"/>
       <use xlink:href="#DejaVuSans-43" transform="translate(69.824219 0)"/>
       <use xlink:href="#DejaVuSans-5f" transform="translate(139.648438 0)"/>
       <use xlink:href="#DejaVuSans-28" transform="translate(189.648438 0)"/>
       <use xlink:href="#DejaVuSans-6c" transform="translate(228.662109 0)"/>
       <use xlink:href="#DejaVuSans-61" transform="translate(256.445312 0)"/>
       <use xlink:href="#DejaVuSans-79" transform="translate(317.724609 0)"/>
       <use xlink:href="#DejaVuSans-65" transform="translate(376.904297 0)"/>
       <use xlink:href="#DejaVuSans-72" transform="translate(438.427734 0)"/>
       <use xlink:href="#DejaVuSans-73" transform="translate(479.541016 0)"/>
       <use xlink:href="#DejaVuSans-3d" transform="translate(531.640625 0)"/>
       <use xlink:href="#DejaVuSans-36" transform="translate(615.429688 0)"/>
       <use xlink:href="#DejaVuSans-29" transform="translate(679.052734 0)"/>
      </g>
     </g>
    </g>
    <g id="text_10">
     <!-- Graph-Konfiguration -->
     <g transform="translate(442.742031 486.579062) scale(0.14 -0.14)">
      <defs>
       <path id="DejaVuSans-Bold-47" d="M 4781 347 
Q 4331 128 3847 18 
Q 3363 -91 2847 -91 
Q 1681 -91 1000 561 
Q 319 1213 319 2328 
Q 319 3456 1012 4103 
Q 1706 4750 2913 4750 
Q 3378 4750 3804 4662 
Q 4231 4575 4609 4403 
L 4609 3438 
Q 4219 3659 3833 3768 
Q 3447 3878 3059 3878 
Q 2341 3878 1952 3476 
Q 1563 3075 1563 2328 
Q 1563 1588 1938 1184 
Q 2313 781 3003 781 
Q 3191 781 3352 804 
Q 3513 828 3641 878 
L 3641 1784 
L 2906 1784 
L 2906 2591 
L 4781 2591 
L 4781 347 
z
" transform="scale(0.015625)"/>
       <path id="DejaVuSans-Bold-72" d="M 3138 2547 
Q 2991 2616 2845 2648 
Q 2700 2681 2553 2681 
Q 2122 2681 1889 2404 
Q 1656 2128 1656 1613 
L 1656 0 
L 538 0 
L 538 3500 
L 1656 3500 
L 1656 2925 
Q 1872 3269 2151 3426 
Q 2431 3584 2822 3584 
Q 2878 3584 2943 3579 
Q 3009 3575 3134 3559 
L 3138 2547 
z
" transform="scale(0.015625)"/>
       <path id="DejaVuSans-Bold-61" d="M 2106 1575 
Q 1756 1575 1579 1456 
Q 1403 1338 1403 1106 
Q 1403 894 1545 773 
Q 1688 653 1941 653 
Q 2256 653 2472 879 
Q 2688 1106 2688 1447 
L 2688 1575 
L 2106 1575 
z
M 3816 1997 
L 3816 0 
L 2688 0 
L 2688 519 
Q 2463 200 2181 54 
Q 1900 -91 1497 -91 
Q 953 -91 614 226 
Q 275 544 275 1050 
Q 275 1666 698 1953 
Q 1122 2241 2028 2241 
L 2688 2241 
L 2688 2328 
Q 2688 2594 2478 2717 
Q 2269 2841 1825 2841 
Q 1466 2841 1156 2769 
Q 847 2697 581 2553 
L 581 3406 
Q 941 3494 1303 3539 
Q 1666 3584 2028 3584 
Q 2975 3584 3395 3211 
Q 3816 2838 3816 1997 
z
" transform="scale(0.015625)"/>
       <path id="DejaVuSans-Bold-70" d="M 1656 506 
L 1656 -1331 
L 538 -1331 
L 538 3500 
L 1656 3500 
L 1656 2988 
Q 1888 3294 2169 3439 
Q 2450 3584 2816 3584 
Q 3463 3584 3878 3070 
Q 4294 2556 4294 1747 
Q 4294 938 3878 423 
Q 3463 -91 2816 -91 
Q 2450 -91 2169 54 
Q 1888 200 1656 506 
z
M 2400 2772 
Q 2041 2772 1848 2508 
Q 1656 2244 1656 1747 
Q 1656 1250 1848 986 
Q 2041 722 2400 722 
Q 2759 722 2948 984 
Q 3138 1247 3138 1747 
Q 3138 2247 2948 2509 
Q 2759 2772 2400 2772 
z
" transform="scale(0.015625)"/>
       <path id="DejaVuSans-Bold-68" d="M 4056 2131 
L 4056 0 
L 2931 0 
L 2931 347 
L 2931 1625 
Q 2931 2084 2911 2256 
Q 2891 2428 2841 2509 
Q 2775 2619 2662 2680 
Q 2550 2741 2406 2741 
Q 2056 2741 1856 2470 
Q 1656 2200 1656 1722 
L 1656 0 
L 538 0 
L 538 4863 
L 1656 4863 
L 1656 2988 
Q 1909 3294 2193 3439 
Q 2478 3584 2822 3584 
Q 3428 3584 3742 3212 
Q 4056 2841 4056 2131 
z
" transform="scale(0.015625)"/>
       <path id="DejaVuSans-Bold-2d" d="M 347 2297 
L 2309 2297 
L 2309 1388 
L 347 1388 
L 347 2297 
z
" transform="scale(0.015625)"/>
       <path id="DejaVuSans-Bold-4b" d="M 588 4666 
L 1791 4666 
L 1791 2963 
L 3525 4666 
L 4922 4666 
L 2675 2456 
L 5153 0 
L 3647 0 
L 1791 1838 
L 1791 0 
L 588 0 
L 588 4666 
z
" transform="scale(0.015625)"/>
       <path id="DejaVuSans-Bold-6f" d="M 2203 2784 
Q 1831 2784 1636 2517 
Q 1441 2250 1441 1747 
Q 1441 1244 1636 976 
Q 1831 709 2203 709 
Q 2569 709 2762 976 
Q 2956 1244 2956 1747 
Q 2956 2250 2762 2517 
Q 2569 2784 2203 2784 
z
M 2203 3584 
Q 3106 3584 3614 3096 
Q 4122 2609 4122 1747 
Q 4122 884 3614 396 
Q 3106 -91 2203 -91 
Q 1297 -91 786 396 
Q 275 884 275 1747 
Q 275 2609 786 3096 
Q 1297 3584 2203 3584 
z
" transform="scale(0.015625)"/>
       <path id="DejaVuSans-Bold-6e" d="M 4056 2131 
L 4056 0 
L 2931 0 
L 2931 347 
L 2931 1631 
Q 2931 2084 2911 2256 
Q 2891 2428 2841 2509 
Q 2775 2619 2662 2680 
Q 2550 2741 2406 2741 
Q 2056 2741 1856 2470 
Q 1656 2200 1656 1722 
L 1656 0 
L 538 0 
L 538 3500 
L 1656 3500 
L 1656 2988 
Q 1909 3294 2193 3439 
Q 2478 3584 2822 3584 
Q 3428 3584 3742 3212 
Q 4056 2841 4056 2131 
z
" transform="scale(0.015625)"/>
       <path id="DejaVuSans-Bold-66" d="M 2841 4863 
L 2841 4128 
L 2222 4128 
Q 1984 4128 1890 4042 
Q 1797 3956 1797 3744 
L 1797 3500 
L 2753 3500 
L 2753 2700 
L 1797 2700 
L 1797 0 
L 678 0 
L 678 2700 
L 122 2700 
L 122 3500 
L 678 3500 
L 678 3744 
Q 678 4316 997 4589 
Q 1316 4863 1984 4863 
L 2841 4863 
z
" transform="scale(0.015625)"/>
       <path id="DejaVuSans-Bold-69" d="M 538 3500 
L 1656 3500 
L 1656 0 
L 538 0 
L 538 3500 
z
M 538 4863 
L 1656 4863 
L 1656 3950 
L 538 3950 
L 538 4863 
z
" transform="scale(0.015625)"/>
       <path id="DejaVuSans-Bold-67" d="M 2919 594 
Q 2688 288 2409 144 
Q 2131 0 1766 0 
Q 1125 0 706 504 
Q 288 1009 288 1791 
Q 288 2575 706 3076 
Q 1125 3578 1766 3578 
Q 2131 3578 2409 3434 
Q 2688 3291 2919 2981 
L 2919 3500 
L 4044 3500 
L 4044 353 
Q 4044 -491 3511 -936 
Q 2978 -1381 1966 -1381 
Q 1638 -1381 1331 -1331 
Q 1025 -1281 716 -1178 
L 716 -306 
Q 1009 -475 1290 -558 
Q 1572 -641 1856 -641 
Q 2406 -641 2662 -400 
Q 2919 -159 2919 353 
L 2919 594 
z
M 2181 2772 
Q 1834 2772 1640 2515 
Q 1447 2259 1447 1791 
Q 1447 1309 1634 1061 
Q 1822 813 2181 813 
Q 2531 813 2725 1069 
Q 2919 1325 2919 1791 
Q 2919 2259 2725 2515 
Q 2531 2772 2181 2772 
z
" transform="scale(0.015625)"/>
       <path id="DejaVuSans-Bold-75" d="M 500 1363 
L 500 3500 
L 1625 3500 
L 1625 3150 
Q 1625 2866 1622 2436 
Q 1619 2006 1619 1863 
Q 1619 1441 1641 1255 
Q 1663 1069 1716 984 
Q 1784 875 1895 815 
Q 2006 756 2150 756 
Q 2500 756 2700 1025 
Q 2900 1294 2900 1772 
L 2900 3500 
L 4019 3500 
L 4019 0 
L 2900 0 
L 2900 506 
Q 2647 200 2364 54 
Q 2081 -91 1741 -91 
Q 1134 -91 817 281 
Q 500 653 500 1363 
z
" transform="scale(0.015625)"/>
       <path id="DejaVuSans-Bold-74" d="M 1759 4494 
L 1759 3500 
L 2913 3500 
L 2913 2700 
L 1759 2700 
L 1759 1216 
Q 1759 972 1856 886 
Q 1953 800 2241 800 
L 2816 800 
L 2816 0 
L 1856 0 
Q 1194 0 917 276 
Q 641 553 641 1216 
L 641 2700 
L 84 2700 
L 84 3500 
L 641 3500 
L 641 4494 
L 1759 4494 
z
" transform="scale(0.015625)"/>
      </defs>
      <use xlink:href="#DejaVuSans-Bold-47"/>
      <use xlink:href="#DejaVuSans-Bold-72" transform="translate(82.080078 0)"/>
      <use xlink:href="#DejaVuSans-Bold-61" transform="translate(131.396484 0)"/>
      <use xlink:href="#DejaVuSans-Bold-70" transform="translate(198.876953 0)"/>
      <use xlink:href="#DejaVuSans-Bold-68" transform="translate(270.458984 0)"/>
      <use xlink:href="#DejaVuSans-Bold-2d" transform="translate(341.650391 0)"/>
      <use xlink:href="#DejaVuSans-Bold-4b" transform="translate(383.154297 0)"/>
      <use xlink:href="#DejaVuSans-Bold-6f" transform="translate(458.894531 0)"/>
      <use xlink:href="#DejaVuSans-Bold-6e" transform="translate(527.595703 0)"/>
      <use xlink:href="#DejaVuSans-Bold-66" transform="translate(598.787109 0)"/>
      <use xlink:href="#DejaVuSans-Bold-69" transform="translate(642.292969 0)"/>
      <use xlink:href="#DejaVuSans-Bold-67" transform="translate(676.570312 0)"/>
      <use xlink:href="#DejaVuSans-Bold-75" transform="translate(748.152344 0)"/>
      <use xlink:href="#DejaVuSans-Bold-72" transform="translate(819.34375 0)"/>
      <use xlink:href="#DejaVuSans-Bold-61" transform="translate(868.660156 0)"/>
      <use xlink:href="#DejaVuSans-Bold-74" transform="translate(936.140625 0)"/>
      <use xlink:href="#DejaVuSans-Bold-69" transform="translate(983.943359 0)"/>
      <use xlink:href="#DejaVuSans-Bold-6f" transform="translate(1018.220703 0)"/>
      <use xlink:href="#DejaVuSans-Bold-6e" transform="translate(1086.921875 0)"/>
     </g>
    </g>
   </g>
   <g id="matplotlib.axis_2">
    <g id="ytick_1">
     <g id="line2d_10">
      <path d="M 54.015 392.19543 
L 993.6 392.19543 
" clip-path="url(#pee79561825)" style="fill: none; stroke-dasharray: 2.96,1.28; stroke-dashoffset: 0; stroke: #b0b0b0; stroke-opacity: 0.3; stroke-width: 0.8"/>
     </g>
     <g id="line2d_11">
      <defs>
       <path id="m8df0ecd4e6" d="M 0 0 
L -3.5 0 
" style="stroke: #000000; stroke-width: 0.8"/>
      </defs>
      <g>
       <use xlink:href="#m8df0ecd4e6" x="54.015" y="392.19543" style="stroke: #000000; stroke-width: 0.8"/>
      </g>
     </g>
     <g id="text_11">
      <!-- 0.0 -->
      <g transform="translate(31.111875 395.994649) scale(0.1 -0.1)">
       <use xlink:href="#DejaVuSans-30"/>
       <use xlink:href="#DejaVuSans-2e" transform="translate(63.623047 0)"/>
       <use xlink:href="#DejaVuSans-30" transform="translate(95.410156 0)"/>
      </g>
     </g>
    </g>
    <g id="ytick_2">
     <g id="line2d_12">
      <path d="M 54.015 349.726348 
L 993.6 349.726348 
" clip-path="url(#pee79561825)" style="fill: none; stroke-dasharray: 2.96,1.28; stroke-dashoffset: 0; stroke: #b0b0b0; stroke-opacity: 0.3; stroke-width: 0.8"/>
     </g>
     <g id="line2d_13">
      <g>
       <use xlink:href="#m8df0ecd4e6" x="54.015" y="349.726348" style="stroke: #000000; stroke-width: 0.8"/>
      </g>
     </g>
     <g id="text_12">
      <!-- 2.5 -->
      <g transform="translate(31.111875 353.525567) scale(0.1 -0.1)">
       <defs>
        <path id="DejaVuSans-32" d="M 1228 531 
L 3431 531 
L 3431 0 
L 469 0 
L 469 531 
Q 828 903 1448 1529 
Q 2069 2156 2228 2338 
Q 2531 2678 2651 2914 
Q 2772 3150 2772 3378 
Q 2772 3750 2511 3984 
Q 2250 4219 1831 4219 
Q 1534 4219 1204 4116 
Q 875 4013 500 3803 
L 500 4441 
Q 881 4594 1212 4672 
Q 1544 4750 1819 4750 
Q 2544 4750 2975 4387 
Q 3406 4025 3406 3419 
Q 3406 3131 3298 2873 
Q 3191 2616 2906 2266 
Q 2828 2175 2409 1742 
Q 1991 1309 1228 531 
z
" transform="scale(0.015625)"/>
       </defs>
       <use xlink:href="#DejaVuSans-32"/>
       <use xlink:href="#DejaVuSans-2e" transform="translate(63.623047 0)"/>
       <use xlink:href="#DejaVuSans-35" transform="translate(95.410156 0)"/>
      </g>
     </g>
    </g>
    <g id="ytick_3">
     <g id="line2d_14">
      <path d="M 54.015 307.257266 
L 993.6 307.257266 
" clip-path="url(#pee79561825)" style="fill: none; stroke-dasharray: 2.96,1.28; stroke-dashoffset: 0; stroke: #b0b0b0; stroke-opacity: 0.3; stroke-width: 0.8"/>
     </g>
     <g id="line2d_15">
      <g>
       <use xlink:href="#m8df0ecd4e6" x="54.015" y="307.257266" style="stroke: #000000; stroke-width: 0.8"/>
      </g>
     </g>
     <g id="text_13">
      <!-- 5.0 -->
      <g transform="translate(31.111875 311.056484) scale(0.1 -0.1)">
       <use xlink:href="#DejaVuSans-35"/>
       <use xlink:href="#DejaVuSans-2e" transform="translate(63.623047 0)"/>
       <use xlink:href="#DejaVuSans-30" transform="translate(95.410156 0)"/>
      </g>
     </g>
    </g>
    <g id="ytick_4">
     <g id="line2d_16">
      <path d="M 54.015 264.788183 
L 993.6 264.788183 
" clip-path="url(#pee79561825)" style="fill: none; stroke-dasharray: 2.96,1.28; stroke-dashoffset: 0; stroke: #b0b0b0; stroke-opacity: 0.3; stroke-width: 0.8"/>
     </g>
     <g id="line2d_17">
      <g>
       <use xlink:href="#m8df0ecd4e6" x="54.015" y="264.788183" style="stroke: #000000; stroke-width: 0.8"/>
      </g>
     </g>
     <g id="text_14">
      <!-- 7.5 -->
      <g transform="translate(31.111875 268.587402) scale(0.1 -0.1)">
       <defs>
        <path id="DejaVuSans-37" d="M 525 4666 
L 3525 4666 
L 3525 4397 
L 1831 0 
L 1172 0 
L 2766 4134 
L 525 4134 
L 525 4666 
z
" transform="scale(0.015625)"/>
       </defs>
       <use xlink:href="#DejaVuSans-37"/>
       <use xlink:href="#DejaVuSans-2e" transform="translate(63.623047 0)"/>
       <use xlink:href="#DejaVuSans-35" transform="translate(95.410156 0)"/>
      </g>
     </g>
    </g>
    <g id="ytick_5">
     <g id="line2d_18">
      <path d="M 54.015 222.319101 
L 993.6 222.319101 
" clip-path="url(#pee79561825)" style="fill: none; stroke-dasharray: 2.96,1.28; stroke-dashoffset: 0; stroke: #b0b0b0; stroke-opacity: 0.3; stroke-width: 0.8"/>
     </g>
     <g id="line2d_19">
      <g>
       <use xlink:href="#m8df0ecd4e6" x="54.015" y="222.319101" style="stroke: #000000; stroke-width: 0.8"/>
      </g>
     </g>
     <g id="text_15">
      <!-- 10.0 -->
      <g transform="translate(24.749375 226.11832) scale(0.1 -0.1)">
       <use xlink:href="#DejaVuSans-31"/>
       <use xlink:href="#DejaVuSans-30" transform="translate(63.623047 0)"/>
       <use xlink:href="#DejaVuSans-2e" transform="translate(127.246094 0)"/>
       <use xlink:href="#DejaVuSans-30" transform="translate(159.033203 0)"/>
      </g>
     </g>
    </g>
    <g id="ytick_6">
     <g id="line2d_20">
      <path d="M 54.015 179.850019 
L 993.6 179.850019 
" clip-path="url(#pee79561825)" style="fill: none; stroke-dasharray: 2.96,1.28; stroke-dashoffset: 0; stroke: #b0b0b0; stroke-opacity: 0.3; stroke-width: 0.8"/>
     </g>
     <g id="line2d_21">
      <g>
       <use xlink:href="#m8df0ecd4e6" x="54.015" y="179.850019" style="stroke: #000000; stroke-width: 0.8"/>
      </g>
     </g>
     <g id="text_16">
      <!-- 12.5 -->
      <g transform="translate(24.749375 183.649238) scale(0.1 -0.1)">
       <use xlink:href="#DejaVuSans-31"/>
       <use xlink:href="#DejaVuSans-32" transform="translate(63.623047 0)"/>
       <use xlink:href="#DejaVuSans-2e" transform="translate(127.246094 0)"/>
       <use xlink:href="#DejaVuSans-35" transform="translate(159.033203 0)"/>
      </g>
     </g>
    </g>
    <g id="ytick_7">
     <g id="line2d_22">
      <path d="M 54.015 137.380937 
L 993.6 137.380937 
" clip-path="url(#pee79561825)" style="fill: none; stroke-dasharray: 2.96,1.28; stroke-dashoffset: 0; stroke: #b0b0b0; stroke-opacity: 0.3; stroke-width: 0.8"/>
     </g>
     <g id="line2d_23">
      <g>
       <use xlink:href="#m8df0ecd4e6" x="54.015" y="137.380937" style="stroke: #000000; stroke-width: 0.8"/>
      </g>
     </g>
     <g id="text_17">
      <!-- 15.0 -->
      <g transform="translate(24.749375 141.180155) scale(0.1 -0.1)">
       <use xlink:href="#DejaVuSans-31"/>
       <use xlink:href="#DejaVuSans-35" transform="translate(63.623047 0)"/>
       <use xlink:href="#DejaVuSans-2e" transform="translate(127.246094 0)"/>
       <use xlink:href="#DejaVuSans-30" transform="translate(159.033203 0)"/>
      </g>
     </g>
    </g>
    <g id="ytick_8">
     <g id="line2d_24">
      <path d="M 54.015 94.911854 
L 993.6 94.911854 
" clip-path="url(#pee79561825)" style="fill: none; stroke-dasharray: 2.96,1.28; stroke-dashoffset: 0; stroke: #b0b0b0; stroke-opacity: 0.3; stroke-width: 0.8"/>
     </g>
     <g id="line2d_25">
      <g>
       <use xlink:href="#m8df0ecd4e6" x="54.015" y="94.911854" style="stroke: #000000; stroke-width: 0.8"/>
      </g>
     </g>
     <g id="text_18">
      <!-- 17.5 -->
      <g transform="translate(24.749375 98.711073) scale(0.1 -0.1)">
       <use xlink:href="#DejaVuSans-31"/>
       <use xlink:href="#DejaVuSans-37" transform="translate(63.623047 0)"/>
       <use xlink:href="#DejaVuSans-2e" transform="translate(127.246094 0)"/>
       <use xlink:href="#DejaVuSans-35" transform="translate(159.033203 0)"/>
      </g>
     </g>
    </g>
    <g id="text_19">
     <!-- Durchmesser -->
     <g transform="translate(17.837813 276.86284) rotate(-90) scale(0.14 -0.14)">
      <defs>
       <path id="DejaVuSans-Bold-44" d="M 1791 3756 
L 1791 909 
L 2222 909 
Q 2959 909 3348 1275 
Q 3738 1641 3738 2338 
Q 3738 3031 3350 3393 
Q 2963 3756 2222 3756 
L 1791 3756 
z
M 588 4666 
L 1856 4666 
Q 2919 4666 3439 4514 
Q 3959 4363 4331 4000 
Q 4659 3684 4818 3271 
Q 4978 2859 4978 2338 
Q 4978 1809 4818 1395 
Q 4659 981 4331 666 
Q 3956 303 3431 151 
Q 2906 0 1856 0 
L 588 0 
L 588 4666 
z
" transform="scale(0.015625)"/>
       <path id="DejaVuSans-Bold-63" d="M 3366 3391 
L 3366 2478 
Q 3138 2634 2908 2709 
Q 2678 2784 2431 2784 
Q 1963 2784 1702 2511 
Q 1441 2238 1441 1747 
Q 1441 1256 1702 982 
Q 1963 709 2431 709 
Q 2694 709 2930 787 
Q 3166 866 3366 1019 
L 3366 103 
Q 3103 6 2833 -42 
Q 2563 -91 2291 -91 
Q 1344 -91 809 395 
Q 275 881 275 1747 
Q 275 2613 809 3098 
Q 1344 3584 2291 3584 
Q 2566 3584 2833 3536 
Q 3100 3488 3366 3391 
z
" transform="scale(0.015625)"/>
       <path id="DejaVuSans-Bold-6d" d="M 3781 2919 
Q 3994 3244 4286 3414 
Q 4578 3584 4928 3584 
Q 5531 3584 5847 3212 
Q 6163 2841 6163 2131 
L 6163 0 
L 5038 0 
L 5038 1825 
Q 5041 1866 5042 1909 
Q 5044 1953 5044 2034 
Q 5044 2406 4934 2573 
Q 4825 2741 4581 2741 
Q 4263 2741 4089 2478 
Q 3916 2216 3909 1719 
L 3909 0 
L 2784 0 
L 2784 1825 
Q 2784 2406 2684 2573 
Q 2584 2741 2328 2741 
Q 2006 2741 1831 2477 
Q 1656 2213 1656 1722 
L 1656 0 
L 531 0 
L 531 3500 
L 1656 3500 
L 1656 2988 
Q 1863 3284 2130 3434 
Q 2397 3584 2719 3584 
Q 3081 3584 3359 3409 
Q 3638 3234 3781 2919 
z
" transform="scale(0.015625)"/>
       <path id="DejaVuSans-Bold-65" d="M 4031 1759 
L 4031 1441 
L 1416 1441 
Q 1456 1047 1700 850 
Q 1944 653 2381 653 
Q 2734 653 3104 758 
Q 3475 863 3866 1075 
L 3866 213 
Q 3469 63 3072 -14 
Q 2675 -91 2278 -91 
Q 1328 -91 801 392 
Q 275 875 275 1747 
Q 275 2603 792 3093 
Q 1309 3584 2216 3584 
Q 3041 3584 3536 3087 
Q 4031 2591 4031 1759 
z
M 2881 2131 
Q 2881 2450 2695 2645 
Q 2509 2841 2209 2841 
Q 1884 2841 1681 2658 
Q 1478 2475 1428 2131 
L 2881 2131 
z
" transform="scale(0.015625)"/>
       <path id="DejaVuSans-Bold-73" d="M 3272 3391 
L 3272 2541 
Q 2913 2691 2578 2766 
Q 2244 2841 1947 2841 
Q 1628 2841 1473 2761 
Q 1319 2681 1319 2516 
Q 1319 2381 1436 2309 
Q 1553 2238 1856 2203 
L 2053 2175 
Q 2913 2066 3209 1816 
Q 3506 1566 3506 1031 
Q 3506 472 3093 190 
Q 2681 -91 1863 -91 
Q 1516 -91 1145 -36 
Q 775 19 384 128 
L 384 978 
Q 719 816 1070 734 
Q 1422 653 1784 653 
Q 2113 653 2278 743 
Q 2444 834 2444 1013 
Q 2444 1163 2330 1236 
Q 2216 1309 1875 1350 
L 1678 1375 
Q 931 1469 631 1722 
Q 331 1975 331 2491 
Q 331 3047 712 3315 
Q 1094 3584 1881 3584 
Q 2191 3584 2531 3537 
Q 2872 3491 3272 3391 
z
" transform="scale(0.015625)"/>
      </defs>
      <use xlink:href="#DejaVuSans-Bold-44"/>
      <use xlink:href="#DejaVuSans-Bold-75" transform="translate(83.007812 0)"/>
      <use xlink:href="#DejaVuSans-Bold-72" transform="translate(154.199219 0)"/>
      <use xlink:href="#DejaVuSans-Bold-63" transform="translate(203.515625 0)"/>
      <use xlink:href="#DejaVuSans-Bold-68" transform="translate(262.792969 0)"/>
      <use xlink:href="#DejaVuSans-Bold-6d" transform="translate(333.984375 0)"/>
      <use xlink:href="#DejaVuSans-Bold-65" transform="translate(438.183594 0)"/>
      <use xlink:href="#DejaVuSans-Bold-73" transform="translate(506.005859 0)"/>
      <use xlink:href="#DejaVuSans-Bold-73" transform="translate(565.527344 0)"/>
      <use xlink:href="#DejaVuSans-Bold-65" transform="translate(625.048828 0)"/>
      <use xlink:href="#DejaVuSans-Bold-72" transform="translate(692.871094 0)"/>
     </g>
    </g>
   </g>
   <g id="LineCollection_1">
    <path d="M 135.549236 236.724873 
L 135.549236 129.770218 
" clip-path="url(#pee79561825)" style="fill: none; stroke: #8b0000; stroke-width: 2"/>
    <path d="M 232.613802 292.426546 
L 232.613802 276.221377 
" clip-path="url(#pee79561825)" style="fill: none; stroke: #8b0000; stroke-width: 2"/>
    <path d="M 329.678368 301.598947 
L 329.678368 263.651449 
" clip-path="url(#pee79561825)" style="fill: none; stroke: #8b0000; stroke-width: 2"/>
    <path d="M 426.742934 298.393679 
L 426.742934 275.350533 
" clip-path="url(#pee79561825)" style="fill: none; stroke: #8b0000; stroke-width: 2"/>
    <path d="M 523.8075 175.131453 
L 523.8075 94.53413 
" clip-path="url(#pee79561825)" style="fill: none; stroke: #8b0000; stroke-width: 2"/>
    <path d="M 620.872066 293.667159 
L 620.872066 283.47458 
" clip-path="url(#pee79561825)" style="fill: none; stroke: #8b0000; stroke-width: 2"/>
    <path d="M 717.936632 307.257266 
L 717.936632 307.257266 
" clip-path="url(#pee79561825)" style="fill: none; stroke: #8b0000; stroke-width: 2"/>
    <path d="M 815.001198 265.623405 
L 815.001198 214.688827 
" clip-path="url(#pee79561825)" style="fill: none; stroke: #8b0000; stroke-width: 2"/>
    <path d="M 912.065764 288.399259 
L 912.065764 271.754846 
" clip-path="url(#pee79561825)" style="fill: none; stroke: #8b0000; stroke-width: 2"/>
   </g>
   <g id="line2d_26">
    <defs>
     <path id="m5d1f2def57" d="M 5 0 
L -5 -0 
" style="stroke: #8b0000"/>
    </defs>
    <g clip-path="url(#pee79561825)">
     <use xlink:href="#m5d1f2def57" x="135.549236" y="236.724873" style="fill: #1f77b4; stroke: #8b0000"/>
     <use xlink:href="#m5d1f2def57" x="232.613802" y="292.426546" style="fill: #1f77b4; stroke: #8b0000"/>
     <use xlink:href="#m5d1f2def57" x="329.678368" y="301.598947" style="fill: #1f77b4; stroke: #8b0000"/>
     <use xlink:href="#m5d1f2def57" x="426.742934" y="298.393679" style="fill: #1f77b4; stroke: #8b0000"/>
     <use xlink:href="#m5d1f2def57" x="523.8075" y="175.131453" style="fill: #1f77b4; stroke: #8b0000"/>
     <use xlink:href="#m5d1f2def57" x="620.872066" y="293.667159" style="fill: #1f77b4; stroke: #8b0000"/>
     <use xlink:href="#m5d1f2def57" x="717.936632" y="307.257266" style="fill: #1f77b4; stroke: #8b0000"/>
     <use xlink:href="#m5d1f2def57" x="815.001198" y="265.623405" style="fill: #1f77b4; stroke: #8b0000"/>
     <use xlink:href="#m5d1f2def57" x="912.065764" y="288.399259" style="fill: #1f77b4; stroke: #8b0000"/>
    </g>
   </g>
   <g id="line2d_27">
    <g clip-path="url(#pee79561825)">
     <use xlink:href="#m5d1f2def57" x="135.549236" y="129.770218" style="fill: #1f77b4; stroke: #8b0000"/>
     <use xlink:href="#m5d1f2def57" x="232.613802" y="276.221377" style="fill: #1f77b4; stroke: #8b0000"/>
     <use xlink:href="#m5d1f2def57" x="329.678368" y="263.651449" style="fill: #1f77b4; stroke: #8b0000"/>
     <use xlink:href="#m5d1f2def57" x="426.742934" y="275.350533" style="fill: #1f77b4; stroke: #8b0000"/>
     <use xlink:href="#m5d1f2def57" x="523.8075" y="94.53413" style="fill: #1f77b4; stroke: #8b0000"/>
     <use xlink:href="#m5d1f2def57" x="620.872066" y="283.47458" style="fill: #1f77b4; stroke: #8b0000"/>
     <use xlink:href="#m5d1f2def57" x="717.936632" y="307.257266" style="fill: #1f77b4; stroke: #8b0000"/>
     <use xlink:href="#m5d1f2def57" x="815.001198" y="214.688827" style="fill: #1f77b4; stroke: #8b0000"/>
     <use xlink:href="#m5d1f2def57" x="912.065764" y="271.754846" style="fill: #1f77b4; stroke: #8b0000"/>
    </g>
   </g>
   <g id="patch_12">
    <path d="M 54.015 392.19543 
L 54.015 57.624 
" style="fill: none; stroke: #000000; stroke-width: 0.8; stroke-linejoin: miter; stroke-linecap: square"/>
   </g>
   <g id="patch_13">
    <path d="M 993.6 392.19543 
L 993.6 57.624 
" style="fill: none; stroke: #000000; stroke-width: 0.8; stroke-linejoin: miter; stroke-linecap: square"/>
   </g>
   <g id="patch_14">
    <path d="M 54.015 392.19543 
L 993.6 392.19543 
" style="fill: none; stroke: #000000; stroke-width: 0.8; stroke-linejoin: miter; stroke-linecap: square"/>
   </g>
   <g id="patch_15">
    <path d="M 54.015 57.624 
L 993.6 57.624 
" style="fill: none; stroke: #000000; stroke-width: 0.8; stroke-linejoin: miter; stroke-linecap: square"/>
   </g>
   <g id="text_20">
    <!-- 12.3 -->
    <g transform="translate(124.446892 122.802209) scale(0.09 -0.09)">
     <defs>
      <path id="DejaVuSans-Bold-31" d="M 750 831 
L 1813 831 
L 1813 3847 
L 722 3622 
L 722 4441 
L 1806 4666 
L 2950 4666 
L 2950 831 
L 4013 831 
L 4013 0 
L 750 0 
L 750 831 
z
" transform="scale(0.015625)"/>
      <path id="DejaVuSans-Bold-32" d="M 1844 884 
L 3897 884 
L 3897 0 
L 506 0 
L 506 884 
L 2209 2388 
Q 2438 2594 2547 2791 
Q 2656 2988 2656 3200 
Q 2656 3528 2436 3728 
Q 2216 3928 1850 3928 
Q 1569 3928 1234 3808 
Q 900 3688 519 3450 
L 519 4475 
Q 925 4609 1322 4679 
Q 1719 4750 2100 4750 
Q 2938 4750 3402 4381 
Q 3866 4013 3866 3353 
Q 3866 2972 3669 2642 
Q 3472 2313 2841 1759 
L 1844 884 
z
" transform="scale(0.015625)"/>
      <path id="DejaVuSans-Bold-2e" d="M 653 1209 
L 1778 1209 
L 1778 0 
L 653 0 
L 653 1209 
z
" transform="scale(0.015625)"/>
      <path id="DejaVuSans-Bold-33" d="M 2981 2516 
Q 3453 2394 3698 2092 
Q 3944 1791 3944 1325 
Q 3944 631 3412 270 
Q 2881 -91 1863 -91 
Q 1503 -91 1142 -33 
Q 781 25 428 141 
L 428 1069 
Q 766 900 1098 814 
Q 1431 728 1753 728 
Q 2231 728 2486 893 
Q 2741 1059 2741 1369 
Q 2741 1688 2480 1852 
Q 2219 2016 1709 2016 
L 1228 2016 
L 1228 2791 
L 1734 2791 
Q 2188 2791 2409 2933 
Q 2631 3075 2631 3366 
Q 2631 3634 2415 3781 
Q 2200 3928 1806 3928 
Q 1516 3928 1219 3862 
Q 922 3797 628 3669 
L 628 4550 
Q 984 4650 1334 4700 
Q 1684 4750 2022 4750 
Q 2931 4750 3382 4451 
Q 3834 4153 3834 3553 
Q 3834 3144 3618 2883 
Q 3403 2622 2981 2516 
z
" transform="scale(0.015625)"/>
     </defs>
     <use xlink:href="#DejaVuSans-Bold-31"/>
     <use xlink:href="#DejaVuSans-Bold-32" transform="translate(69.580078 0)"/>
     <use xlink:href="#DejaVuSans-Bold-2e" transform="translate(139.160156 0)"/>
     <use xlink:href="#DejaVuSans-Bold-33" transform="translate(177.148438 0)"/>
    </g>
   </g>
   <g id="text_21">
    <!-- 6.3 -->
    <g transform="translate(224.642474 269.253368) scale(0.09 -0.09)">
     <defs>
      <path id="DejaVuSans-Bold-36" d="M 2316 2303 
Q 2000 2303 1842 2098 
Q 1684 1894 1684 1484 
Q 1684 1075 1842 870 
Q 2000 666 2316 666 
Q 2634 666 2792 870 
Q 2950 1075 2950 1484 
Q 2950 1894 2792 2098 
Q 2634 2303 2316 2303 
z
M 3803 4544 
L 3803 3681 
Q 3506 3822 3243 3889 
Q 2981 3956 2731 3956 
Q 2194 3956 1894 3657 
Q 1594 3359 1544 2772 
Q 1750 2925 1990 3001 
Q 2231 3078 2516 3078 
Q 3231 3078 3670 2659 
Q 4109 2241 4109 1563 
Q 4109 813 3618 361 
Q 3128 -91 2303 -91 
Q 1394 -91 895 523 
Q 397 1138 397 2266 
Q 397 3422 980 4083 
Q 1563 4744 2578 4744 
Q 2900 4744 3203 4694 
Q 3506 4644 3803 4544 
z
" transform="scale(0.015625)"/>
     </defs>
     <use xlink:href="#DejaVuSans-Bold-36"/>
     <use xlink:href="#DejaVuSans-Bold-2e" transform="translate(69.580078 0)"/>
     <use xlink:href="#DejaVuSans-Bold-33" transform="translate(107.568359 0)"/>
    </g>
   </g>
   <g id="text_22">
    <!-- 6.5 -->
    <g transform="translate(321.70704 256.683441) scale(0.09 -0.09)">
     <defs>
      <path id="DejaVuSans-Bold-35" d="M 678 4666 
L 3669 4666 
L 3669 3781 
L 1638 3781 
L 1638 3059 
Q 1775 3097 1914 3117 
Q 2053 3138 2203 3138 
Q 3056 3138 3531 2711 
Q 4006 2284 4006 1522 
Q 4006 766 3489 337 
Q 2972 -91 2053 -91 
Q 1656 -91 1267 -14 
Q 878 63 494 219 
L 494 1166 
Q 875 947 1217 837 
Q 1559 728 1863 728 
Q 2300 728 2551 942 
Q 2803 1156 2803 1522 
Q 2803 1891 2551 2103 
Q 2300 2316 1863 2316 
Q 1603 2316 1309 2248 
Q 1016 2181 678 2041 
L 678 4666 
z
" transform="scale(0.015625)"/>
     </defs>
     <use xlink:href="#DejaVuSans-Bold-36"/>
     <use xlink:href="#DejaVuSans-Bold-2e" transform="translate(69.580078 0)"/>
     <use xlink:href="#DejaVuSans-Bold-35" transform="translate(107.568359 0)"/>
    </g>
   </g>
   <g id="text_23">
    <!-- 6.2 -->
    <g transform="translate(418.771606 268.382524) scale(0.09 -0.09)">
     <use xlink:href="#DejaVuSans-Bold-36"/>
     <use xlink:href="#DejaVuSans-Bold-2e" transform="translate(69.580078 0)"/>
     <use xlink:href="#DejaVuSans-Bold-32" transform="translate(107.568359 0)"/>
    </g>
   </g>
   <g id="text_24">
    <!-- 15.2 -->
    <g transform="translate(512.705156 87.566122) scale(0.09 -0.09)">
     <use xlink:href="#DejaVuSans-Bold-31"/>
     <use xlink:href="#DejaVuSans-Bold-35" transform="translate(69.580078 0)"/>
     <use xlink:href="#DejaVuSans-Bold-2e" transform="translate(139.160156 0)"/>
     <use xlink:href="#DejaVuSans-Bold-32" transform="translate(177.148438 0)"/>
    </g>
   </g>
   <g id="text_25">
    <!-- 6.1 -->
    <g transform="translate(612.900738 276.506571) scale(0.09 -0.09)">
     <use xlink:href="#DejaVuSans-Bold-36"/>
     <use xlink:href="#DejaVuSans-Bold-2e" transform="translate(69.580078 0)"/>
     <use xlink:href="#DejaVuSans-Bold-31" transform="translate(107.568359 0)"/>
    </g>
   </g>
   <g id="text_26">
    <!-- 5.0 -->
    <g transform="translate(709.965304 300.289257) scale(0.09 -0.09)">
     <defs>
      <path id="DejaVuSans-Bold-30" d="M 2944 2338 
Q 2944 3213 2780 3570 
Q 2616 3928 2228 3928 
Q 1841 3928 1675 3570 
Q 1509 3213 1509 2338 
Q 1509 1453 1675 1090 
Q 1841 728 2228 728 
Q 2613 728 2778 1090 
Q 2944 1453 2944 2338 
z
M 4147 2328 
Q 4147 1169 3647 539 
Q 3147 -91 2228 -91 
Q 1306 -91 806 539 
Q 306 1169 306 2328 
Q 306 3491 806 4120 
Q 1306 4750 2228 4750 
Q 3147 4750 3647 4120 
Q 4147 3491 4147 2328 
z
" transform="scale(0.015625)"/>
     </defs>
     <use xlink:href="#DejaVuSans-Bold-35"/>
     <use xlink:href="#DejaVuSans-Bold-2e" transform="translate(69.580078 0)"/>
     <use xlink:href="#DejaVuSans-Bold-30" transform="translate(107.568359 0)"/>
    </g>
   </g>
   <g id="text_27">
    <!-- 8.9 -->
    <g transform="translate(807.02987 207.720818) scale(0.09 -0.09)">
     <defs>
      <path id="DejaVuSans-Bold-38" d="M 2228 2088 
Q 1891 2088 1709 1903 
Q 1528 1719 1528 1375 
Q 1528 1031 1709 848 
Q 1891 666 2228 666 
Q 2563 666 2741 848 
Q 2919 1031 2919 1375 
Q 2919 1722 2741 1905 
Q 2563 2088 2228 2088 
z
M 1350 2484 
Q 925 2613 709 2878 
Q 494 3144 494 3541 
Q 494 4131 934 4440 
Q 1375 4750 2228 4750 
Q 3075 4750 3515 4442 
Q 3956 4134 3956 3541 
Q 3956 3144 3739 2878 
Q 3522 2613 3097 2484 
Q 3572 2353 3814 2058 
Q 4056 1763 4056 1313 
Q 4056 619 3595 264 
Q 3134 -91 2228 -91 
Q 1319 -91 855 264 
Q 391 619 391 1313 
Q 391 1763 633 2058 
Q 875 2353 1350 2484 
z
M 1631 3419 
Q 1631 3141 1786 2991 
Q 1941 2841 2228 2841 
Q 2509 2841 2662 2991 
Q 2816 3141 2816 3419 
Q 2816 3697 2662 3845 
Q 2509 3994 2228 3994 
Q 1941 3994 1786 3844 
Q 1631 3694 1631 3419 
z
" transform="scale(0.015625)"/>
      <path id="DejaVuSans-Bold-39" d="M 641 103 
L 641 966 
Q 928 831 1190 764 
Q 1453 697 1709 697 
Q 2247 697 2547 995 
Q 2847 1294 2900 1881 
Q 2688 1725 2447 1647 
Q 2206 1569 1925 1569 
Q 1209 1569 770 1986 
Q 331 2403 331 3084 
Q 331 3838 820 4291 
Q 1309 4744 2131 4744 
Q 3044 4744 3544 4128 
Q 4044 3513 4044 2388 
Q 4044 1231 3459 570 
Q 2875 -91 1856 -91 
Q 1528 -91 1228 -42 
Q 928 6 641 103 
z
M 2125 2350 
Q 2441 2350 2600 2554 
Q 2759 2759 2759 3169 
Q 2759 3575 2600 3781 
Q 2441 3988 2125 3988 
Q 1809 3988 1650 3781 
Q 1491 3575 1491 3169 
Q 1491 2759 1650 2554 
Q 1809 2350 2125 2350 
z
" transform="scale(0.015625)"/>
     </defs>
     <use xlink:href="#DejaVuSans-Bold-38"/>
     <use xlink:href="#DejaVuSans-Bold-2e" transform="translate(69.580078 0)"/>
     <use xlink:href="#DejaVuSans-Bold-39" transform="translate(107.568359 0)"/>
    </g>
   </g>
   <g id="text_28">
    <!-- 6.6 -->
    <g transform="translate(904.094436 264.786838) scale(0.09 -0.09)">
     <use xlink:href="#DejaVuSans-Bold-36"/>
     <use xlink:href="#DejaVuSans-Bold-2e" transform="translate(69.580078 0)"/>
     <use xlink:href="#DejaVuSans-Bold-36" transform="translate(107.568359 0)"/>
    </g>
   </g>
   <g id="text_29">
    <!-- Graphprofilverteilung: Durchmesser ber verschiedene Graphtypen -->
    <g transform="translate(217.955 19.5825) scale(0.16 -0.16)">
     <defs>
      <path id="DejaVuSans-Bold-6c" d="M 538 4863 
L 1656 4863 
L 1656 0 
L 538 0 
L 538 4863 
z
" transform="scale(0.015625)"/>
      <path id="DejaVuSans-Bold-76" d="M 97 3500 
L 1216 3500 
L 2088 1081 
L 2956 3500 
L 4078 3500 
L 2700 0 
L 1472 0 
L 97 3500 
z
" transform="scale(0.015625)"/>
      <path id="DejaVuSans-Bold-3a" d="M 716 3500 
L 1844 3500 
L 1844 2291 
L 716 2291 
L 716 3500 
z
M 716 1209 
L 1844 1209 
L 1844 0 
L 716 0 
L 716 1209 
z
" transform="scale(0.015625)"/>
      <path id="DejaVuSans-Bold-20" transform="scale(0.015625)"/>
      <path id="DejaVuSans-Bold-fc" d="M 500 1363 
L 500 3500 
L 1625 3500 
L 1625 3150 
Q 1625 2866 1622 2436 
Q 1619 2006 1619 1863 
Q 1619 1441 1641 1255 
Q 1663 1069 1716 984 
Q 1784 875 1895 815 
Q 2006 756 2150 756 
Q 2500 756 2700 1025 
Q 2900 1294 2900 1772 
L 2900 3500 
L 4019 3500 
L 4019 0 
L 2900 0 
L 2900 506 
Q 2647 200 2364 54 
Q 2081 -91 1741 -91 
Q 1134 -91 817 281 
Q 500 653 500 1363 
z
M 1280 4953 
L 2014 4953 
L 2014 4184 
L 1280 4184 
L 1280 4953 
z
M 2514 4953 
L 3248 4953 
L 3248 4184 
L 2514 4184 
L 2514 4953 
z
" transform="scale(0.015625)"/>
      <path id="DejaVuSans-Bold-62" d="M 2400 722 
Q 2759 722 2948 984 
Q 3138 1247 3138 1747 
Q 3138 2247 2948 2509 
Q 2759 2772 2400 2772 
Q 2041 2772 1848 2508 
Q 1656 2244 1656 1747 
Q 1656 1250 1848 986 
Q 2041 722 2400 722 
z
M 1656 2988 
Q 1888 3294 2169 3439 
Q 2450 3584 2816 3584 
Q 3463 3584 3878 3070 
Q 4294 2556 4294 1747 
Q 4294 938 3878 423 
Q 3463 -91 2816 -91 
Q 2450 -91 2169 54 
Q 1888 200 1656 506 
L 1656 0 
L 538 0 
L 538 4863 
L 1656 4863 
L 1656 2988 
z
" transform="scale(0.015625)"/>
      <path id="DejaVuSans-Bold-64" d="M 2919 2988 
L 2919 4863 
L 4044 4863 
L 4044 0 
L 2919 0 
L 2919 506 
Q 2688 197 2409 53 
Q 2131 -91 1766 -91 
Q 1119 -91 703 423 
Q 288 938 288 1747 
Q 288 2556 703 3070 
Q 1119 3584 1766 3584 
Q 2128 3584 2408 3439 
Q 2688 3294 2919 2988 
z
M 2181 722 
Q 2541 722 2730 984 
Q 2919 1247 2919 1747 
Q 2919 2247 2730 2509 
Q 2541 2772 2181 2772 
Q 1825 2772 1636 2509 
Q 1447 2247 1447 1747 
Q 1447 1247 1636 984 
Q 1825 722 2181 722 
z
" transform="scale(0.015625)"/>
      <path id="DejaVuSans-Bold-79" d="M 78 3500 
L 1197 3500 
L 2138 1125 
L 2938 3500 
L 4056 3500 
L 2584 -331 
Q 2363 -916 2067 -1148 
Q 1772 -1381 1288 -1381 
L 641 -1381 
L 641 -647 
L 991 -647 
Q 1275 -647 1404 -556 
Q 1534 -466 1606 -231 
L 1638 -134 
L 78 3500 
z
" transform="scale(0.015625)"/>
     </defs>
     <use xlink:href="#DejaVuSans-Bold-47"/>
     <use xlink:href="#DejaVuSans-Bold-72" transform="translate(82.080078 0)"/>
     <use xlink:href="#DejaVuSans-Bold-61" transform="translate(131.396484 0)"/>
     <use xlink:href="#DejaVuSans-Bold-70" transform="translate(198.876953 0)"/>
     <use xlink:href="#DejaVuSans-Bold-68" transform="translate(270.458984 0)"/>
     <use xlink:href="#DejaVuSans-Bold-70" transform="translate(341.650391 0)"/>
     <use xlink:href="#DejaVuSans-Bold-72" transform="translate(413.232422 0)"/>
     <use xlink:href="#DejaVuSans-Bold-6f" transform="translate(462.548828 0)"/>
     <use xlink:href="#DejaVuSans-Bold-66" transform="translate(531.25 0)"/>
     <use xlink:href="#DejaVuSans-Bold-69" transform="translate(574.755859 0)"/>
     <use xlink:href="#DejaVuSans-Bold-6c" transform="translate(609.033203 0)"/>
     <use xlink:href="#DejaVuSans-Bold-76" transform="translate(643.310547 0)"/>
     <use xlink:href="#DejaVuSans-Bold-65" transform="translate(708.496094 0)"/>
     <use xlink:href="#DejaVuSans-Bold-72" transform="translate(776.318359 0)"/>
     <use xlink:href="#DejaVuSans-Bold-74" transform="translate(825.634766 0)"/>
     <use xlink:href="#DejaVuSans-Bold-65" transform="translate(873.4375 0)"/>
     <use xlink:href="#DejaVuSans-Bold-69" transform="translate(941.259766 0)"/>
     <use xlink:href="#DejaVuSans-Bold-6c" transform="translate(975.537109 0)"/>
     <use xlink:href="#DejaVuSans-Bold-75" transform="translate(1009.814453 0)"/>
     <use xlink:href="#DejaVuSans-Bold-6e" transform="translate(1081.005859 0)"/>
     <use xlink:href="#DejaVuSans-Bold-67" transform="translate(1152.197266 0)"/>
     <use xlink:href="#DejaVuSans-Bold-3a" transform="translate(1223.779297 0)"/>
     <use xlink:href="#DejaVuSans-Bold-20" transform="translate(1263.769531 0)"/>
     <use xlink:href="#DejaVuSans-Bold-44" transform="translate(1298.583984 0)"/>
     <use xlink:href="#DejaVuSans-Bold-75" transform="translate(1381.591797 0)"/>
     <use xlink:href="#DejaVuSans-Bold-72" transform="translate(1452.783203 0)"/>
     <use xlink:href="#DejaVuSans-Bold-63" transform="translate(1502.099609 0)"/>
     <use xlink:href="#DejaVuSans-Bold-68" transform="translate(1561.376953 0)"/>
     <use xlink:href="#DejaVuSans-Bold-6d" transform="translate(1632.568359 0)"/>
     <use xlink:href="#DejaVuSans-Bold-65" transform="translate(1736.767578 0)"/>
     <use xlink:href="#DejaVuSans-Bold-73" transform="translate(1804.589844 0)"/>
     <use xlink:href="#DejaVuSans-Bold-73" transform="translate(1864.111328 0)"/>
     <use xlink:href="#DejaVuSans-Bold-65" transform="translate(1923.632812 0)"/>
     <use xlink:href="#DejaVuSans-Bold-72" transform="translate(1991.455078 0)"/>
     <use xlink:href="#DejaVuSans-Bold-20" transform="translate(2040.771484 0)"/>
     <use xlink:href="#DejaVuSans-Bold-fc" transform="translate(2075.585938 0)"/>
     <use xlink:href="#DejaVuSans-Bold-62" transform="translate(2146.777344 0)"/>
     <use xlink:href="#DejaVuSans-Bold-65" transform="translate(2218.359375 0)"/>
     <use xlink:href="#DejaVuSans-Bold-72" transform="translate(2286.181641 0)"/>
     <use xlink:href="#DejaVuSans-Bold-20" transform="translate(2335.498047 0)"/>
     <use xlink:href="#DejaVuSans-Bold-76" transform="translate(2370.3125 0)"/>
     <use xlink:href="#DejaVuSans-Bold-65" transform="translate(2435.498047 0)"/>
     <use xlink:href="#DejaVuSans-Bold-72" transform="translate(2503.320312 0)"/>
     <use xlink:href="#DejaVuSans-Bold-73" transform="translate(2552.636719 0)"/>
     <use xlink:href="#DejaVuSans-Bold-63" transform="translate(2612.158203 0)"/>
     <use xlink:href="#DejaVuSans-Bold-68" transform="translate(2671.435547 0)"/>
     <use xlink:href="#DejaVuSans-Bold-69" transform="translate(2742.626953 0)"/>
     <use xlink:href="#DejaVuSans-Bold-65" transform="translate(2776.904297 0)"/>
     <use xlink:href="#DejaVuSans-Bold-64" transform="translate(2844.726562 0)"/>
     <use xlink:href="#DejaVuSans-Bold-65" transform="translate(2916.308594 0)"/>
     <use xlink:href="#DejaVuSans-Bold-6e" transform="translate(2984.130859 0)"/>
     <use xlink:href="#DejaVuSans-Bold-65" transform="translate(3055.322266 0)"/>
     <use xlink:href="#DejaVuSans-Bold-20" transform="translate(3123.144531 0)"/>
     <use xlink:href="#DejaVuSans-Bold-47" transform="translate(3157.958984 0)"/>
     <use xlink:href="#DejaVuSans-Bold-72" transform="translate(3240.039062 0)"/>
     <use xlink:href="#DejaVuSans-Bold-61" transform="translate(3289.355469 0)"/>
     <use xlink:href="#DejaVuSans-Bold-70" transform="translate(3356.835938 0)"/>
     <use xlink:href="#DejaVuSans-Bold-68" transform="translate(3428.417969 0)"/>
     <use xlink:href="#DejaVuSans-Bold-74" transform="translate(3499.609375 0)"/>
     <use xlink:href="#DejaVuSans-Bold-79" transform="translate(3547.412109 0)"/>
     <use xlink:href="#DejaVuSans-Bold-70" transform="translate(3612.597656 0)"/>
     <use xlink:href="#DejaVuSans-Bold-65" transform="translate(3684.179688 0)"/>
     <use xlink:href="#DejaVuSans-Bold-6e" transform="translate(3752.001953 0)"/>
    </g>
    <!-- (Mittelwert  Standardabweichung, n=20 Samples) -->
    <g transform="translate(291.10875 37.624) scale(0.16 -0.16)">
     <defs>
      <path id="DejaVuSans-Bold-28" d="M 2413 -844 
L 1484 -844 
Q 1006 -72 778 623 
Q 550 1319 550 2003 
Q 550 2688 779 3389 
Q 1009 4091 1484 4856 
L 2413 4856 
Q 2013 4116 1813 3408 
Q 1613 2700 1613 2009 
Q 1613 1319 1811 609 
Q 2009 -100 2413 -844 
z
" transform="scale(0.015625)"/>
      <path id="DejaVuSans-Bold-4d" d="M 588 4666 
L 2119 4666 
L 3181 2169 
L 4250 4666 
L 5778 4666 
L 5778 0 
L 4641 0 
L 4641 3413 
L 3566 897 
L 2803 897 
L 1728 3413 
L 1728 0 
L 588 0 
L 588 4666 
z
" transform="scale(0.015625)"/>
      <path id="DejaVuSans-Bold-77" d="M 225 3500 
L 1313 3500 
L 1900 1088 
L 2491 3500 
L 3425 3500 
L 4013 1113 
L 4603 3500 
L 5691 3500 
L 4769 0 
L 3547 0 
L 2956 2406 
L 2369 0 
L 1147 0 
L 225 3500 
z
" transform="scale(0.015625)"/>
      <path id="DejaVuSans-Bold-b1" d="M 3053 4013 
L 3053 2906 
L 4684 2906 
L 4684 2169 
L 3053 2169 
L 3053 1063 
L 2309 1063 
L 2309 2169 
L 678 2169 
L 678 2906 
L 2309 2906 
L 2309 4013 
L 3053 4013 
z
M 678 744 
L 4684 744 
L 4684 0 
L 678 0 
L 678 744 
z
" transform="scale(0.015625)"/>
      <path id="DejaVuSans-Bold-53" d="M 3834 4519 
L 3834 3531 
Q 3450 3703 3084 3790 
Q 2719 3878 2394 3878 
Q 1963 3878 1756 3759 
Q 1550 3641 1550 3391 
Q 1550 3203 1689 3098 
Q 1828 2994 2194 2919 
L 2706 2816 
Q 3484 2659 3812 2340 
Q 4141 2022 4141 1434 
Q 4141 663 3683 286 
Q 3225 -91 2284 -91 
Q 1841 -91 1394 -6 
Q 947 78 500 244 
L 500 1259 
Q 947 1022 1364 901 
Q 1781 781 2169 781 
Q 2563 781 2772 912 
Q 2981 1044 2981 1288 
Q 2981 1506 2839 1625 
Q 2697 1744 2272 1838 
L 1806 1941 
Q 1106 2091 782 2419 
Q 459 2747 459 3303 
Q 459 4000 909 4375 
Q 1359 4750 2203 4750 
Q 2588 4750 2994 4692 
Q 3400 4634 3834 4519 
z
" transform="scale(0.015625)"/>
      <path id="DejaVuSans-Bold-2c" d="M 653 1209 
L 1778 1209 
L 1778 256 
L 1006 -909 
L 341 -909 
L 653 256 
L 653 1209 
z
" transform="scale(0.015625)"/>
      <path id="DejaVuSans-Bold-3d" d="M 678 3084 
L 4684 3084 
L 4684 2350 
L 678 2350 
L 678 3084 
z
M 678 1663 
L 4684 1663 
L 4684 922 
L 678 922 
L 678 1663 
z
" transform="scale(0.015625)"/>
      <path id="DejaVuSans-Bold-29" d="M 513 -844 
Q 913 -100 1113 609 
Q 1313 1319 1313 2009 
Q 1313 2700 1113 3408 
Q 913 4116 513 4856 
L 1441 4856 
Q 1916 4091 2145 3389 
Q 2375 2688 2375 2003 
Q 2375 1319 2147 623 
Q 1919 -72 1441 -844 
L 513 -844 
z
" transform="scale(0.015625)"/>
     </defs>
     <use xlink:href="#DejaVuSans-Bold-28"/>
     <use xlink:href="#DejaVuSans-Bold-4d" transform="translate(45.703125 0)"/>
     <use xlink:href="#DejaVuSans-Bold-69" transform="translate(145.214844 0)"/>
     <use xlink:href="#DejaVuSans-Bold-74" transform="translate(179.492188 0)"/>
     <use xlink:href="#DejaVuSans-Bold-74" transform="translate(227.294922 0)"/>
     <use xlink:href="#DejaVuSans-Bold-65" transform="translate(275.097656 0)"/>
     <use xlink:href="#DejaVuSans-Bold-6c" transform="translate(342.919922 0)"/>
     <use xlink:href="#DejaVuSans-Bold-77" transform="translate(377.197266 0)"/>
     <use xlink:href="#DejaVuSans-Bold-65" transform="translate(469.580078 0)"/>
     <use xlink:href="#DejaVuSans-Bold-72" transform="translate(537.402344 0)"/>
     <use xlink:href="#DejaVuSans-Bold-74" transform="translate(586.71875 0)"/>
     <use xlink:href="#DejaVuSans-Bold-20" transform="translate(634.521484 0)"/>
     <use xlink:href="#DejaVuSans-Bold-b1" transform="translate(669.335938 0)"/>
     <use xlink:href="#DejaVuSans-Bold-20" transform="translate(753.125 0)"/>
     <use xlink:href="#DejaVuSans-Bold-53" transform="translate(787.939453 0)"/>
     <use xlink:href="#DejaVuSans-Bold-74" transform="translate(859.960938 0)"/>
     <use xlink:href="#DejaVuSans-Bold-61" transform="translate(907.763672 0)"/>
     <use xlink:href="#DejaVuSans-Bold-6e" transform="translate(975.244141 0)"/>
     <use xlink:href="#DejaVuSans-Bold-64" transform="translate(1046.435547 0)"/>
     <use xlink:href="#DejaVuSans-Bold-61" transform="translate(1118.017578 0)"/>
     <use xlink:href="#DejaVuSans-Bold-72" transform="translate(1185.498047 0)"/>
     <use xlink:href="#DejaVuSans-Bold-64" transform="translate(1234.814453 0)"/>
     <use xlink:href="#DejaVuSans-Bold-61" transform="translate(1306.396484 0)"/>
     <use xlink:href="#DejaVuSans-Bold-62" transform="translate(1373.876953 0)"/>
     <use xlink:href="#DejaVuSans-Bold-77" transform="translate(1445.458984 0)"/>
     <use xlink:href="#DejaVuSans-Bold-65" transform="translate(1537.841797 0)"/>
     <use xlink:href="#DejaVuSans-Bold-69" transform="translate(1605.664062 0)"/>
     <use xlink:href="#DejaVuSans-Bold-63" transform="translate(1639.941406 0)"/>
     <use xlink:href="#DejaVuSans-Bold-68" transform="translate(1699.21875 0)"/>
     <use xlink:href="#DejaVuSans-Bold-75" transform="translate(1770.410156 0)"/>
     <use xlink:href="#DejaVuSans-Bold-6e" transform="translate(1841.601562 0)"/>
     <use xlink:href="#DejaVuSans-Bold-67" transform="translate(1912.792969 0)"/>
     <use xlink:href="#DejaVuSans-Bold-2c" transform="translate(1984.375 0)"/>
     <use xlink:href="#DejaVuSans-Bold-20" transform="translate(2022.363281 0)"/>
     <use xlink:href="#DejaVuSans-Bold-6e" transform="translate(2057.177734 0)"/>
     <use xlink:href="#DejaVuSans-Bold-3d" transform="translate(2128.369141 0)"/>
     <use xlink:href="#DejaVuSans-Bold-32" transform="translate(2212.158203 0)"/>
     <use xlink:href="#DejaVuSans-Bold-30" transform="translate(2281.738281 0)"/>
     <use xlink:href="#DejaVuSans-Bold-20" transform="translate(2351.318359 0)"/>
     <use xlink:href="#DejaVuSans-Bold-53" transform="translate(2386.132812 0)"/>
     <use xlink:href="#DejaVuSans-Bold-61" transform="translate(2458.154297 0)"/>
     <use xlink:href="#DejaVuSans-Bold-6d" transform="translate(2525.634766 0)"/>
     <use xlink:href="#DejaVuSans-Bold-70" transform="translate(2629.833984 0)"/>
     <use xlink:href="#DejaVuSans-Bold-6c" transform="translate(2701.416016 0)"/>
     <use xlink:href="#DejaVuSans-Bold-65" transform="translate(2735.693359 0)"/>
     <use xlink:href="#DejaVuSans-Bold-73" transform="translate(2803.515625 0)"/>
     <use xlink:href="#DejaVuSans-Bold-29" transform="translate(2863.037109 0)"/>
    </g>
   </g>
  </g>
 </g>
 <defs>
  <clipPath id="pee79561825">
   <rect x="54.015" y="57.624" width="939.585" height="334.57143"/>
  </clipPath>
 </defs>
</svg>
